%TF.GenerationSoftware,KiCad,Pcbnew,7.0.5-7.0.5~ubuntu22.04.1*%
%TF.CreationDate,2023-06-08T15:32:45+02:00*%
%TF.ProjectId,AirGo,41697247-6f2e-46b6-9963-61645f706362,rev?*%
%TF.SameCoordinates,Original*%
%TF.FileFunction,Legend,Top*%
%TF.FilePolarity,Positive*%
%FSLAX46Y46*%
G04 Gerber Fmt 4.6, Leading zero omitted, Abs format (unit mm)*
G04 Created by KiCad (PCBNEW 7.0.5-7.0.5~ubuntu22.04.1) date 2023-06-08 15:32:45*
%MOMM*%
%LPD*%
G01*
G04 APERTURE LIST*
%ADD10C,0.250000*%
%ADD11C,0.300000*%
%ADD12C,0.150000*%
%ADD13C,0.127000*%
%ADD14C,0.120000*%
G04 APERTURE END LIST*
D10*
X122356238Y-43015622D02*
X122308619Y-43110860D01*
X122308619Y-43110860D02*
X122308619Y-43253717D01*
X122308619Y-43253717D02*
X122356238Y-43396574D01*
X122356238Y-43396574D02*
X122451476Y-43491812D01*
X122451476Y-43491812D02*
X122546714Y-43539431D01*
X122546714Y-43539431D02*
X122737190Y-43587050D01*
X122737190Y-43587050D02*
X122880047Y-43587050D01*
X122880047Y-43587050D02*
X123070523Y-43539431D01*
X123070523Y-43539431D02*
X123165761Y-43491812D01*
X123165761Y-43491812D02*
X123261000Y-43396574D01*
X123261000Y-43396574D02*
X123308619Y-43253717D01*
X123308619Y-43253717D02*
X123308619Y-43158479D01*
X123308619Y-43158479D02*
X123261000Y-43015622D01*
X123261000Y-43015622D02*
X123213380Y-42968003D01*
X123213380Y-42968003D02*
X122880047Y-42968003D01*
X122880047Y-42968003D02*
X122880047Y-43158479D01*
X123308619Y-42539431D02*
X122308619Y-42539431D01*
X122308619Y-42539431D02*
X123308619Y-41968003D01*
X123308619Y-41968003D02*
X122308619Y-41968003D01*
X123308619Y-41491812D02*
X122308619Y-41491812D01*
X122308619Y-41491812D02*
X122308619Y-41253717D01*
X122308619Y-41253717D02*
X122356238Y-41110860D01*
X122356238Y-41110860D02*
X122451476Y-41015622D01*
X122451476Y-41015622D02*
X122546714Y-40968003D01*
X122546714Y-40968003D02*
X122737190Y-40920384D01*
X122737190Y-40920384D02*
X122880047Y-40920384D01*
X122880047Y-40920384D02*
X123070523Y-40968003D01*
X123070523Y-40968003D02*
X123165761Y-41015622D01*
X123165761Y-41015622D02*
X123261000Y-41110860D01*
X123261000Y-41110860D02*
X123308619Y-41253717D01*
X123308619Y-41253717D02*
X123308619Y-41491812D01*
D11*
X93473257Y-94512917D02*
X93473257Y-93798632D01*
X93901828Y-94655774D02*
X92401828Y-94155774D01*
X92401828Y-94155774D02*
X93901828Y-93655774D01*
X93901828Y-93155775D02*
X92901828Y-93155775D01*
X92401828Y-93155775D02*
X92473257Y-93227203D01*
X92473257Y-93227203D02*
X92544685Y-93155775D01*
X92544685Y-93155775D02*
X92473257Y-93084346D01*
X92473257Y-93084346D02*
X92401828Y-93155775D01*
X92401828Y-93155775D02*
X92544685Y-93155775D01*
X93901828Y-92441489D02*
X92901828Y-92441489D01*
X93187542Y-92441489D02*
X93044685Y-92370060D01*
X93044685Y-92370060D02*
X92973257Y-92298632D01*
X92973257Y-92298632D02*
X92901828Y-92155774D01*
X92901828Y-92155774D02*
X92901828Y-92012917D01*
X92473257Y-90727203D02*
X92401828Y-90870061D01*
X92401828Y-90870061D02*
X92401828Y-91084346D01*
X92401828Y-91084346D02*
X92473257Y-91298632D01*
X92473257Y-91298632D02*
X92616114Y-91441489D01*
X92616114Y-91441489D02*
X92758971Y-91512918D01*
X92758971Y-91512918D02*
X93044685Y-91584346D01*
X93044685Y-91584346D02*
X93258971Y-91584346D01*
X93258971Y-91584346D02*
X93544685Y-91512918D01*
X93544685Y-91512918D02*
X93687542Y-91441489D01*
X93687542Y-91441489D02*
X93830400Y-91298632D01*
X93830400Y-91298632D02*
X93901828Y-91084346D01*
X93901828Y-91084346D02*
X93901828Y-90941489D01*
X93901828Y-90941489D02*
X93830400Y-90727203D01*
X93830400Y-90727203D02*
X93758971Y-90655775D01*
X93758971Y-90655775D02*
X93258971Y-90655775D01*
X93258971Y-90655775D02*
X93258971Y-90941489D01*
X93901828Y-89798632D02*
X93830400Y-89941489D01*
X93830400Y-89941489D02*
X93758971Y-90012918D01*
X93758971Y-90012918D02*
X93616114Y-90084346D01*
X93616114Y-90084346D02*
X93187542Y-90084346D01*
X93187542Y-90084346D02*
X93044685Y-90012918D01*
X93044685Y-90012918D02*
X92973257Y-89941489D01*
X92973257Y-89941489D02*
X92901828Y-89798632D01*
X92901828Y-89798632D02*
X92901828Y-89584346D01*
X92901828Y-89584346D02*
X92973257Y-89441489D01*
X92973257Y-89441489D02*
X93044685Y-89370061D01*
X93044685Y-89370061D02*
X93187542Y-89298632D01*
X93187542Y-89298632D02*
X93616114Y-89298632D01*
X93616114Y-89298632D02*
X93758971Y-89370061D01*
X93758971Y-89370061D02*
X93830400Y-89441489D01*
X93830400Y-89441489D02*
X93901828Y-89584346D01*
X93901828Y-89584346D02*
X93901828Y-89798632D01*
X92401828Y-87727203D02*
X93901828Y-87227203D01*
X93901828Y-87227203D02*
X92401828Y-86727203D01*
X92401828Y-85941489D02*
X92401828Y-85798632D01*
X92401828Y-85798632D02*
X92473257Y-85655775D01*
X92473257Y-85655775D02*
X92544685Y-85584347D01*
X92544685Y-85584347D02*
X92687542Y-85512918D01*
X92687542Y-85512918D02*
X92973257Y-85441489D01*
X92973257Y-85441489D02*
X93330400Y-85441489D01*
X93330400Y-85441489D02*
X93616114Y-85512918D01*
X93616114Y-85512918D02*
X93758971Y-85584347D01*
X93758971Y-85584347D02*
X93830400Y-85655775D01*
X93830400Y-85655775D02*
X93901828Y-85798632D01*
X93901828Y-85798632D02*
X93901828Y-85941489D01*
X93901828Y-85941489D02*
X93830400Y-86084347D01*
X93830400Y-86084347D02*
X93758971Y-86155775D01*
X93758971Y-86155775D02*
X93616114Y-86227204D01*
X93616114Y-86227204D02*
X93330400Y-86298632D01*
X93330400Y-86298632D02*
X92973257Y-86298632D01*
X92973257Y-86298632D02*
X92687542Y-86227204D01*
X92687542Y-86227204D02*
X92544685Y-86155775D01*
X92544685Y-86155775D02*
X92473257Y-86084347D01*
X92473257Y-86084347D02*
X92401828Y-85941489D01*
X93758971Y-84798633D02*
X93830400Y-84727204D01*
X93830400Y-84727204D02*
X93901828Y-84798633D01*
X93901828Y-84798633D02*
X93830400Y-84870061D01*
X93830400Y-84870061D02*
X93758971Y-84798633D01*
X93758971Y-84798633D02*
X93901828Y-84798633D01*
X93901828Y-83298632D02*
X93901828Y-84155775D01*
X93901828Y-83727204D02*
X92401828Y-83727204D01*
X92401828Y-83727204D02*
X92616114Y-83870061D01*
X92616114Y-83870061D02*
X92758971Y-84012918D01*
X92758971Y-84012918D02*
X92830400Y-84155775D01*
X95531114Y-93941489D02*
X95531114Y-94441489D01*
X96316828Y-94441489D02*
X94816828Y-94441489D01*
X94816828Y-94441489D02*
X94816828Y-93727203D01*
X96316828Y-92512918D02*
X95531114Y-92512918D01*
X95531114Y-92512918D02*
X95388257Y-92584346D01*
X95388257Y-92584346D02*
X95316828Y-92727203D01*
X95316828Y-92727203D02*
X95316828Y-93012918D01*
X95316828Y-93012918D02*
X95388257Y-93155775D01*
X96245400Y-92512918D02*
X96316828Y-92655775D01*
X96316828Y-92655775D02*
X96316828Y-93012918D01*
X96316828Y-93012918D02*
X96245400Y-93155775D01*
X96245400Y-93155775D02*
X96102542Y-93227203D01*
X96102542Y-93227203D02*
X95959685Y-93227203D01*
X95959685Y-93227203D02*
X95816828Y-93155775D01*
X95816828Y-93155775D02*
X95745400Y-93012918D01*
X95745400Y-93012918D02*
X95745400Y-92655775D01*
X95745400Y-92655775D02*
X95673971Y-92512918D01*
X96316828Y-91798632D02*
X94816828Y-91798632D01*
X95388257Y-91798632D02*
X95316828Y-91655775D01*
X95316828Y-91655775D02*
X95316828Y-91370060D01*
X95316828Y-91370060D02*
X95388257Y-91227203D01*
X95388257Y-91227203D02*
X95459685Y-91155775D01*
X95459685Y-91155775D02*
X95602542Y-91084346D01*
X95602542Y-91084346D02*
X96031114Y-91084346D01*
X96031114Y-91084346D02*
X96173971Y-91155775D01*
X96173971Y-91155775D02*
X96245400Y-91227203D01*
X96245400Y-91227203D02*
X96316828Y-91370060D01*
X96316828Y-91370060D02*
X96316828Y-91655775D01*
X96316828Y-91655775D02*
X96245400Y-91798632D01*
X96316828Y-90441489D02*
X95316828Y-90441489D01*
X95602542Y-90441489D02*
X95459685Y-90370060D01*
X95459685Y-90370060D02*
X95388257Y-90298632D01*
X95388257Y-90298632D02*
X95316828Y-90155774D01*
X95316828Y-90155774D02*
X95316828Y-90012917D01*
X96316828Y-89512918D02*
X95316828Y-89512918D01*
X94816828Y-89512918D02*
X94888257Y-89584346D01*
X94888257Y-89584346D02*
X94959685Y-89512918D01*
X94959685Y-89512918D02*
X94888257Y-89441489D01*
X94888257Y-89441489D02*
X94816828Y-89512918D01*
X94816828Y-89512918D02*
X94959685Y-89512918D01*
X96316828Y-88798632D02*
X94816828Y-88798632D01*
X95745400Y-88655775D02*
X96316828Y-88227203D01*
X95316828Y-88227203D02*
X95888257Y-88798632D01*
X96316828Y-86941489D02*
X95531114Y-86941489D01*
X95531114Y-86941489D02*
X95388257Y-87012917D01*
X95388257Y-87012917D02*
X95316828Y-87155774D01*
X95316828Y-87155774D02*
X95316828Y-87441489D01*
X95316828Y-87441489D02*
X95388257Y-87584346D01*
X96245400Y-86941489D02*
X96316828Y-87084346D01*
X96316828Y-87084346D02*
X96316828Y-87441489D01*
X96316828Y-87441489D02*
X96245400Y-87584346D01*
X96245400Y-87584346D02*
X96102542Y-87655774D01*
X96102542Y-87655774D02*
X95959685Y-87655774D01*
X95959685Y-87655774D02*
X95816828Y-87584346D01*
X95816828Y-87584346D02*
X95745400Y-87441489D01*
X95745400Y-87441489D02*
X95745400Y-87084346D01*
X95745400Y-87084346D02*
X95673971Y-86941489D01*
X96316828Y-86227203D02*
X95316828Y-86227203D01*
X95602542Y-86227203D02*
X95459685Y-86155774D01*
X95459685Y-86155774D02*
X95388257Y-86084346D01*
X95388257Y-86084346D02*
X95316828Y-85941488D01*
X95316828Y-85941488D02*
X95316828Y-85798631D01*
X96316828Y-85298632D02*
X95316828Y-85298632D01*
X94816828Y-85298632D02*
X94888257Y-85370060D01*
X94888257Y-85370060D02*
X94959685Y-85298632D01*
X94959685Y-85298632D02*
X94888257Y-85227203D01*
X94888257Y-85227203D02*
X94816828Y-85298632D01*
X94816828Y-85298632D02*
X94959685Y-85298632D01*
X95316828Y-83941489D02*
X96316828Y-83941489D01*
X95316828Y-84584346D02*
X96102542Y-84584346D01*
X96102542Y-84584346D02*
X96245400Y-84512917D01*
X96245400Y-84512917D02*
X96316828Y-84370060D01*
X96316828Y-84370060D02*
X96316828Y-84155774D01*
X96316828Y-84155774D02*
X96245400Y-84012917D01*
X96245400Y-84012917D02*
X96173971Y-83941489D01*
X96316828Y-83227203D02*
X95316828Y-83227203D01*
X95459685Y-83227203D02*
X95388257Y-83155774D01*
X95388257Y-83155774D02*
X95316828Y-83012917D01*
X95316828Y-83012917D02*
X95316828Y-82798631D01*
X95316828Y-82798631D02*
X95388257Y-82655774D01*
X95388257Y-82655774D02*
X95531114Y-82584346D01*
X95531114Y-82584346D02*
X96316828Y-82584346D01*
X95531114Y-82584346D02*
X95388257Y-82512917D01*
X95388257Y-82512917D02*
X95316828Y-82370060D01*
X95316828Y-82370060D02*
X95316828Y-82155774D01*
X95316828Y-82155774D02*
X95388257Y-82012917D01*
X95388257Y-82012917D02*
X95531114Y-81941488D01*
X95531114Y-81941488D02*
X96316828Y-81941488D01*
X94816828Y-79798631D02*
X94816828Y-79655774D01*
X94816828Y-79655774D02*
X94888257Y-79512917D01*
X94888257Y-79512917D02*
X94959685Y-79441489D01*
X94959685Y-79441489D02*
X95102542Y-79370060D01*
X95102542Y-79370060D02*
X95388257Y-79298631D01*
X95388257Y-79298631D02*
X95745400Y-79298631D01*
X95745400Y-79298631D02*
X96031114Y-79370060D01*
X96031114Y-79370060D02*
X96173971Y-79441489D01*
X96173971Y-79441489D02*
X96245400Y-79512917D01*
X96245400Y-79512917D02*
X96316828Y-79655774D01*
X96316828Y-79655774D02*
X96316828Y-79798631D01*
X96316828Y-79798631D02*
X96245400Y-79941489D01*
X96245400Y-79941489D02*
X96173971Y-80012917D01*
X96173971Y-80012917D02*
X96031114Y-80084346D01*
X96031114Y-80084346D02*
X95745400Y-80155774D01*
X95745400Y-80155774D02*
X95388257Y-80155774D01*
X95388257Y-80155774D02*
X95102542Y-80084346D01*
X95102542Y-80084346D02*
X94959685Y-80012917D01*
X94959685Y-80012917D02*
X94888257Y-79941489D01*
X94888257Y-79941489D02*
X94816828Y-79798631D01*
X95459685Y-78441489D02*
X95388257Y-78584346D01*
X95388257Y-78584346D02*
X95316828Y-78655775D01*
X95316828Y-78655775D02*
X95173971Y-78727203D01*
X95173971Y-78727203D02*
X95102542Y-78727203D01*
X95102542Y-78727203D02*
X94959685Y-78655775D01*
X94959685Y-78655775D02*
X94888257Y-78584346D01*
X94888257Y-78584346D02*
X94816828Y-78441489D01*
X94816828Y-78441489D02*
X94816828Y-78155775D01*
X94816828Y-78155775D02*
X94888257Y-78012918D01*
X94888257Y-78012918D02*
X94959685Y-77941489D01*
X94959685Y-77941489D02*
X95102542Y-77870060D01*
X95102542Y-77870060D02*
X95173971Y-77870060D01*
X95173971Y-77870060D02*
X95316828Y-77941489D01*
X95316828Y-77941489D02*
X95388257Y-78012918D01*
X95388257Y-78012918D02*
X95459685Y-78155775D01*
X95459685Y-78155775D02*
X95459685Y-78441489D01*
X95459685Y-78441489D02*
X95531114Y-78584346D01*
X95531114Y-78584346D02*
X95602542Y-78655775D01*
X95602542Y-78655775D02*
X95745400Y-78727203D01*
X95745400Y-78727203D02*
X96031114Y-78727203D01*
X96031114Y-78727203D02*
X96173971Y-78655775D01*
X96173971Y-78655775D02*
X96245400Y-78584346D01*
X96245400Y-78584346D02*
X96316828Y-78441489D01*
X96316828Y-78441489D02*
X96316828Y-78155775D01*
X96316828Y-78155775D02*
X96245400Y-78012918D01*
X96245400Y-78012918D02*
X96173971Y-77941489D01*
X96173971Y-77941489D02*
X96031114Y-77870060D01*
X96031114Y-77870060D02*
X95745400Y-77870060D01*
X95745400Y-77870060D02*
X95602542Y-77941489D01*
X95602542Y-77941489D02*
X95531114Y-78012918D01*
X95531114Y-78012918D02*
X95459685Y-78155775D01*
X94745400Y-76155775D02*
X96673971Y-77441489D01*
X94816828Y-75370060D02*
X94816828Y-75227203D01*
X94816828Y-75227203D02*
X94888257Y-75084346D01*
X94888257Y-75084346D02*
X94959685Y-75012918D01*
X94959685Y-75012918D02*
X95102542Y-74941489D01*
X95102542Y-74941489D02*
X95388257Y-74870060D01*
X95388257Y-74870060D02*
X95745400Y-74870060D01*
X95745400Y-74870060D02*
X96031114Y-74941489D01*
X96031114Y-74941489D02*
X96173971Y-75012918D01*
X96173971Y-75012918D02*
X96245400Y-75084346D01*
X96245400Y-75084346D02*
X96316828Y-75227203D01*
X96316828Y-75227203D02*
X96316828Y-75370060D01*
X96316828Y-75370060D02*
X96245400Y-75512918D01*
X96245400Y-75512918D02*
X96173971Y-75584346D01*
X96173971Y-75584346D02*
X96031114Y-75655775D01*
X96031114Y-75655775D02*
X95745400Y-75727203D01*
X95745400Y-75727203D02*
X95388257Y-75727203D01*
X95388257Y-75727203D02*
X95102542Y-75655775D01*
X95102542Y-75655775D02*
X94959685Y-75584346D01*
X94959685Y-75584346D02*
X94888257Y-75512918D01*
X94888257Y-75512918D02*
X94816828Y-75370060D01*
X94816828Y-73584347D02*
X94816828Y-73870061D01*
X94816828Y-73870061D02*
X94888257Y-74012918D01*
X94888257Y-74012918D02*
X94959685Y-74084347D01*
X94959685Y-74084347D02*
X95173971Y-74227204D01*
X95173971Y-74227204D02*
X95459685Y-74298632D01*
X95459685Y-74298632D02*
X96031114Y-74298632D01*
X96031114Y-74298632D02*
X96173971Y-74227204D01*
X96173971Y-74227204D02*
X96245400Y-74155775D01*
X96245400Y-74155775D02*
X96316828Y-74012918D01*
X96316828Y-74012918D02*
X96316828Y-73727204D01*
X96316828Y-73727204D02*
X96245400Y-73584347D01*
X96245400Y-73584347D02*
X96173971Y-73512918D01*
X96173971Y-73512918D02*
X96031114Y-73441489D01*
X96031114Y-73441489D02*
X95673971Y-73441489D01*
X95673971Y-73441489D02*
X95531114Y-73512918D01*
X95531114Y-73512918D02*
X95459685Y-73584347D01*
X95459685Y-73584347D02*
X95388257Y-73727204D01*
X95388257Y-73727204D02*
X95388257Y-74012918D01*
X95388257Y-74012918D02*
X95459685Y-74155775D01*
X95459685Y-74155775D02*
X95531114Y-74227204D01*
X95531114Y-74227204D02*
X95673971Y-74298632D01*
X94745400Y-71727204D02*
X96673971Y-73012918D01*
X94959685Y-71298632D02*
X94888257Y-71227204D01*
X94888257Y-71227204D02*
X94816828Y-71084347D01*
X94816828Y-71084347D02*
X94816828Y-70727204D01*
X94816828Y-70727204D02*
X94888257Y-70584347D01*
X94888257Y-70584347D02*
X94959685Y-70512918D01*
X94959685Y-70512918D02*
X95102542Y-70441489D01*
X95102542Y-70441489D02*
X95245400Y-70441489D01*
X95245400Y-70441489D02*
X95459685Y-70512918D01*
X95459685Y-70512918D02*
X96316828Y-71370061D01*
X96316828Y-71370061D02*
X96316828Y-70441489D01*
X94816828Y-69512918D02*
X94816828Y-69370061D01*
X94816828Y-69370061D02*
X94888257Y-69227204D01*
X94888257Y-69227204D02*
X94959685Y-69155776D01*
X94959685Y-69155776D02*
X95102542Y-69084347D01*
X95102542Y-69084347D02*
X95388257Y-69012918D01*
X95388257Y-69012918D02*
X95745400Y-69012918D01*
X95745400Y-69012918D02*
X96031114Y-69084347D01*
X96031114Y-69084347D02*
X96173971Y-69155776D01*
X96173971Y-69155776D02*
X96245400Y-69227204D01*
X96245400Y-69227204D02*
X96316828Y-69370061D01*
X96316828Y-69370061D02*
X96316828Y-69512918D01*
X96316828Y-69512918D02*
X96245400Y-69655776D01*
X96245400Y-69655776D02*
X96173971Y-69727204D01*
X96173971Y-69727204D02*
X96031114Y-69798633D01*
X96031114Y-69798633D02*
X95745400Y-69870061D01*
X95745400Y-69870061D02*
X95388257Y-69870061D01*
X95388257Y-69870061D02*
X95102542Y-69798633D01*
X95102542Y-69798633D02*
X94959685Y-69727204D01*
X94959685Y-69727204D02*
X94888257Y-69655776D01*
X94888257Y-69655776D02*
X94816828Y-69512918D01*
X94959685Y-68441490D02*
X94888257Y-68370062D01*
X94888257Y-68370062D02*
X94816828Y-68227205D01*
X94816828Y-68227205D02*
X94816828Y-67870062D01*
X94816828Y-67870062D02*
X94888257Y-67727205D01*
X94888257Y-67727205D02*
X94959685Y-67655776D01*
X94959685Y-67655776D02*
X95102542Y-67584347D01*
X95102542Y-67584347D02*
X95245400Y-67584347D01*
X95245400Y-67584347D02*
X95459685Y-67655776D01*
X95459685Y-67655776D02*
X96316828Y-68512919D01*
X96316828Y-68512919D02*
X96316828Y-67584347D01*
X94816828Y-67084348D02*
X94816828Y-66155776D01*
X94816828Y-66155776D02*
X95388257Y-66655776D01*
X95388257Y-66655776D02*
X95388257Y-66441491D01*
X95388257Y-66441491D02*
X95459685Y-66298634D01*
X95459685Y-66298634D02*
X95531114Y-66227205D01*
X95531114Y-66227205D02*
X95673971Y-66155776D01*
X95673971Y-66155776D02*
X96031114Y-66155776D01*
X96031114Y-66155776D02*
X96173971Y-66227205D01*
X96173971Y-66227205D02*
X96245400Y-66298634D01*
X96245400Y-66298634D02*
X96316828Y-66441491D01*
X96316828Y-66441491D02*
X96316828Y-66870062D01*
X96316828Y-66870062D02*
X96245400Y-67012919D01*
X96245400Y-67012919D02*
X96173971Y-67084348D01*
X98731828Y-94441489D02*
X97231828Y-94441489D01*
X97231828Y-94441489D02*
X97231828Y-93870060D01*
X97231828Y-93870060D02*
X97303257Y-93727203D01*
X97303257Y-93727203D02*
X97374685Y-93655774D01*
X97374685Y-93655774D02*
X97517542Y-93584346D01*
X97517542Y-93584346D02*
X97731828Y-93584346D01*
X97731828Y-93584346D02*
X97874685Y-93655774D01*
X97874685Y-93655774D02*
X97946114Y-93727203D01*
X97946114Y-93727203D02*
X98017542Y-93870060D01*
X98017542Y-93870060D02*
X98017542Y-94441489D01*
X98731828Y-92298632D02*
X97946114Y-92298632D01*
X97946114Y-92298632D02*
X97803257Y-92370060D01*
X97803257Y-92370060D02*
X97731828Y-92512917D01*
X97731828Y-92512917D02*
X97731828Y-92798632D01*
X97731828Y-92798632D02*
X97803257Y-92941489D01*
X98660400Y-92298632D02*
X98731828Y-92441489D01*
X98731828Y-92441489D02*
X98731828Y-92798632D01*
X98731828Y-92798632D02*
X98660400Y-92941489D01*
X98660400Y-92941489D02*
X98517542Y-93012917D01*
X98517542Y-93012917D02*
X98374685Y-93012917D01*
X98374685Y-93012917D02*
X98231828Y-92941489D01*
X98231828Y-92941489D02*
X98160400Y-92798632D01*
X98160400Y-92798632D02*
X98160400Y-92441489D01*
X98160400Y-92441489D02*
X98088971Y-92298632D01*
X98731828Y-91370060D02*
X98660400Y-91512917D01*
X98660400Y-91512917D02*
X98517542Y-91584346D01*
X98517542Y-91584346D02*
X97231828Y-91584346D01*
X98731828Y-90155775D02*
X97946114Y-90155775D01*
X97946114Y-90155775D02*
X97803257Y-90227203D01*
X97803257Y-90227203D02*
X97731828Y-90370060D01*
X97731828Y-90370060D02*
X97731828Y-90655775D01*
X97731828Y-90655775D02*
X97803257Y-90798632D01*
X98660400Y-90155775D02*
X98731828Y-90298632D01*
X98731828Y-90298632D02*
X98731828Y-90655775D01*
X98731828Y-90655775D02*
X98660400Y-90798632D01*
X98660400Y-90798632D02*
X98517542Y-90870060D01*
X98517542Y-90870060D02*
X98374685Y-90870060D01*
X98374685Y-90870060D02*
X98231828Y-90798632D01*
X98231828Y-90798632D02*
X98160400Y-90655775D01*
X98160400Y-90655775D02*
X98160400Y-90298632D01*
X98160400Y-90298632D02*
X98088971Y-90155775D01*
X97731828Y-89584346D02*
X98731828Y-89227203D01*
X98731828Y-89227203D02*
X97731828Y-88870060D01*
X98731828Y-87655775D02*
X97946114Y-87655775D01*
X97946114Y-87655775D02*
X97803257Y-87727203D01*
X97803257Y-87727203D02*
X97731828Y-87870060D01*
X97731828Y-87870060D02*
X97731828Y-88155775D01*
X97731828Y-88155775D02*
X97803257Y-88298632D01*
X98660400Y-87655775D02*
X98731828Y-87798632D01*
X98731828Y-87798632D02*
X98731828Y-88155775D01*
X98731828Y-88155775D02*
X98660400Y-88298632D01*
X98660400Y-88298632D02*
X98517542Y-88370060D01*
X98517542Y-88370060D02*
X98374685Y-88370060D01*
X98374685Y-88370060D02*
X98231828Y-88298632D01*
X98231828Y-88298632D02*
X98160400Y-88155775D01*
X98160400Y-88155775D02*
X98160400Y-87798632D01*
X98160400Y-87798632D02*
X98088971Y-87655775D01*
X98660400Y-87012917D02*
X98731828Y-86870060D01*
X98731828Y-86870060D02*
X98731828Y-86584346D01*
X98731828Y-86584346D02*
X98660400Y-86441489D01*
X98660400Y-86441489D02*
X98517542Y-86370060D01*
X98517542Y-86370060D02*
X98446114Y-86370060D01*
X98446114Y-86370060D02*
X98303257Y-86441489D01*
X98303257Y-86441489D02*
X98231828Y-86584346D01*
X98231828Y-86584346D02*
X98231828Y-86798632D01*
X98231828Y-86798632D02*
X98160400Y-86941489D01*
X98160400Y-86941489D02*
X98017542Y-87012917D01*
X98017542Y-87012917D02*
X97946114Y-87012917D01*
X97946114Y-87012917D02*
X97803257Y-86941489D01*
X97803257Y-86941489D02*
X97731828Y-86798632D01*
X97731828Y-86798632D02*
X97731828Y-86584346D01*
X97731828Y-86584346D02*
X97803257Y-86441489D01*
X98731828Y-83941489D02*
X97946114Y-83941489D01*
X97946114Y-83941489D02*
X97803257Y-84012917D01*
X97803257Y-84012917D02*
X97731828Y-84155774D01*
X97731828Y-84155774D02*
X97731828Y-84441489D01*
X97731828Y-84441489D02*
X97803257Y-84584346D01*
X98660400Y-83941489D02*
X98731828Y-84084346D01*
X98731828Y-84084346D02*
X98731828Y-84441489D01*
X98731828Y-84441489D02*
X98660400Y-84584346D01*
X98660400Y-84584346D02*
X98517542Y-84655774D01*
X98517542Y-84655774D02*
X98374685Y-84655774D01*
X98374685Y-84655774D02*
X98231828Y-84584346D01*
X98231828Y-84584346D02*
X98160400Y-84441489D01*
X98160400Y-84441489D02*
X98160400Y-84084346D01*
X98160400Y-84084346D02*
X98088971Y-83941489D01*
X97731828Y-83370060D02*
X98731828Y-83012917D01*
X98731828Y-83012917D02*
X97731828Y-82655774D01*
X98660400Y-81512917D02*
X98731828Y-81655774D01*
X98731828Y-81655774D02*
X98731828Y-81941489D01*
X98731828Y-81941489D02*
X98660400Y-82084346D01*
X98660400Y-82084346D02*
X98517542Y-82155774D01*
X98517542Y-82155774D02*
X97946114Y-82155774D01*
X97946114Y-82155774D02*
X97803257Y-82084346D01*
X97803257Y-82084346D02*
X97731828Y-81941489D01*
X97731828Y-81941489D02*
X97731828Y-81655774D01*
X97731828Y-81655774D02*
X97803257Y-81512917D01*
X97803257Y-81512917D02*
X97946114Y-81441489D01*
X97946114Y-81441489D02*
X98088971Y-81441489D01*
X98088971Y-81441489D02*
X98231828Y-82155774D01*
X98660400Y-80155775D02*
X98731828Y-80298632D01*
X98731828Y-80298632D02*
X98731828Y-80584346D01*
X98731828Y-80584346D02*
X98660400Y-80727203D01*
X98660400Y-80727203D02*
X98588971Y-80798632D01*
X98588971Y-80798632D02*
X98446114Y-80870060D01*
X98446114Y-80870060D02*
X98017542Y-80870060D01*
X98017542Y-80870060D02*
X97874685Y-80798632D01*
X97874685Y-80798632D02*
X97803257Y-80727203D01*
X97803257Y-80727203D02*
X97731828Y-80584346D01*
X97731828Y-80584346D02*
X97731828Y-80298632D01*
X97731828Y-80298632D02*
X97803257Y-80155775D01*
X98731828Y-78370061D02*
X97231828Y-78370061D01*
X97946114Y-78370061D02*
X97946114Y-77512918D01*
X98731828Y-77512918D02*
X97231828Y-77512918D01*
X97731828Y-76155775D02*
X98731828Y-76155775D01*
X97731828Y-76798632D02*
X98517542Y-76798632D01*
X98517542Y-76798632D02*
X98660400Y-76727203D01*
X98660400Y-76727203D02*
X98731828Y-76584346D01*
X98731828Y-76584346D02*
X98731828Y-76370060D01*
X98731828Y-76370060D02*
X98660400Y-76227203D01*
X98660400Y-76227203D02*
X98588971Y-76155775D01*
X97731828Y-74798632D02*
X98946114Y-74798632D01*
X98946114Y-74798632D02*
X99088971Y-74870060D01*
X99088971Y-74870060D02*
X99160400Y-74941489D01*
X99160400Y-74941489D02*
X99231828Y-75084346D01*
X99231828Y-75084346D02*
X99231828Y-75298632D01*
X99231828Y-75298632D02*
X99160400Y-75441489D01*
X98660400Y-74798632D02*
X98731828Y-74941489D01*
X98731828Y-74941489D02*
X98731828Y-75227203D01*
X98731828Y-75227203D02*
X98660400Y-75370060D01*
X98660400Y-75370060D02*
X98588971Y-75441489D01*
X98588971Y-75441489D02*
X98446114Y-75512917D01*
X98446114Y-75512917D02*
X98017542Y-75512917D01*
X98017542Y-75512917D02*
X97874685Y-75441489D01*
X97874685Y-75441489D02*
X97803257Y-75370060D01*
X97803257Y-75370060D02*
X97731828Y-75227203D01*
X97731828Y-75227203D02*
X97731828Y-74941489D01*
X97731828Y-74941489D02*
X97803257Y-74798632D01*
X98731828Y-73870060D02*
X98660400Y-74012917D01*
X98660400Y-74012917D02*
X98588971Y-74084346D01*
X98588971Y-74084346D02*
X98446114Y-74155774D01*
X98446114Y-74155774D02*
X98017542Y-74155774D01*
X98017542Y-74155774D02*
X97874685Y-74084346D01*
X97874685Y-74084346D02*
X97803257Y-74012917D01*
X97803257Y-74012917D02*
X97731828Y-73870060D01*
X97731828Y-73870060D02*
X97731828Y-73655774D01*
X97731828Y-73655774D02*
X97803257Y-73512917D01*
X97803257Y-73512917D02*
X97874685Y-73441489D01*
X97874685Y-73441489D02*
X98017542Y-73370060D01*
X98017542Y-73370060D02*
X98446114Y-73370060D01*
X98446114Y-73370060D02*
X98588971Y-73441489D01*
X98588971Y-73441489D02*
X98660400Y-73512917D01*
X98660400Y-73512917D02*
X98731828Y-73655774D01*
X98731828Y-73655774D02*
X98731828Y-73870060D01*
X98588971Y-71584346D02*
X98660400Y-71512917D01*
X98660400Y-71512917D02*
X98731828Y-71584346D01*
X98731828Y-71584346D02*
X98660400Y-71655774D01*
X98660400Y-71655774D02*
X98588971Y-71584346D01*
X98588971Y-71584346D02*
X98731828Y-71584346D01*
X97803257Y-71584346D02*
X97874685Y-71512917D01*
X97874685Y-71512917D02*
X97946114Y-71584346D01*
X97946114Y-71584346D02*
X97874685Y-71655774D01*
X97874685Y-71655774D02*
X97803257Y-71584346D01*
X97803257Y-71584346D02*
X97946114Y-71584346D01*
X99303257Y-71012917D02*
X99231828Y-70941488D01*
X99231828Y-70941488D02*
X99017542Y-70798631D01*
X99017542Y-70798631D02*
X98874685Y-70727203D01*
X98874685Y-70727203D02*
X98660400Y-70655774D01*
X98660400Y-70655774D02*
X98303257Y-70584345D01*
X98303257Y-70584345D02*
X98017542Y-70584345D01*
X98017542Y-70584345D02*
X97660400Y-70655774D01*
X97660400Y-70655774D02*
X97446114Y-70727203D01*
X97446114Y-70727203D02*
X97303257Y-70798631D01*
X97303257Y-70798631D02*
X97088971Y-70941488D01*
X97088971Y-70941488D02*
X97017542Y-71012917D01*
X101146828Y-94441489D02*
X99646828Y-94441489D01*
X100361114Y-94441489D02*
X100361114Y-93584346D01*
X101146828Y-93584346D02*
X99646828Y-93584346D01*
X100146828Y-92227203D02*
X101146828Y-92227203D01*
X100146828Y-92870060D02*
X100932542Y-92870060D01*
X100932542Y-92870060D02*
X101075400Y-92798631D01*
X101075400Y-92798631D02*
X101146828Y-92655774D01*
X101146828Y-92655774D02*
X101146828Y-92441488D01*
X101146828Y-92441488D02*
X101075400Y-92298631D01*
X101075400Y-92298631D02*
X101003971Y-92227203D01*
X101146828Y-91512917D02*
X100146828Y-91512917D01*
X100289685Y-91512917D02*
X100218257Y-91441488D01*
X100218257Y-91441488D02*
X100146828Y-91298631D01*
X100146828Y-91298631D02*
X100146828Y-91084345D01*
X100146828Y-91084345D02*
X100218257Y-90941488D01*
X100218257Y-90941488D02*
X100361114Y-90870060D01*
X100361114Y-90870060D02*
X101146828Y-90870060D01*
X100361114Y-90870060D02*
X100218257Y-90798631D01*
X100218257Y-90798631D02*
X100146828Y-90655774D01*
X100146828Y-90655774D02*
X100146828Y-90441488D01*
X100146828Y-90441488D02*
X100218257Y-90298631D01*
X100218257Y-90298631D02*
X100361114Y-90227202D01*
X100361114Y-90227202D02*
X101146828Y-90227202D01*
X101146828Y-88870060D02*
X100361114Y-88870060D01*
X100361114Y-88870060D02*
X100218257Y-88941488D01*
X100218257Y-88941488D02*
X100146828Y-89084345D01*
X100146828Y-89084345D02*
X100146828Y-89370060D01*
X100146828Y-89370060D02*
X100218257Y-89512917D01*
X101075400Y-88870060D02*
X101146828Y-89012917D01*
X101146828Y-89012917D02*
X101146828Y-89370060D01*
X101146828Y-89370060D02*
X101075400Y-89512917D01*
X101075400Y-89512917D02*
X100932542Y-89584345D01*
X100932542Y-89584345D02*
X100789685Y-89584345D01*
X100789685Y-89584345D02*
X100646828Y-89512917D01*
X100646828Y-89512917D02*
X100575400Y-89370060D01*
X100575400Y-89370060D02*
X100575400Y-89012917D01*
X100575400Y-89012917D02*
X100503971Y-88870060D01*
X100146828Y-88155774D02*
X101146828Y-88155774D01*
X100289685Y-88155774D02*
X100218257Y-88084345D01*
X100218257Y-88084345D02*
X100146828Y-87941488D01*
X100146828Y-87941488D02*
X100146828Y-87727202D01*
X100146828Y-87727202D02*
X100218257Y-87584345D01*
X100218257Y-87584345D02*
X100361114Y-87512917D01*
X100361114Y-87512917D02*
X101146828Y-87512917D01*
X101146828Y-86084345D02*
X101146828Y-86798631D01*
X101146828Y-86798631D02*
X99646828Y-86798631D01*
X101146828Y-84941488D02*
X100361114Y-84941488D01*
X100361114Y-84941488D02*
X100218257Y-85012916D01*
X100218257Y-85012916D02*
X100146828Y-85155773D01*
X100146828Y-85155773D02*
X100146828Y-85441488D01*
X100146828Y-85441488D02*
X100218257Y-85584345D01*
X101075400Y-84941488D02*
X101146828Y-85084345D01*
X101146828Y-85084345D02*
X101146828Y-85441488D01*
X101146828Y-85441488D02*
X101075400Y-85584345D01*
X101075400Y-85584345D02*
X100932542Y-85655773D01*
X100932542Y-85655773D02*
X100789685Y-85655773D01*
X100789685Y-85655773D02*
X100646828Y-85584345D01*
X100646828Y-85584345D02*
X100575400Y-85441488D01*
X100575400Y-85441488D02*
X100575400Y-85084345D01*
X100575400Y-85084345D02*
X100503971Y-84941488D01*
X101146828Y-84227202D02*
X99646828Y-84227202D01*
X100218257Y-84227202D02*
X100146828Y-84084345D01*
X100146828Y-84084345D02*
X100146828Y-83798630D01*
X100146828Y-83798630D02*
X100218257Y-83655773D01*
X100218257Y-83655773D02*
X100289685Y-83584345D01*
X100289685Y-83584345D02*
X100432542Y-83512916D01*
X100432542Y-83512916D02*
X100861114Y-83512916D01*
X100861114Y-83512916D02*
X101003971Y-83584345D01*
X101003971Y-83584345D02*
X101075400Y-83655773D01*
X101075400Y-83655773D02*
X101146828Y-83798630D01*
X101146828Y-83798630D02*
X101146828Y-84084345D01*
X101146828Y-84084345D02*
X101075400Y-84227202D01*
X101075400Y-81798630D02*
X101146828Y-81584345D01*
X101146828Y-81584345D02*
X101146828Y-81227202D01*
X101146828Y-81227202D02*
X101075400Y-81084345D01*
X101075400Y-81084345D02*
X101003971Y-81012916D01*
X101003971Y-81012916D02*
X100861114Y-80941487D01*
X100861114Y-80941487D02*
X100718257Y-80941487D01*
X100718257Y-80941487D02*
X100575400Y-81012916D01*
X100575400Y-81012916D02*
X100503971Y-81084345D01*
X100503971Y-81084345D02*
X100432542Y-81227202D01*
X100432542Y-81227202D02*
X100361114Y-81512916D01*
X100361114Y-81512916D02*
X100289685Y-81655773D01*
X100289685Y-81655773D02*
X100218257Y-81727202D01*
X100218257Y-81727202D02*
X100075400Y-81798630D01*
X100075400Y-81798630D02*
X99932542Y-81798630D01*
X99932542Y-81798630D02*
X99789685Y-81727202D01*
X99789685Y-81727202D02*
X99718257Y-81655773D01*
X99718257Y-81655773D02*
X99646828Y-81512916D01*
X99646828Y-81512916D02*
X99646828Y-81155773D01*
X99646828Y-81155773D02*
X99718257Y-80941487D01*
X101146828Y-80298631D02*
X99646828Y-80298631D01*
X99646828Y-80298631D02*
X99646828Y-79727202D01*
X99646828Y-79727202D02*
X99718257Y-79584345D01*
X99718257Y-79584345D02*
X99789685Y-79512916D01*
X99789685Y-79512916D02*
X99932542Y-79441488D01*
X99932542Y-79441488D02*
X100146828Y-79441488D01*
X100146828Y-79441488D02*
X100289685Y-79512916D01*
X100289685Y-79512916D02*
X100361114Y-79584345D01*
X100361114Y-79584345D02*
X100432542Y-79727202D01*
X100432542Y-79727202D02*
X100432542Y-80298631D01*
D10*
X112386619Y-43539431D02*
X111386619Y-43539431D01*
X111386619Y-43539431D02*
X111386619Y-43301336D01*
X111386619Y-43301336D02*
X111434238Y-43158479D01*
X111434238Y-43158479D02*
X111529476Y-43063241D01*
X111529476Y-43063241D02*
X111624714Y-43015622D01*
X111624714Y-43015622D02*
X111815190Y-42968003D01*
X111815190Y-42968003D02*
X111958047Y-42968003D01*
X111958047Y-42968003D02*
X112148523Y-43015622D01*
X112148523Y-43015622D02*
X112243761Y-43063241D01*
X112243761Y-43063241D02*
X112339000Y-43158479D01*
X112339000Y-43158479D02*
X112386619Y-43301336D01*
X112386619Y-43301336D02*
X112386619Y-43539431D01*
X111386619Y-42682288D02*
X111386619Y-42110860D01*
X112386619Y-42396574D02*
X111386619Y-42396574D01*
X112386619Y-41206098D02*
X111910428Y-41539431D01*
X112386619Y-41777526D02*
X111386619Y-41777526D01*
X111386619Y-41777526D02*
X111386619Y-41396574D01*
X111386619Y-41396574D02*
X111434238Y-41301336D01*
X111434238Y-41301336D02*
X111481857Y-41253717D01*
X111481857Y-41253717D02*
X111577095Y-41206098D01*
X111577095Y-41206098D02*
X111719952Y-41206098D01*
X111719952Y-41206098D02*
X111815190Y-41253717D01*
X111815190Y-41253717D02*
X111862809Y-41301336D01*
X111862809Y-41301336D02*
X111910428Y-41396574D01*
X111910428Y-41396574D02*
X111910428Y-41777526D01*
X114180619Y-43682288D02*
X114180619Y-43110860D01*
X115180619Y-43396574D02*
X114180619Y-43396574D01*
X114180619Y-42872764D02*
X115180619Y-42206098D01*
X114180619Y-42206098D02*
X115180619Y-42872764D01*
X114180619Y-41634669D02*
X114180619Y-41539431D01*
X114180619Y-41539431D02*
X114228238Y-41444193D01*
X114228238Y-41444193D02*
X114275857Y-41396574D01*
X114275857Y-41396574D02*
X114371095Y-41348955D01*
X114371095Y-41348955D02*
X114561571Y-41301336D01*
X114561571Y-41301336D02*
X114799666Y-41301336D01*
X114799666Y-41301336D02*
X114990142Y-41348955D01*
X114990142Y-41348955D02*
X115085380Y-41396574D01*
X115085380Y-41396574D02*
X115133000Y-41444193D01*
X115133000Y-41444193D02*
X115180619Y-41539431D01*
X115180619Y-41539431D02*
X115180619Y-41634669D01*
X115180619Y-41634669D02*
X115133000Y-41729907D01*
X115133000Y-41729907D02*
X115085380Y-41777526D01*
X115085380Y-41777526D02*
X114990142Y-41825145D01*
X114990142Y-41825145D02*
X114799666Y-41872764D01*
X114799666Y-41872764D02*
X114561571Y-41872764D01*
X114561571Y-41872764D02*
X114371095Y-41825145D01*
X114371095Y-41825145D02*
X114275857Y-41777526D01*
X114275857Y-41777526D02*
X114228238Y-41729907D01*
X114228238Y-41729907D02*
X114180619Y-41634669D01*
X117974619Y-42968003D02*
X117498428Y-43301336D01*
X117974619Y-43539431D02*
X116974619Y-43539431D01*
X116974619Y-43539431D02*
X116974619Y-43158479D01*
X116974619Y-43158479D02*
X117022238Y-43063241D01*
X117022238Y-43063241D02*
X117069857Y-43015622D01*
X117069857Y-43015622D02*
X117165095Y-42968003D01*
X117165095Y-42968003D02*
X117307952Y-42968003D01*
X117307952Y-42968003D02*
X117403190Y-43015622D01*
X117403190Y-43015622D02*
X117450809Y-43063241D01*
X117450809Y-43063241D02*
X117498428Y-43158479D01*
X117498428Y-43158479D02*
X117498428Y-43539431D01*
X116974619Y-42634669D02*
X117974619Y-41968003D01*
X116974619Y-41968003D02*
X117974619Y-42634669D01*
X117974619Y-41063241D02*
X117974619Y-41634669D01*
X117974619Y-41348955D02*
X116974619Y-41348955D01*
X116974619Y-41348955D02*
X117117476Y-41444193D01*
X117117476Y-41444193D02*
X117212714Y-41539431D01*
X117212714Y-41539431D02*
X117260333Y-41634669D01*
X119768619Y-43682288D02*
X120768619Y-43348955D01*
X120768619Y-43348955D02*
X119768619Y-43015622D01*
X120673380Y-42110860D02*
X120721000Y-42158479D01*
X120721000Y-42158479D02*
X120768619Y-42301336D01*
X120768619Y-42301336D02*
X120768619Y-42396574D01*
X120768619Y-42396574D02*
X120721000Y-42539431D01*
X120721000Y-42539431D02*
X120625761Y-42634669D01*
X120625761Y-42634669D02*
X120530523Y-42682288D01*
X120530523Y-42682288D02*
X120340047Y-42729907D01*
X120340047Y-42729907D02*
X120197190Y-42729907D01*
X120197190Y-42729907D02*
X120006714Y-42682288D01*
X120006714Y-42682288D02*
X119911476Y-42634669D01*
X119911476Y-42634669D02*
X119816238Y-42539431D01*
X119816238Y-42539431D02*
X119768619Y-42396574D01*
X119768619Y-42396574D02*
X119768619Y-42301336D01*
X119768619Y-42301336D02*
X119816238Y-42158479D01*
X119816238Y-42158479D02*
X119863857Y-42110860D01*
X120673380Y-41110860D02*
X120721000Y-41158479D01*
X120721000Y-41158479D02*
X120768619Y-41301336D01*
X120768619Y-41301336D02*
X120768619Y-41396574D01*
X120768619Y-41396574D02*
X120721000Y-41539431D01*
X120721000Y-41539431D02*
X120625761Y-41634669D01*
X120625761Y-41634669D02*
X120530523Y-41682288D01*
X120530523Y-41682288D02*
X120340047Y-41729907D01*
X120340047Y-41729907D02*
X120197190Y-41729907D01*
X120197190Y-41729907D02*
X120006714Y-41682288D01*
X120006714Y-41682288D02*
X119911476Y-41634669D01*
X119911476Y-41634669D02*
X119816238Y-41539431D01*
X119816238Y-41539431D02*
X119768619Y-41396574D01*
X119768619Y-41396574D02*
X119768619Y-41301336D01*
X119768619Y-41301336D02*
X119816238Y-41158479D01*
X119816238Y-41158479D02*
X119863857Y-41110860D01*
D12*
%TO.C,U3*%
X110253095Y-55479819D02*
X110253095Y-56289342D01*
X110253095Y-56289342D02*
X110300714Y-56384580D01*
X110300714Y-56384580D02*
X110348333Y-56432200D01*
X110348333Y-56432200D02*
X110443571Y-56479819D01*
X110443571Y-56479819D02*
X110634047Y-56479819D01*
X110634047Y-56479819D02*
X110729285Y-56432200D01*
X110729285Y-56432200D02*
X110776904Y-56384580D01*
X110776904Y-56384580D02*
X110824523Y-56289342D01*
X110824523Y-56289342D02*
X110824523Y-55479819D01*
X111205476Y-55479819D02*
X111824523Y-55479819D01*
X111824523Y-55479819D02*
X111491190Y-55860771D01*
X111491190Y-55860771D02*
X111634047Y-55860771D01*
X111634047Y-55860771D02*
X111729285Y-55908390D01*
X111729285Y-55908390D02*
X111776904Y-55956009D01*
X111776904Y-55956009D02*
X111824523Y-56051247D01*
X111824523Y-56051247D02*
X111824523Y-56289342D01*
X111824523Y-56289342D02*
X111776904Y-56384580D01*
X111776904Y-56384580D02*
X111729285Y-56432200D01*
X111729285Y-56432200D02*
X111634047Y-56479819D01*
X111634047Y-56479819D02*
X111348333Y-56479819D01*
X111348333Y-56479819D02*
X111253095Y-56432200D01*
X111253095Y-56432200D02*
X111205476Y-56384580D01*
X116247104Y-81072760D02*
X116247104Y-80596570D01*
X116532819Y-81167998D02*
X115532819Y-80834665D01*
X115532819Y-80834665D02*
X116532819Y-80501332D01*
X116532819Y-79596570D02*
X116056628Y-79929903D01*
X116532819Y-80167998D02*
X115532819Y-80167998D01*
X115532819Y-80167998D02*
X115532819Y-79787046D01*
X115532819Y-79787046D02*
X115580438Y-79691808D01*
X115580438Y-79691808D02*
X115628057Y-79644189D01*
X115628057Y-79644189D02*
X115723295Y-79596570D01*
X115723295Y-79596570D02*
X115866152Y-79596570D01*
X115866152Y-79596570D02*
X115961390Y-79644189D01*
X115961390Y-79644189D02*
X116009009Y-79691808D01*
X116009009Y-79691808D02*
X116056628Y-79787046D01*
X116056628Y-79787046D02*
X116056628Y-80167998D01*
X116532819Y-79167998D02*
X115532819Y-79167998D01*
X115532819Y-79167998D02*
X115532819Y-78929903D01*
X115532819Y-78929903D02*
X115580438Y-78787046D01*
X115580438Y-78787046D02*
X115675676Y-78691808D01*
X115675676Y-78691808D02*
X115770914Y-78644189D01*
X115770914Y-78644189D02*
X115961390Y-78596570D01*
X115961390Y-78596570D02*
X116104247Y-78596570D01*
X116104247Y-78596570D02*
X116294723Y-78644189D01*
X116294723Y-78644189D02*
X116389961Y-78691808D01*
X116389961Y-78691808D02*
X116485200Y-78787046D01*
X116485200Y-78787046D02*
X116532819Y-78929903D01*
X116532819Y-78929903D02*
X116532819Y-79167998D01*
X115532819Y-78167998D02*
X116342342Y-78167998D01*
X116342342Y-78167998D02*
X116437580Y-78120379D01*
X116437580Y-78120379D02*
X116485200Y-78072760D01*
X116485200Y-78072760D02*
X116532819Y-77977522D01*
X116532819Y-77977522D02*
X116532819Y-77787046D01*
X116532819Y-77787046D02*
X116485200Y-77691808D01*
X116485200Y-77691808D02*
X116437580Y-77644189D01*
X116437580Y-77644189D02*
X116342342Y-77596570D01*
X116342342Y-77596570D02*
X115532819Y-77596570D01*
X116532819Y-77120379D02*
X115532819Y-77120379D01*
X116532819Y-76644189D02*
X115532819Y-76644189D01*
X115532819Y-76644189D02*
X116532819Y-76072761D01*
X116532819Y-76072761D02*
X115532819Y-76072761D01*
X115532819Y-75406094D02*
X115532819Y-75215618D01*
X115532819Y-75215618D02*
X115580438Y-75120380D01*
X115580438Y-75120380D02*
X115675676Y-75025142D01*
X115675676Y-75025142D02*
X115866152Y-74977523D01*
X115866152Y-74977523D02*
X116199485Y-74977523D01*
X116199485Y-74977523D02*
X116389961Y-75025142D01*
X116389961Y-75025142D02*
X116485200Y-75120380D01*
X116485200Y-75120380D02*
X116532819Y-75215618D01*
X116532819Y-75215618D02*
X116532819Y-75406094D01*
X116532819Y-75406094D02*
X116485200Y-75501332D01*
X116485200Y-75501332D02*
X116389961Y-75596570D01*
X116389961Y-75596570D02*
X116199485Y-75644189D01*
X116199485Y-75644189D02*
X115866152Y-75644189D01*
X115866152Y-75644189D02*
X115675676Y-75596570D01*
X115675676Y-75596570D02*
X115580438Y-75501332D01*
X115580438Y-75501332D02*
X115532819Y-75406094D01*
X116628057Y-74787047D02*
X116628057Y-74025142D01*
X116532819Y-73787046D02*
X115532819Y-73787046D01*
X115532819Y-73787046D02*
X115532819Y-73406094D01*
X115532819Y-73406094D02*
X115580438Y-73310856D01*
X115580438Y-73310856D02*
X115628057Y-73263237D01*
X115628057Y-73263237D02*
X115723295Y-73215618D01*
X115723295Y-73215618D02*
X115866152Y-73215618D01*
X115866152Y-73215618D02*
X115961390Y-73263237D01*
X115961390Y-73263237D02*
X116009009Y-73310856D01*
X116009009Y-73310856D02*
X116056628Y-73406094D01*
X116056628Y-73406094D02*
X116056628Y-73787046D01*
X116532819Y-72215618D02*
X116056628Y-72548951D01*
X116532819Y-72787046D02*
X115532819Y-72787046D01*
X115532819Y-72787046D02*
X115532819Y-72406094D01*
X115532819Y-72406094D02*
X115580438Y-72310856D01*
X115580438Y-72310856D02*
X115628057Y-72263237D01*
X115628057Y-72263237D02*
X115723295Y-72215618D01*
X115723295Y-72215618D02*
X115866152Y-72215618D01*
X115866152Y-72215618D02*
X115961390Y-72263237D01*
X115961390Y-72263237D02*
X116009009Y-72310856D01*
X116009009Y-72310856D02*
X116056628Y-72406094D01*
X116056628Y-72406094D02*
X116056628Y-72787046D01*
X115532819Y-71596570D02*
X115532819Y-71406094D01*
X115532819Y-71406094D02*
X115580438Y-71310856D01*
X115580438Y-71310856D02*
X115675676Y-71215618D01*
X115675676Y-71215618D02*
X115866152Y-71167999D01*
X115866152Y-71167999D02*
X116199485Y-71167999D01*
X116199485Y-71167999D02*
X116389961Y-71215618D01*
X116389961Y-71215618D02*
X116485200Y-71310856D01*
X116485200Y-71310856D02*
X116532819Y-71406094D01*
X116532819Y-71406094D02*
X116532819Y-71596570D01*
X116532819Y-71596570D02*
X116485200Y-71691808D01*
X116485200Y-71691808D02*
X116389961Y-71787046D01*
X116389961Y-71787046D02*
X116199485Y-71834665D01*
X116199485Y-71834665D02*
X115866152Y-71834665D01*
X115866152Y-71834665D02*
X115675676Y-71787046D01*
X115675676Y-71787046D02*
X115580438Y-71691808D01*
X115580438Y-71691808D02*
X115532819Y-71596570D01*
X116628057Y-70977523D02*
X116628057Y-70215618D01*
X116532819Y-69977522D02*
X115532819Y-69977522D01*
X115532819Y-69977522D02*
X116247104Y-69644189D01*
X116247104Y-69644189D02*
X115532819Y-69310856D01*
X115532819Y-69310856D02*
X116532819Y-69310856D01*
X116532819Y-68834665D02*
X115532819Y-68834665D01*
X116532819Y-68358475D02*
X115532819Y-68358475D01*
X115532819Y-68358475D02*
X116532819Y-67787047D01*
X116532819Y-67787047D02*
X115532819Y-67787047D01*
X116532819Y-67310856D02*
X115532819Y-67310856D01*
%TO.C,J4*%
X101266666Y-72396819D02*
X101266666Y-73111104D01*
X101266666Y-73111104D02*
X101219047Y-73253961D01*
X101219047Y-73253961D02*
X101123809Y-73349200D01*
X101123809Y-73349200D02*
X100980952Y-73396819D01*
X100980952Y-73396819D02*
X100885714Y-73396819D01*
X102171428Y-72730152D02*
X102171428Y-73396819D01*
X101933333Y-72349200D02*
X101695238Y-73063485D01*
X101695238Y-73063485D02*
X102314285Y-73063485D01*
X99742856Y-65209009D02*
X99885713Y-65256628D01*
X99885713Y-65256628D02*
X99933332Y-65304247D01*
X99933332Y-65304247D02*
X99980951Y-65399485D01*
X99980951Y-65399485D02*
X99980951Y-65542342D01*
X99980951Y-65542342D02*
X99933332Y-65637580D01*
X99933332Y-65637580D02*
X99885713Y-65685200D01*
X99885713Y-65685200D02*
X99790475Y-65732819D01*
X99790475Y-65732819D02*
X99409523Y-65732819D01*
X99409523Y-65732819D02*
X99409523Y-64732819D01*
X99409523Y-64732819D02*
X99742856Y-64732819D01*
X99742856Y-64732819D02*
X99838094Y-64780438D01*
X99838094Y-64780438D02*
X99885713Y-64828057D01*
X99885713Y-64828057D02*
X99933332Y-64923295D01*
X99933332Y-64923295D02*
X99933332Y-65018533D01*
X99933332Y-65018533D02*
X99885713Y-65113771D01*
X99885713Y-65113771D02*
X99838094Y-65161390D01*
X99838094Y-65161390D02*
X99742856Y-65209009D01*
X99742856Y-65209009D02*
X99409523Y-65209009D01*
X100838094Y-65066152D02*
X100838094Y-65732819D01*
X100409523Y-65066152D02*
X100409523Y-65589961D01*
X100409523Y-65589961D02*
X100457142Y-65685200D01*
X100457142Y-65685200D02*
X100552380Y-65732819D01*
X100552380Y-65732819D02*
X100695237Y-65732819D01*
X100695237Y-65732819D02*
X100790475Y-65685200D01*
X100790475Y-65685200D02*
X100838094Y-65637580D01*
X101171428Y-65066152D02*
X101552380Y-65066152D01*
X101314285Y-64732819D02*
X101314285Y-65589961D01*
X101314285Y-65589961D02*
X101361904Y-65685200D01*
X101361904Y-65685200D02*
X101457142Y-65732819D01*
X101457142Y-65732819D02*
X101552380Y-65732819D01*
X101742857Y-65066152D02*
X102123809Y-65066152D01*
X101885714Y-64732819D02*
X101885714Y-65589961D01*
X101885714Y-65589961D02*
X101933333Y-65685200D01*
X101933333Y-65685200D02*
X102028571Y-65732819D01*
X102028571Y-65732819D02*
X102123809Y-65732819D01*
X102600000Y-65732819D02*
X102504762Y-65685200D01*
X102504762Y-65685200D02*
X102457143Y-65637580D01*
X102457143Y-65637580D02*
X102409524Y-65542342D01*
X102409524Y-65542342D02*
X102409524Y-65256628D01*
X102409524Y-65256628D02*
X102457143Y-65161390D01*
X102457143Y-65161390D02*
X102504762Y-65113771D01*
X102504762Y-65113771D02*
X102600000Y-65066152D01*
X102600000Y-65066152D02*
X102742857Y-65066152D01*
X102742857Y-65066152D02*
X102838095Y-65113771D01*
X102838095Y-65113771D02*
X102885714Y-65161390D01*
X102885714Y-65161390D02*
X102933333Y-65256628D01*
X102933333Y-65256628D02*
X102933333Y-65542342D01*
X102933333Y-65542342D02*
X102885714Y-65637580D01*
X102885714Y-65637580D02*
X102838095Y-65685200D01*
X102838095Y-65685200D02*
X102742857Y-65732819D01*
X102742857Y-65732819D02*
X102600000Y-65732819D01*
X103361905Y-65066152D02*
X103361905Y-65732819D01*
X103361905Y-65161390D02*
X103409524Y-65113771D01*
X103409524Y-65113771D02*
X103504762Y-65066152D01*
X103504762Y-65066152D02*
X103647619Y-65066152D01*
X103647619Y-65066152D02*
X103742857Y-65113771D01*
X103742857Y-65113771D02*
X103790476Y-65209009D01*
X103790476Y-65209009D02*
X103790476Y-65732819D01*
%TO.C,J3*%
X136826666Y-62744819D02*
X136826666Y-63459104D01*
X136826666Y-63459104D02*
X136779047Y-63601961D01*
X136779047Y-63601961D02*
X136683809Y-63697200D01*
X136683809Y-63697200D02*
X136540952Y-63744819D01*
X136540952Y-63744819D02*
X136445714Y-63744819D01*
X137207619Y-62744819D02*
X137826666Y-62744819D01*
X137826666Y-62744819D02*
X137493333Y-63125771D01*
X137493333Y-63125771D02*
X137636190Y-63125771D01*
X137636190Y-63125771D02*
X137731428Y-63173390D01*
X137731428Y-63173390D02*
X137779047Y-63221009D01*
X137779047Y-63221009D02*
X137826666Y-63316247D01*
X137826666Y-63316247D02*
X137826666Y-63554342D01*
X137826666Y-63554342D02*
X137779047Y-63649580D01*
X137779047Y-63649580D02*
X137731428Y-63697200D01*
X137731428Y-63697200D02*
X137636190Y-63744819D01*
X137636190Y-63744819D02*
X137350476Y-63744819D01*
X137350476Y-63744819D02*
X137255238Y-63697200D01*
X137255238Y-63697200D02*
X137207619Y-63649580D01*
X131691808Y-55064819D02*
X131691808Y-54064819D01*
X131691808Y-54064819D02*
X132025141Y-54779104D01*
X132025141Y-54779104D02*
X132358474Y-54064819D01*
X132358474Y-54064819D02*
X132358474Y-55064819D01*
X132977522Y-55064819D02*
X132882284Y-55017200D01*
X132882284Y-55017200D02*
X132834665Y-54969580D01*
X132834665Y-54969580D02*
X132787046Y-54874342D01*
X132787046Y-54874342D02*
X132787046Y-54588628D01*
X132787046Y-54588628D02*
X132834665Y-54493390D01*
X132834665Y-54493390D02*
X132882284Y-54445771D01*
X132882284Y-54445771D02*
X132977522Y-54398152D01*
X132977522Y-54398152D02*
X133120379Y-54398152D01*
X133120379Y-54398152D02*
X133215617Y-54445771D01*
X133215617Y-54445771D02*
X133263236Y-54493390D01*
X133263236Y-54493390D02*
X133310855Y-54588628D01*
X133310855Y-54588628D02*
X133310855Y-54874342D01*
X133310855Y-54874342D02*
X133263236Y-54969580D01*
X133263236Y-54969580D02*
X133215617Y-55017200D01*
X133215617Y-55017200D02*
X133120379Y-55064819D01*
X133120379Y-55064819D02*
X132977522Y-55064819D01*
X133596570Y-54398152D02*
X133977522Y-54398152D01*
X133739427Y-54064819D02*
X133739427Y-54921961D01*
X133739427Y-54921961D02*
X133787046Y-55017200D01*
X133787046Y-55017200D02*
X133882284Y-55064819D01*
X133882284Y-55064819D02*
X133977522Y-55064819D01*
X134453713Y-55064819D02*
X134358475Y-55017200D01*
X134358475Y-55017200D02*
X134310856Y-54969580D01*
X134310856Y-54969580D02*
X134263237Y-54874342D01*
X134263237Y-54874342D02*
X134263237Y-54588628D01*
X134263237Y-54588628D02*
X134310856Y-54493390D01*
X134310856Y-54493390D02*
X134358475Y-54445771D01*
X134358475Y-54445771D02*
X134453713Y-54398152D01*
X134453713Y-54398152D02*
X134596570Y-54398152D01*
X134596570Y-54398152D02*
X134691808Y-54445771D01*
X134691808Y-54445771D02*
X134739427Y-54493390D01*
X134739427Y-54493390D02*
X134787046Y-54588628D01*
X134787046Y-54588628D02*
X134787046Y-54874342D01*
X134787046Y-54874342D02*
X134739427Y-54969580D01*
X134739427Y-54969580D02*
X134691808Y-55017200D01*
X134691808Y-55017200D02*
X134596570Y-55064819D01*
X134596570Y-55064819D02*
X134453713Y-55064819D01*
X135215618Y-55064819D02*
X135215618Y-54398152D01*
X135215618Y-54588628D02*
X135263237Y-54493390D01*
X135263237Y-54493390D02*
X135310856Y-54445771D01*
X135310856Y-54445771D02*
X135406094Y-54398152D01*
X135406094Y-54398152D02*
X135501332Y-54398152D01*
X137167999Y-54969580D02*
X137120380Y-55017200D01*
X137120380Y-55017200D02*
X136977523Y-55064819D01*
X136977523Y-55064819D02*
X136882285Y-55064819D01*
X136882285Y-55064819D02*
X136739428Y-55017200D01*
X136739428Y-55017200D02*
X136644190Y-54921961D01*
X136644190Y-54921961D02*
X136596571Y-54826723D01*
X136596571Y-54826723D02*
X136548952Y-54636247D01*
X136548952Y-54636247D02*
X136548952Y-54493390D01*
X136548952Y-54493390D02*
X136596571Y-54302914D01*
X136596571Y-54302914D02*
X136644190Y-54207676D01*
X136644190Y-54207676D02*
X136739428Y-54112438D01*
X136739428Y-54112438D02*
X136882285Y-54064819D01*
X136882285Y-54064819D02*
X136977523Y-54064819D01*
X136977523Y-54064819D02*
X137120380Y-54112438D01*
X137120380Y-54112438D02*
X137167999Y-54160057D01*
X137739428Y-55064819D02*
X137644190Y-55017200D01*
X137644190Y-55017200D02*
X137596571Y-54969580D01*
X137596571Y-54969580D02*
X137548952Y-54874342D01*
X137548952Y-54874342D02*
X137548952Y-54588628D01*
X137548952Y-54588628D02*
X137596571Y-54493390D01*
X137596571Y-54493390D02*
X137644190Y-54445771D01*
X137644190Y-54445771D02*
X137739428Y-54398152D01*
X137739428Y-54398152D02*
X137882285Y-54398152D01*
X137882285Y-54398152D02*
X137977523Y-54445771D01*
X137977523Y-54445771D02*
X138025142Y-54493390D01*
X138025142Y-54493390D02*
X138072761Y-54588628D01*
X138072761Y-54588628D02*
X138072761Y-54874342D01*
X138072761Y-54874342D02*
X138025142Y-54969580D01*
X138025142Y-54969580D02*
X137977523Y-55017200D01*
X137977523Y-55017200D02*
X137882285Y-55064819D01*
X137882285Y-55064819D02*
X137739428Y-55064819D01*
X138501333Y-54398152D02*
X138501333Y-55064819D01*
X138501333Y-54493390D02*
X138548952Y-54445771D01*
X138548952Y-54445771D02*
X138644190Y-54398152D01*
X138644190Y-54398152D02*
X138787047Y-54398152D01*
X138787047Y-54398152D02*
X138882285Y-54445771D01*
X138882285Y-54445771D02*
X138929904Y-54541009D01*
X138929904Y-54541009D02*
X138929904Y-55064819D01*
X139406095Y-54398152D02*
X139406095Y-55064819D01*
X139406095Y-54493390D02*
X139453714Y-54445771D01*
X139453714Y-54445771D02*
X139548952Y-54398152D01*
X139548952Y-54398152D02*
X139691809Y-54398152D01*
X139691809Y-54398152D02*
X139787047Y-54445771D01*
X139787047Y-54445771D02*
X139834666Y-54541009D01*
X139834666Y-54541009D02*
X139834666Y-55064819D01*
X140691809Y-55017200D02*
X140596571Y-55064819D01*
X140596571Y-55064819D02*
X140406095Y-55064819D01*
X140406095Y-55064819D02*
X140310857Y-55017200D01*
X140310857Y-55017200D02*
X140263238Y-54921961D01*
X140263238Y-54921961D02*
X140263238Y-54541009D01*
X140263238Y-54541009D02*
X140310857Y-54445771D01*
X140310857Y-54445771D02*
X140406095Y-54398152D01*
X140406095Y-54398152D02*
X140596571Y-54398152D01*
X140596571Y-54398152D02*
X140691809Y-54445771D01*
X140691809Y-54445771D02*
X140739428Y-54541009D01*
X140739428Y-54541009D02*
X140739428Y-54636247D01*
X140739428Y-54636247D02*
X140263238Y-54731485D01*
X141596571Y-55017200D02*
X141501333Y-55064819D01*
X141501333Y-55064819D02*
X141310857Y-55064819D01*
X141310857Y-55064819D02*
X141215619Y-55017200D01*
X141215619Y-55017200D02*
X141168000Y-54969580D01*
X141168000Y-54969580D02*
X141120381Y-54874342D01*
X141120381Y-54874342D02*
X141120381Y-54588628D01*
X141120381Y-54588628D02*
X141168000Y-54493390D01*
X141168000Y-54493390D02*
X141215619Y-54445771D01*
X141215619Y-54445771D02*
X141310857Y-54398152D01*
X141310857Y-54398152D02*
X141501333Y-54398152D01*
X141501333Y-54398152D02*
X141596571Y-54445771D01*
X141882286Y-54398152D02*
X142263238Y-54398152D01*
X142025143Y-54064819D02*
X142025143Y-54921961D01*
X142025143Y-54921961D02*
X142072762Y-55017200D01*
X142072762Y-55017200D02*
X142168000Y-55064819D01*
X142168000Y-55064819D02*
X142263238Y-55064819D01*
X142739429Y-55064819D02*
X142644191Y-55017200D01*
X142644191Y-55017200D02*
X142596572Y-54969580D01*
X142596572Y-54969580D02*
X142548953Y-54874342D01*
X142548953Y-54874342D02*
X142548953Y-54588628D01*
X142548953Y-54588628D02*
X142596572Y-54493390D01*
X142596572Y-54493390D02*
X142644191Y-54445771D01*
X142644191Y-54445771D02*
X142739429Y-54398152D01*
X142739429Y-54398152D02*
X142882286Y-54398152D01*
X142882286Y-54398152D02*
X142977524Y-54445771D01*
X142977524Y-54445771D02*
X143025143Y-54493390D01*
X143025143Y-54493390D02*
X143072762Y-54588628D01*
X143072762Y-54588628D02*
X143072762Y-54874342D01*
X143072762Y-54874342D02*
X143025143Y-54969580D01*
X143025143Y-54969580D02*
X142977524Y-55017200D01*
X142977524Y-55017200D02*
X142882286Y-55064819D01*
X142882286Y-55064819D02*
X142739429Y-55064819D01*
X143501334Y-55064819D02*
X143501334Y-54398152D01*
X143501334Y-54588628D02*
X143548953Y-54493390D01*
X143548953Y-54493390D02*
X143596572Y-54445771D01*
X143596572Y-54445771D02*
X143691810Y-54398152D01*
X143691810Y-54398152D02*
X143787048Y-54398152D01*
X126960951Y-45905009D02*
X126627618Y-45905009D01*
X126627618Y-46428819D02*
X126627618Y-45428819D01*
X126627618Y-45428819D02*
X127103808Y-45428819D01*
X127341904Y-45428819D02*
X127913332Y-45428819D01*
X127627618Y-46428819D02*
X127627618Y-45428819D01*
X128246666Y-46428819D02*
X128246666Y-45428819D01*
X128246666Y-45428819D02*
X128484761Y-45428819D01*
X128484761Y-45428819D02*
X128627618Y-45476438D01*
X128627618Y-45476438D02*
X128722856Y-45571676D01*
X128722856Y-45571676D02*
X128770475Y-45666914D01*
X128770475Y-45666914D02*
X128818094Y-45857390D01*
X128818094Y-45857390D02*
X128818094Y-46000247D01*
X128818094Y-46000247D02*
X128770475Y-46190723D01*
X128770475Y-46190723D02*
X128722856Y-46285961D01*
X128722856Y-46285961D02*
X128627618Y-46381200D01*
X128627618Y-46381200D02*
X128484761Y-46428819D01*
X128484761Y-46428819D02*
X128246666Y-46428819D01*
X129246666Y-46428819D02*
X129246666Y-45428819D01*
X131056189Y-46333580D02*
X131008570Y-46381200D01*
X131008570Y-46381200D02*
X130865713Y-46428819D01*
X130865713Y-46428819D02*
X130770475Y-46428819D01*
X130770475Y-46428819D02*
X130627618Y-46381200D01*
X130627618Y-46381200D02*
X130532380Y-46285961D01*
X130532380Y-46285961D02*
X130484761Y-46190723D01*
X130484761Y-46190723D02*
X130437142Y-46000247D01*
X130437142Y-46000247D02*
X130437142Y-45857390D01*
X130437142Y-45857390D02*
X130484761Y-45666914D01*
X130484761Y-45666914D02*
X130532380Y-45571676D01*
X130532380Y-45571676D02*
X130627618Y-45476438D01*
X130627618Y-45476438D02*
X130770475Y-45428819D01*
X130770475Y-45428819D02*
X130865713Y-45428819D01*
X130865713Y-45428819D02*
X131008570Y-45476438D01*
X131008570Y-45476438D02*
X131056189Y-45524057D01*
X131627618Y-46428819D02*
X131532380Y-46381200D01*
X131532380Y-46381200D02*
X131484761Y-46333580D01*
X131484761Y-46333580D02*
X131437142Y-46238342D01*
X131437142Y-46238342D02*
X131437142Y-45952628D01*
X131437142Y-45952628D02*
X131484761Y-45857390D01*
X131484761Y-45857390D02*
X131532380Y-45809771D01*
X131532380Y-45809771D02*
X131627618Y-45762152D01*
X131627618Y-45762152D02*
X131770475Y-45762152D01*
X131770475Y-45762152D02*
X131865713Y-45809771D01*
X131865713Y-45809771D02*
X131913332Y-45857390D01*
X131913332Y-45857390D02*
X131960951Y-45952628D01*
X131960951Y-45952628D02*
X131960951Y-46238342D01*
X131960951Y-46238342D02*
X131913332Y-46333580D01*
X131913332Y-46333580D02*
X131865713Y-46381200D01*
X131865713Y-46381200D02*
X131770475Y-46428819D01*
X131770475Y-46428819D02*
X131627618Y-46428819D01*
X132389523Y-45762152D02*
X132389523Y-46428819D01*
X132389523Y-45857390D02*
X132437142Y-45809771D01*
X132437142Y-45809771D02*
X132532380Y-45762152D01*
X132532380Y-45762152D02*
X132675237Y-45762152D01*
X132675237Y-45762152D02*
X132770475Y-45809771D01*
X132770475Y-45809771D02*
X132818094Y-45905009D01*
X132818094Y-45905009D02*
X132818094Y-46428819D01*
X133294285Y-45762152D02*
X133294285Y-46428819D01*
X133294285Y-45857390D02*
X133341904Y-45809771D01*
X133341904Y-45809771D02*
X133437142Y-45762152D01*
X133437142Y-45762152D02*
X133579999Y-45762152D01*
X133579999Y-45762152D02*
X133675237Y-45809771D01*
X133675237Y-45809771D02*
X133722856Y-45905009D01*
X133722856Y-45905009D02*
X133722856Y-46428819D01*
X134579999Y-46381200D02*
X134484761Y-46428819D01*
X134484761Y-46428819D02*
X134294285Y-46428819D01*
X134294285Y-46428819D02*
X134199047Y-46381200D01*
X134199047Y-46381200D02*
X134151428Y-46285961D01*
X134151428Y-46285961D02*
X134151428Y-45905009D01*
X134151428Y-45905009D02*
X134199047Y-45809771D01*
X134199047Y-45809771D02*
X134294285Y-45762152D01*
X134294285Y-45762152D02*
X134484761Y-45762152D01*
X134484761Y-45762152D02*
X134579999Y-45809771D01*
X134579999Y-45809771D02*
X134627618Y-45905009D01*
X134627618Y-45905009D02*
X134627618Y-46000247D01*
X134627618Y-46000247D02*
X134151428Y-46095485D01*
X135484761Y-46381200D02*
X135389523Y-46428819D01*
X135389523Y-46428819D02*
X135199047Y-46428819D01*
X135199047Y-46428819D02*
X135103809Y-46381200D01*
X135103809Y-46381200D02*
X135056190Y-46333580D01*
X135056190Y-46333580D02*
X135008571Y-46238342D01*
X135008571Y-46238342D02*
X135008571Y-45952628D01*
X135008571Y-45952628D02*
X135056190Y-45857390D01*
X135056190Y-45857390D02*
X135103809Y-45809771D01*
X135103809Y-45809771D02*
X135199047Y-45762152D01*
X135199047Y-45762152D02*
X135389523Y-45762152D01*
X135389523Y-45762152D02*
X135484761Y-45809771D01*
X135770476Y-45762152D02*
X136151428Y-45762152D01*
X135913333Y-45428819D02*
X135913333Y-46285961D01*
X135913333Y-46285961D02*
X135960952Y-46381200D01*
X135960952Y-46381200D02*
X136056190Y-46428819D01*
X136056190Y-46428819D02*
X136151428Y-46428819D01*
X136627619Y-46428819D02*
X136532381Y-46381200D01*
X136532381Y-46381200D02*
X136484762Y-46333580D01*
X136484762Y-46333580D02*
X136437143Y-46238342D01*
X136437143Y-46238342D02*
X136437143Y-45952628D01*
X136437143Y-45952628D02*
X136484762Y-45857390D01*
X136484762Y-45857390D02*
X136532381Y-45809771D01*
X136532381Y-45809771D02*
X136627619Y-45762152D01*
X136627619Y-45762152D02*
X136770476Y-45762152D01*
X136770476Y-45762152D02*
X136865714Y-45809771D01*
X136865714Y-45809771D02*
X136913333Y-45857390D01*
X136913333Y-45857390D02*
X136960952Y-45952628D01*
X136960952Y-45952628D02*
X136960952Y-46238342D01*
X136960952Y-46238342D02*
X136913333Y-46333580D01*
X136913333Y-46333580D02*
X136865714Y-46381200D01*
X136865714Y-46381200D02*
X136770476Y-46428819D01*
X136770476Y-46428819D02*
X136627619Y-46428819D01*
X137389524Y-46428819D02*
X137389524Y-45762152D01*
X137389524Y-45952628D02*
X137437143Y-45857390D01*
X137437143Y-45857390D02*
X137484762Y-45809771D01*
X137484762Y-45809771D02*
X137580000Y-45762152D01*
X137580000Y-45762152D02*
X137675238Y-45762152D01*
%TO.C,U2*%
X135128095Y-75864819D02*
X135128095Y-76674342D01*
X135128095Y-76674342D02*
X135175714Y-76769580D01*
X135175714Y-76769580D02*
X135223333Y-76817200D01*
X135223333Y-76817200D02*
X135318571Y-76864819D01*
X135318571Y-76864819D02*
X135509047Y-76864819D01*
X135509047Y-76864819D02*
X135604285Y-76817200D01*
X135604285Y-76817200D02*
X135651904Y-76769580D01*
X135651904Y-76769580D02*
X135699523Y-76674342D01*
X135699523Y-76674342D02*
X135699523Y-75864819D01*
X136128095Y-75960057D02*
X136175714Y-75912438D01*
X136175714Y-75912438D02*
X136270952Y-75864819D01*
X136270952Y-75864819D02*
X136509047Y-75864819D01*
X136509047Y-75864819D02*
X136604285Y-75912438D01*
X136604285Y-75912438D02*
X136651904Y-75960057D01*
X136651904Y-75960057D02*
X136699523Y-76055295D01*
X136699523Y-76055295D02*
X136699523Y-76150533D01*
X136699523Y-76150533D02*
X136651904Y-76293390D01*
X136651904Y-76293390D02*
X136080476Y-76864819D01*
X136080476Y-76864819D02*
X136699523Y-76864819D01*
X136344819Y-87423237D02*
X135344819Y-87423237D01*
X135344819Y-87423237D02*
X135344819Y-87185142D01*
X135344819Y-87185142D02*
X135392438Y-87042285D01*
X135392438Y-87042285D02*
X135487676Y-86947047D01*
X135487676Y-86947047D02*
X135582914Y-86899428D01*
X135582914Y-86899428D02*
X135773390Y-86851809D01*
X135773390Y-86851809D02*
X135916247Y-86851809D01*
X135916247Y-86851809D02*
X136106723Y-86899428D01*
X136106723Y-86899428D02*
X136201961Y-86947047D01*
X136201961Y-86947047D02*
X136297200Y-87042285D01*
X136297200Y-87042285D02*
X136344819Y-87185142D01*
X136344819Y-87185142D02*
X136344819Y-87423237D01*
X136344819Y-85851809D02*
X135868628Y-86185142D01*
X136344819Y-86423237D02*
X135344819Y-86423237D01*
X135344819Y-86423237D02*
X135344819Y-86042285D01*
X135344819Y-86042285D02*
X135392438Y-85947047D01*
X135392438Y-85947047D02*
X135440057Y-85899428D01*
X135440057Y-85899428D02*
X135535295Y-85851809D01*
X135535295Y-85851809D02*
X135678152Y-85851809D01*
X135678152Y-85851809D02*
X135773390Y-85899428D01*
X135773390Y-85899428D02*
X135821009Y-85947047D01*
X135821009Y-85947047D02*
X135868628Y-86042285D01*
X135868628Y-86042285D02*
X135868628Y-86423237D01*
X135344819Y-85566094D02*
X136344819Y-85232761D01*
X136344819Y-85232761D02*
X135344819Y-84899428D01*
X135773390Y-84423237D02*
X135725771Y-84518475D01*
X135725771Y-84518475D02*
X135678152Y-84566094D01*
X135678152Y-84566094D02*
X135582914Y-84613713D01*
X135582914Y-84613713D02*
X135535295Y-84613713D01*
X135535295Y-84613713D02*
X135440057Y-84566094D01*
X135440057Y-84566094D02*
X135392438Y-84518475D01*
X135392438Y-84518475D02*
X135344819Y-84423237D01*
X135344819Y-84423237D02*
X135344819Y-84232761D01*
X135344819Y-84232761D02*
X135392438Y-84137523D01*
X135392438Y-84137523D02*
X135440057Y-84089904D01*
X135440057Y-84089904D02*
X135535295Y-84042285D01*
X135535295Y-84042285D02*
X135582914Y-84042285D01*
X135582914Y-84042285D02*
X135678152Y-84089904D01*
X135678152Y-84089904D02*
X135725771Y-84137523D01*
X135725771Y-84137523D02*
X135773390Y-84232761D01*
X135773390Y-84232761D02*
X135773390Y-84423237D01*
X135773390Y-84423237D02*
X135821009Y-84518475D01*
X135821009Y-84518475D02*
X135868628Y-84566094D01*
X135868628Y-84566094D02*
X135963866Y-84613713D01*
X135963866Y-84613713D02*
X136154342Y-84613713D01*
X136154342Y-84613713D02*
X136249580Y-84566094D01*
X136249580Y-84566094D02*
X136297200Y-84518475D01*
X136297200Y-84518475D02*
X136344819Y-84423237D01*
X136344819Y-84423237D02*
X136344819Y-84232761D01*
X136344819Y-84232761D02*
X136297200Y-84137523D01*
X136297200Y-84137523D02*
X136249580Y-84089904D01*
X136249580Y-84089904D02*
X136154342Y-84042285D01*
X136154342Y-84042285D02*
X135963866Y-84042285D01*
X135963866Y-84042285D02*
X135868628Y-84089904D01*
X135868628Y-84089904D02*
X135821009Y-84137523D01*
X135821009Y-84137523D02*
X135773390Y-84232761D01*
X135773390Y-83470856D02*
X135725771Y-83566094D01*
X135725771Y-83566094D02*
X135678152Y-83613713D01*
X135678152Y-83613713D02*
X135582914Y-83661332D01*
X135582914Y-83661332D02*
X135535295Y-83661332D01*
X135535295Y-83661332D02*
X135440057Y-83613713D01*
X135440057Y-83613713D02*
X135392438Y-83566094D01*
X135392438Y-83566094D02*
X135344819Y-83470856D01*
X135344819Y-83470856D02*
X135344819Y-83280380D01*
X135344819Y-83280380D02*
X135392438Y-83185142D01*
X135392438Y-83185142D02*
X135440057Y-83137523D01*
X135440057Y-83137523D02*
X135535295Y-83089904D01*
X135535295Y-83089904D02*
X135582914Y-83089904D01*
X135582914Y-83089904D02*
X135678152Y-83137523D01*
X135678152Y-83137523D02*
X135725771Y-83185142D01*
X135725771Y-83185142D02*
X135773390Y-83280380D01*
X135773390Y-83280380D02*
X135773390Y-83470856D01*
X135773390Y-83470856D02*
X135821009Y-83566094D01*
X135821009Y-83566094D02*
X135868628Y-83613713D01*
X135868628Y-83613713D02*
X135963866Y-83661332D01*
X135963866Y-83661332D02*
X136154342Y-83661332D01*
X136154342Y-83661332D02*
X136249580Y-83613713D01*
X136249580Y-83613713D02*
X136297200Y-83566094D01*
X136297200Y-83566094D02*
X136344819Y-83470856D01*
X136344819Y-83470856D02*
X136344819Y-83280380D01*
X136344819Y-83280380D02*
X136297200Y-83185142D01*
X136297200Y-83185142D02*
X136249580Y-83137523D01*
X136249580Y-83137523D02*
X136154342Y-83089904D01*
X136154342Y-83089904D02*
X135963866Y-83089904D01*
X135963866Y-83089904D02*
X135868628Y-83137523D01*
X135868628Y-83137523D02*
X135821009Y-83185142D01*
X135821009Y-83185142D02*
X135773390Y-83280380D01*
X135344819Y-82756570D02*
X135344819Y-82137523D01*
X135344819Y-82137523D02*
X135725771Y-82470856D01*
X135725771Y-82470856D02*
X135725771Y-82327999D01*
X135725771Y-82327999D02*
X135773390Y-82232761D01*
X135773390Y-82232761D02*
X135821009Y-82185142D01*
X135821009Y-82185142D02*
X135916247Y-82137523D01*
X135916247Y-82137523D02*
X136154342Y-82137523D01*
X136154342Y-82137523D02*
X136249580Y-82185142D01*
X136249580Y-82185142D02*
X136297200Y-82232761D01*
X136297200Y-82232761D02*
X136344819Y-82327999D01*
X136344819Y-82327999D02*
X136344819Y-82613713D01*
X136344819Y-82613713D02*
X136297200Y-82708951D01*
X136297200Y-82708951D02*
X136249580Y-82756570D01*
X135773390Y-81566094D02*
X135725771Y-81661332D01*
X135725771Y-81661332D02*
X135678152Y-81708951D01*
X135678152Y-81708951D02*
X135582914Y-81756570D01*
X135582914Y-81756570D02*
X135535295Y-81756570D01*
X135535295Y-81756570D02*
X135440057Y-81708951D01*
X135440057Y-81708951D02*
X135392438Y-81661332D01*
X135392438Y-81661332D02*
X135344819Y-81566094D01*
X135344819Y-81566094D02*
X135344819Y-81375618D01*
X135344819Y-81375618D02*
X135392438Y-81280380D01*
X135392438Y-81280380D02*
X135440057Y-81232761D01*
X135440057Y-81232761D02*
X135535295Y-81185142D01*
X135535295Y-81185142D02*
X135582914Y-81185142D01*
X135582914Y-81185142D02*
X135678152Y-81232761D01*
X135678152Y-81232761D02*
X135725771Y-81280380D01*
X135725771Y-81280380D02*
X135773390Y-81375618D01*
X135773390Y-81375618D02*
X135773390Y-81566094D01*
X135773390Y-81566094D02*
X135821009Y-81661332D01*
X135821009Y-81661332D02*
X135868628Y-81708951D01*
X135868628Y-81708951D02*
X135963866Y-81756570D01*
X135963866Y-81756570D02*
X136154342Y-81756570D01*
X136154342Y-81756570D02*
X136249580Y-81708951D01*
X136249580Y-81708951D02*
X136297200Y-81661332D01*
X136297200Y-81661332D02*
X136344819Y-81566094D01*
X136344819Y-81566094D02*
X136344819Y-81375618D01*
X136344819Y-81375618D02*
X136297200Y-81280380D01*
X136297200Y-81280380D02*
X136249580Y-81232761D01*
X136249580Y-81232761D02*
X136154342Y-81185142D01*
X136154342Y-81185142D02*
X135963866Y-81185142D01*
X135963866Y-81185142D02*
X135868628Y-81232761D01*
X135868628Y-81232761D02*
X135821009Y-81280380D01*
X135821009Y-81280380D02*
X135773390Y-81375618D01*
%TO.C,J1*%
X101266666Y-62744819D02*
X101266666Y-63459104D01*
X101266666Y-63459104D02*
X101219047Y-63601961D01*
X101219047Y-63601961D02*
X101123809Y-63697200D01*
X101123809Y-63697200D02*
X100980952Y-63744819D01*
X100980952Y-63744819D02*
X100885714Y-63744819D01*
X102266666Y-63744819D02*
X101695238Y-63744819D01*
X101980952Y-63744819D02*
X101980952Y-62744819D01*
X101980952Y-62744819D02*
X101885714Y-62887676D01*
X101885714Y-62887676D02*
X101790476Y-62982914D01*
X101790476Y-62982914D02*
X101695238Y-63030533D01*
X95734951Y-55826819D02*
X95734951Y-54826819D01*
X95734951Y-54826819D02*
X96115903Y-54826819D01*
X96115903Y-54826819D02*
X96211141Y-54874438D01*
X96211141Y-54874438D02*
X96258760Y-54922057D01*
X96258760Y-54922057D02*
X96306379Y-55017295D01*
X96306379Y-55017295D02*
X96306379Y-55160152D01*
X96306379Y-55160152D02*
X96258760Y-55255390D01*
X96258760Y-55255390D02*
X96211141Y-55303009D01*
X96211141Y-55303009D02*
X96115903Y-55350628D01*
X96115903Y-55350628D02*
X95734951Y-55350628D01*
X96877808Y-55826819D02*
X96782570Y-55779200D01*
X96782570Y-55779200D02*
X96734951Y-55731580D01*
X96734951Y-55731580D02*
X96687332Y-55636342D01*
X96687332Y-55636342D02*
X96687332Y-55350628D01*
X96687332Y-55350628D02*
X96734951Y-55255390D01*
X96734951Y-55255390D02*
X96782570Y-55207771D01*
X96782570Y-55207771D02*
X96877808Y-55160152D01*
X96877808Y-55160152D02*
X97020665Y-55160152D01*
X97020665Y-55160152D02*
X97115903Y-55207771D01*
X97115903Y-55207771D02*
X97163522Y-55255390D01*
X97163522Y-55255390D02*
X97211141Y-55350628D01*
X97211141Y-55350628D02*
X97211141Y-55636342D01*
X97211141Y-55636342D02*
X97163522Y-55731580D01*
X97163522Y-55731580D02*
X97115903Y-55779200D01*
X97115903Y-55779200D02*
X97020665Y-55826819D01*
X97020665Y-55826819D02*
X96877808Y-55826819D01*
X97544475Y-55160152D02*
X97734951Y-55826819D01*
X97734951Y-55826819D02*
X97925427Y-55350628D01*
X97925427Y-55350628D02*
X98115903Y-55826819D01*
X98115903Y-55826819D02*
X98306379Y-55160152D01*
X99068284Y-55779200D02*
X98973046Y-55826819D01*
X98973046Y-55826819D02*
X98782570Y-55826819D01*
X98782570Y-55826819D02*
X98687332Y-55779200D01*
X98687332Y-55779200D02*
X98639713Y-55683961D01*
X98639713Y-55683961D02*
X98639713Y-55303009D01*
X98639713Y-55303009D02*
X98687332Y-55207771D01*
X98687332Y-55207771D02*
X98782570Y-55160152D01*
X98782570Y-55160152D02*
X98973046Y-55160152D01*
X98973046Y-55160152D02*
X99068284Y-55207771D01*
X99068284Y-55207771D02*
X99115903Y-55303009D01*
X99115903Y-55303009D02*
X99115903Y-55398247D01*
X99115903Y-55398247D02*
X98639713Y-55493485D01*
X99544475Y-55826819D02*
X99544475Y-55160152D01*
X99544475Y-55350628D02*
X99592094Y-55255390D01*
X99592094Y-55255390D02*
X99639713Y-55207771D01*
X99639713Y-55207771D02*
X99734951Y-55160152D01*
X99734951Y-55160152D02*
X99830189Y-55160152D01*
X101496856Y-55731580D02*
X101449237Y-55779200D01*
X101449237Y-55779200D02*
X101306380Y-55826819D01*
X101306380Y-55826819D02*
X101211142Y-55826819D01*
X101211142Y-55826819D02*
X101068285Y-55779200D01*
X101068285Y-55779200D02*
X100973047Y-55683961D01*
X100973047Y-55683961D02*
X100925428Y-55588723D01*
X100925428Y-55588723D02*
X100877809Y-55398247D01*
X100877809Y-55398247D02*
X100877809Y-55255390D01*
X100877809Y-55255390D02*
X100925428Y-55064914D01*
X100925428Y-55064914D02*
X100973047Y-54969676D01*
X100973047Y-54969676D02*
X101068285Y-54874438D01*
X101068285Y-54874438D02*
X101211142Y-54826819D01*
X101211142Y-54826819D02*
X101306380Y-54826819D01*
X101306380Y-54826819D02*
X101449237Y-54874438D01*
X101449237Y-54874438D02*
X101496856Y-54922057D01*
X102068285Y-55826819D02*
X101973047Y-55779200D01*
X101973047Y-55779200D02*
X101925428Y-55731580D01*
X101925428Y-55731580D02*
X101877809Y-55636342D01*
X101877809Y-55636342D02*
X101877809Y-55350628D01*
X101877809Y-55350628D02*
X101925428Y-55255390D01*
X101925428Y-55255390D02*
X101973047Y-55207771D01*
X101973047Y-55207771D02*
X102068285Y-55160152D01*
X102068285Y-55160152D02*
X102211142Y-55160152D01*
X102211142Y-55160152D02*
X102306380Y-55207771D01*
X102306380Y-55207771D02*
X102353999Y-55255390D01*
X102353999Y-55255390D02*
X102401618Y-55350628D01*
X102401618Y-55350628D02*
X102401618Y-55636342D01*
X102401618Y-55636342D02*
X102353999Y-55731580D01*
X102353999Y-55731580D02*
X102306380Y-55779200D01*
X102306380Y-55779200D02*
X102211142Y-55826819D01*
X102211142Y-55826819D02*
X102068285Y-55826819D01*
X102830190Y-55160152D02*
X102830190Y-55826819D01*
X102830190Y-55255390D02*
X102877809Y-55207771D01*
X102877809Y-55207771D02*
X102973047Y-55160152D01*
X102973047Y-55160152D02*
X103115904Y-55160152D01*
X103115904Y-55160152D02*
X103211142Y-55207771D01*
X103211142Y-55207771D02*
X103258761Y-55303009D01*
X103258761Y-55303009D02*
X103258761Y-55826819D01*
X103734952Y-55160152D02*
X103734952Y-55826819D01*
X103734952Y-55255390D02*
X103782571Y-55207771D01*
X103782571Y-55207771D02*
X103877809Y-55160152D01*
X103877809Y-55160152D02*
X104020666Y-55160152D01*
X104020666Y-55160152D02*
X104115904Y-55207771D01*
X104115904Y-55207771D02*
X104163523Y-55303009D01*
X104163523Y-55303009D02*
X104163523Y-55826819D01*
X105020666Y-55779200D02*
X104925428Y-55826819D01*
X104925428Y-55826819D02*
X104734952Y-55826819D01*
X104734952Y-55826819D02*
X104639714Y-55779200D01*
X104639714Y-55779200D02*
X104592095Y-55683961D01*
X104592095Y-55683961D02*
X104592095Y-55303009D01*
X104592095Y-55303009D02*
X104639714Y-55207771D01*
X104639714Y-55207771D02*
X104734952Y-55160152D01*
X104734952Y-55160152D02*
X104925428Y-55160152D01*
X104925428Y-55160152D02*
X105020666Y-55207771D01*
X105020666Y-55207771D02*
X105068285Y-55303009D01*
X105068285Y-55303009D02*
X105068285Y-55398247D01*
X105068285Y-55398247D02*
X104592095Y-55493485D01*
X105925428Y-55779200D02*
X105830190Y-55826819D01*
X105830190Y-55826819D02*
X105639714Y-55826819D01*
X105639714Y-55826819D02*
X105544476Y-55779200D01*
X105544476Y-55779200D02*
X105496857Y-55731580D01*
X105496857Y-55731580D02*
X105449238Y-55636342D01*
X105449238Y-55636342D02*
X105449238Y-55350628D01*
X105449238Y-55350628D02*
X105496857Y-55255390D01*
X105496857Y-55255390D02*
X105544476Y-55207771D01*
X105544476Y-55207771D02*
X105639714Y-55160152D01*
X105639714Y-55160152D02*
X105830190Y-55160152D01*
X105830190Y-55160152D02*
X105925428Y-55207771D01*
X106211143Y-55160152D02*
X106592095Y-55160152D01*
X106354000Y-54826819D02*
X106354000Y-55683961D01*
X106354000Y-55683961D02*
X106401619Y-55779200D01*
X106401619Y-55779200D02*
X106496857Y-55826819D01*
X106496857Y-55826819D02*
X106592095Y-55826819D01*
X107068286Y-55826819D02*
X106973048Y-55779200D01*
X106973048Y-55779200D02*
X106925429Y-55731580D01*
X106925429Y-55731580D02*
X106877810Y-55636342D01*
X106877810Y-55636342D02*
X106877810Y-55350628D01*
X106877810Y-55350628D02*
X106925429Y-55255390D01*
X106925429Y-55255390D02*
X106973048Y-55207771D01*
X106973048Y-55207771D02*
X107068286Y-55160152D01*
X107068286Y-55160152D02*
X107211143Y-55160152D01*
X107211143Y-55160152D02*
X107306381Y-55207771D01*
X107306381Y-55207771D02*
X107354000Y-55255390D01*
X107354000Y-55255390D02*
X107401619Y-55350628D01*
X107401619Y-55350628D02*
X107401619Y-55636342D01*
X107401619Y-55636342D02*
X107354000Y-55731580D01*
X107354000Y-55731580D02*
X107306381Y-55779200D01*
X107306381Y-55779200D02*
X107211143Y-55826819D01*
X107211143Y-55826819D02*
X107068286Y-55826819D01*
X107830191Y-55826819D02*
X107830191Y-55160152D01*
X107830191Y-55350628D02*
X107877810Y-55255390D01*
X107877810Y-55255390D02*
X107925429Y-55207771D01*
X107925429Y-55207771D02*
X108020667Y-55160152D01*
X108020667Y-55160152D02*
X108115905Y-55160152D01*
%TO.C,J2*%
X109646819Y-46561333D02*
X110361104Y-46561333D01*
X110361104Y-46561333D02*
X110503961Y-46608952D01*
X110503961Y-46608952D02*
X110599200Y-46704190D01*
X110599200Y-46704190D02*
X110646819Y-46847047D01*
X110646819Y-46847047D02*
X110646819Y-46942285D01*
X109742057Y-46132761D02*
X109694438Y-46085142D01*
X109694438Y-46085142D02*
X109646819Y-45989904D01*
X109646819Y-45989904D02*
X109646819Y-45751809D01*
X109646819Y-45751809D02*
X109694438Y-45656571D01*
X109694438Y-45656571D02*
X109742057Y-45608952D01*
X109742057Y-45608952D02*
X109837295Y-45561333D01*
X109837295Y-45561333D02*
X109932533Y-45561333D01*
X109932533Y-45561333D02*
X110075390Y-45608952D01*
X110075390Y-45608952D02*
X110646819Y-46180380D01*
X110646819Y-46180380D02*
X110646819Y-45561333D01*
D13*
%TO.C,U3*%
X107950000Y-57150000D02*
X107950000Y-90170000D01*
X107950000Y-90170000D02*
X125730000Y-90170000D01*
X125730000Y-57150000D02*
X107950000Y-57150000D01*
X125730000Y-90170000D02*
X125730000Y-57150000D01*
D14*
%TO.C,J4*%
X102930000Y-70612000D02*
X102930000Y-71942000D01*
X102930000Y-66742000D02*
X100270000Y-66742000D01*
X102930000Y-69342000D02*
X102930000Y-66742000D01*
X102930000Y-69342000D02*
X100270000Y-69342000D01*
X102930000Y-71942000D02*
X101600000Y-71942000D01*
X100270000Y-69342000D02*
X100270000Y-66742000D01*
%TO.C,J3*%
X138490000Y-60960000D02*
X138490000Y-62290000D01*
X138490000Y-57090000D02*
X135830000Y-57090000D01*
X138490000Y-59690000D02*
X138490000Y-57090000D01*
X138490000Y-59690000D02*
X135830000Y-59690000D01*
X138490000Y-62290000D02*
X137160000Y-62290000D01*
X135830000Y-59690000D02*
X135830000Y-57090000D01*
%TO.C,U2*%
X133240000Y-90230000D02*
X138540000Y-90230000D01*
X141030000Y-77350000D02*
X130750000Y-77350000D01*
X138540000Y-77410000D02*
X136890000Y-77410000D01*
X130750000Y-90290000D02*
X141030000Y-90290000D01*
X141030000Y-90290000D02*
X141030000Y-77350000D01*
X130750000Y-77350000D02*
X130750000Y-90290000D01*
X138540000Y-90230000D02*
X138540000Y-77410000D01*
X133240000Y-77410000D02*
X133240000Y-90230000D01*
X134890000Y-77410000D02*
X133240000Y-77410000D01*
X134890000Y-77410000D02*
G75*
G03*
X136890000Y-77410000I1000000J0D01*
G01*
%TO.C,J1*%
X102930000Y-60960000D02*
X102930000Y-62290000D01*
X102930000Y-57090000D02*
X100270000Y-57090000D01*
X102930000Y-59690000D02*
X102930000Y-57090000D01*
X102930000Y-59690000D02*
X100270000Y-59690000D01*
X102930000Y-62290000D02*
X101600000Y-62290000D01*
X100270000Y-59690000D02*
X100270000Y-57090000D01*
%TO.C,J2*%
X113792000Y-44898000D02*
X124012000Y-44898000D01*
X111192000Y-47558000D02*
X111192000Y-46228000D01*
X113792000Y-47558000D02*
X124012000Y-47558000D01*
X124012000Y-47558000D02*
X124012000Y-44898000D01*
X113792000Y-47558000D02*
X113792000Y-44898000D01*
X112522000Y-47558000D02*
X111192000Y-47558000D01*
%TD*%
M02*
