%TF.GenerationSoftware,KiCad,Pcbnew,7.0.5-7.0.5~ubuntu22.04.1*%
%TF.CreationDate,2023-06-08T15:32:45+02:00*%
%TF.ProjectId,AirGo,41697247-6f2e-46b6-9963-61645f706362,rev?*%
%TF.SameCoordinates,Original*%
%TF.FileFunction,Copper,L2,Bot*%
%TF.FilePolarity,Positive*%
%FSLAX46Y46*%
G04 Gerber Fmt 4.6, Leading zero omitted, Abs format (unit mm)*
G04 Created by KiCad (PCBNEW 7.0.5-7.0.5~ubuntu22.04.1) date 2023-06-08 15:32:45*
%MOMM*%
%LPD*%
G01*
G04 APERTURE LIST*
%TA.AperFunction,ComponentPad*%
%ADD10C,1.879600*%
%TD*%
%TA.AperFunction,ComponentPad*%
%ADD11R,1.700000X1.700000*%
%TD*%
%TA.AperFunction,ComponentPad*%
%ADD12O,1.700000X1.700000*%
%TD*%
%TA.AperFunction,ComponentPad*%
%ADD13R,1.600000X1.600000*%
%TD*%
%TA.AperFunction,ComponentPad*%
%ADD14O,1.600000X1.600000*%
%TD*%
%TA.AperFunction,ViaPad*%
%ADD15C,0.800000*%
%TD*%
%TA.AperFunction,Conductor*%
%ADD16C,0.250000*%
%TD*%
G04 APERTURE END LIST*
D10*
%TO.P,U3,JP1_1,DTR*%
%TO.N,Net-(J2-Pin_1)*%
X110490000Y-58420000D03*
%TO.P,U3,JP1_2,TXO*%
%TO.N,Net-(J2-Pin_2)*%
X113030000Y-58420000D03*
%TO.P,U3,JP1_3,RXI*%
%TO.N,Net-(J2-Pin_3)*%
X118110000Y-58420000D03*
%TO.P,U3,JP1_4,VCC*%
%TO.N,Net-(J2-Pin_4)*%
X115570000Y-58420000D03*
%TO.P,U3,JP1_5,GND*%
%TO.N,GND*%
X120650000Y-58420000D03*
%TO.P,U3,JP1_6,GND*%
X123190000Y-58420000D03*
%TO.P,U3,JP2_1,A4*%
%TO.N,unconnected-(U3-A4-PadJP2_1)*%
X121539000Y-72263000D03*
%TO.P,U3,JP2_2,A5*%
%TO.N,unconnected-(U3-A5-PadJP2_2)*%
X121539000Y-69723000D03*
%TO.P,U3,JP6_1,RAW*%
%TO.N,Net-(J1-Pin_2)*%
X124460000Y-60960000D03*
%TO.P,U3,JP6_2,GND_1*%
%TO.N,GND*%
X124460000Y-63500000D03*
%TO.P,U3,JP6_3,RST_1*%
%TO.N,unconnected-(U3-RST_1-PadJP6_3)*%
X124460000Y-66040000D03*
%TO.P,U3,JP6_4,VCC_1*%
%TO.N,unconnected-(U3-VCC_1-PadJP6_4)*%
X124460000Y-68580000D03*
%TO.P,U3,JP6_5,A3*%
%TO.N,unconnected-(U3-A3-PadJP6_5)*%
X124460000Y-71120000D03*
%TO.P,U3,JP6_6,A2*%
%TO.N,unconnected-(U3-A2-PadJP6_6)*%
X124460000Y-73660000D03*
%TO.P,U3,JP6_7,A1*%
%TO.N,unconnected-(U3-A1-PadJP6_7)*%
X124460000Y-76200000D03*
%TO.P,U3,JP6_8,A0*%
%TO.N,unconnected-(U3-A0-PadJP6_8)*%
X124460000Y-78740000D03*
%TO.P,U3,JP6_9,SCK*%
%TO.N,unconnected-(U3-SCK-PadJP6_9)*%
X124460000Y-81280000D03*
%TO.P,U3,JP6_10,MISO*%
%TO.N,unconnected-(U3-MISO-PadJP6_10)*%
X119405400Y-88900000D03*
X124460000Y-83820000D03*
%TO.P,U3,JP6_11,MOSI*%
%TO.N,unconnected-(U3-MOSI-PadJP6_11)*%
X121945400Y-88900000D03*
X124460000Y-86360000D03*
%TO.P,U3,JP6_12,D10*%
%TO.N,Net-(U2-EN)*%
X124460000Y-88900000D03*
%TO.P,U3,JP7_1,D9*%
%TO.N,Net-(U2-PH)*%
X109220000Y-88900000D03*
%TO.P,U3,JP7_2,D8*%
%TO.N,Net-(U2-VCC)*%
X109220000Y-86360000D03*
%TO.P,U3,JP7_3,D7*%
%TO.N,unconnected-(U3-D7-PadJP7_3)*%
X109220000Y-83820000D03*
%TO.P,U3,JP7_4,D6*%
%TO.N,unconnected-(U3-D6-PadJP7_4)*%
X109220000Y-81280000D03*
%TO.P,U3,JP7_5,D5*%
%TO.N,unconnected-(U3-D5-PadJP7_5)*%
X109220000Y-78740000D03*
%TO.P,U3,JP7_6,D4*%
%TO.N,unconnected-(U3-D4-PadJP7_6)*%
X109220000Y-76200000D03*
%TO.P,U3,JP7_7,D3*%
%TO.N,unconnected-(U3-D3-PadJP7_7)*%
X109220000Y-73660000D03*
%TO.P,U3,JP7_8,D2*%
%TO.N,Net-(J4-Pin_1)*%
X109220000Y-71120000D03*
%TO.P,U3,JP7_9,GND_2*%
%TO.N,GND*%
X109220000Y-68580000D03*
X116865400Y-88900000D03*
%TO.P,U3,JP7_10,RST_2*%
%TO.N,unconnected-(U3-RST_2-PadJP7_10)*%
X109220000Y-66040000D03*
%TO.P,U3,JP7_11,RXI_2*%
%TO.N,unconnected-(U3-RXI_2-PadJP7_11)*%
X109220000Y-63500000D03*
%TO.P,U3,JP7_12,TXO_2*%
%TO.N,unconnected-(U3-TXO_2-PadJP7_12)*%
X109220000Y-60960000D03*
%TD*%
D11*
%TO.P,J4,1,Pin_1*%
%TO.N,Net-(J4-Pin_1)*%
X101600000Y-70612000D03*
D12*
%TO.P,J4,2,Pin_2*%
%TO.N,GND*%
X101600000Y-68072000D03*
%TD*%
D11*
%TO.P,J3,1,Pin_1*%
%TO.N,Net-(J3-Pin_1)*%
X137160000Y-60960000D03*
D12*
%TO.P,J3,2,Pin_2*%
%TO.N,Net-(J3-Pin_2)*%
X137160000Y-58420000D03*
%TD*%
D13*
%TO.P,U2,1,VM*%
%TO.N,Net-(J1-Pin_2)*%
X132080000Y-78740000D03*
D14*
%TO.P,U2,2,OUT1*%
%TO.N,Net-(J3-Pin_1)*%
X132080000Y-81280000D03*
%TO.P,U2,3,OUT2*%
%TO.N,Net-(J3-Pin_2)*%
X132080000Y-83820000D03*
%TO.P,U2,4,GND*%
%TO.N,GND*%
X132080000Y-86360000D03*
%TO.P,U2,5,EN*%
%TO.N,Net-(U2-EN)*%
X132080000Y-88900000D03*
%TO.P,U2,6,PH*%
%TO.N,Net-(U2-PH)*%
X139700000Y-88900000D03*
%TO.P,U2,7,~{SLEEP}*%
%TO.N,unconnected-(U2-~{SLEEP}-Pad7)*%
X139700000Y-86360000D03*
%TO.P,U2,8,VCC*%
%TO.N,Net-(U2-VCC)*%
X139700000Y-83820000D03*
%TO.P,U2,9,GND*%
%TO.N,GND*%
X139700000Y-81280000D03*
%TO.P,U2,10*%
%TO.N,N/C*%
X139700000Y-78740000D03*
%TD*%
D11*
%TO.P,J1,1,Pin_1*%
%TO.N,GND*%
X101600000Y-60960000D03*
D12*
%TO.P,J1,2,Pin_2*%
%TO.N,Net-(J1-Pin_2)*%
X101600000Y-58420000D03*
%TD*%
D11*
%TO.P,J2,1,Pin_1*%
%TO.N,Net-(J2-Pin_1)*%
X112522000Y-46228000D03*
D12*
%TO.P,J2,2,Pin_2*%
%TO.N,Net-(J2-Pin_2)*%
X115062000Y-46228000D03*
%TO.P,J2,3,Pin_3*%
%TO.N,Net-(J2-Pin_3)*%
X117602000Y-46228000D03*
%TO.P,J2,4,Pin_4*%
%TO.N,Net-(J2-Pin_4)*%
X120142000Y-46228000D03*
%TO.P,J2,5,Pin_5*%
%TO.N,GND*%
X122682000Y-46228000D03*
%TD*%
D15*
%TO.N,Net-(J2-Pin_4)*%
X116332000Y-51816000D03*
X119126000Y-51816000D03*
%TD*%
D16*
%TO.N,Net-(J2-Pin_4)*%
X119126000Y-51816000D02*
X116332000Y-51816000D01*
%TO.N,Net-(J1-Pin_2)*%
X127000000Y-60960000D02*
X132080000Y-66040000D01*
X132080000Y-66040000D02*
X132080000Y-78740000D01*
X129540000Y-55880000D02*
X129540000Y-58420000D01*
X129540000Y-58420000D02*
X127000000Y-60960000D01*
X104140000Y-53340000D02*
X127000000Y-53340000D01*
X101600000Y-58420000D02*
X102864800Y-57155200D01*
X102864800Y-57155200D02*
X102864800Y-54615200D01*
X102864800Y-54615200D02*
X104140000Y-53340000D01*
X127000000Y-53340000D02*
X129540000Y-55880000D01*
X127000000Y-60960000D02*
X124460000Y-60960000D01*
%TD*%
%TA.AperFunction,Conductor*%
%TO.N,GND*%
G36*
X152342539Y-40660185D02*
G01*
X152388294Y-40712989D01*
X152399500Y-40764500D01*
X152399500Y-96395500D01*
X152379815Y-96462539D01*
X152327011Y-96508294D01*
X152275500Y-96519500D01*
X91564500Y-96519500D01*
X91497461Y-96499815D01*
X91451706Y-96447011D01*
X91440500Y-96395500D01*
X91440500Y-71509870D01*
X100249500Y-71509870D01*
X100249501Y-71509876D01*
X100255908Y-71569483D01*
X100306202Y-71704328D01*
X100306206Y-71704335D01*
X100392452Y-71819544D01*
X100392455Y-71819547D01*
X100507664Y-71905793D01*
X100507671Y-71905797D01*
X100642517Y-71956091D01*
X100642516Y-71956091D01*
X100649444Y-71956835D01*
X100702127Y-71962500D01*
X102497872Y-71962499D01*
X102557483Y-71956091D01*
X102692331Y-71905796D01*
X102807546Y-71819546D01*
X102893796Y-71704331D01*
X102944091Y-71569483D01*
X102950500Y-71509873D01*
X102950499Y-69714128D01*
X102944091Y-69654517D01*
X102939907Y-69643300D01*
X102893797Y-69519671D01*
X102893793Y-69519664D01*
X102807547Y-69404455D01*
X102807544Y-69404452D01*
X102692335Y-69318206D01*
X102692328Y-69318202D01*
X102560401Y-69268997D01*
X102504467Y-69227126D01*
X102480050Y-69161662D01*
X102494902Y-69093389D01*
X102516053Y-69065133D01*
X102638108Y-68943078D01*
X102773600Y-68749578D01*
X102873429Y-68535492D01*
X102873432Y-68535486D01*
X102930636Y-68322000D01*
X102033686Y-68322000D01*
X102059493Y-68281844D01*
X102100000Y-68143889D01*
X102100000Y-68000111D01*
X102059493Y-67862156D01*
X102033686Y-67822000D01*
X102930636Y-67822000D01*
X102930635Y-67821999D01*
X102873432Y-67608513D01*
X102873429Y-67608507D01*
X102773600Y-67394422D01*
X102773599Y-67394420D01*
X102638113Y-67200926D01*
X102638108Y-67200920D01*
X102471082Y-67033894D01*
X102277578Y-66898399D01*
X102063492Y-66798570D01*
X102063486Y-66798567D01*
X101850000Y-66741364D01*
X101850000Y-67636498D01*
X101742315Y-67587320D01*
X101635763Y-67572000D01*
X101564237Y-67572000D01*
X101457685Y-67587320D01*
X101350000Y-67636498D01*
X101350000Y-66741364D01*
X101349999Y-66741364D01*
X101136513Y-66798567D01*
X101136507Y-66798570D01*
X100922422Y-66898399D01*
X100922420Y-66898400D01*
X100728926Y-67033886D01*
X100728920Y-67033891D01*
X100561891Y-67200920D01*
X100561886Y-67200926D01*
X100426400Y-67394420D01*
X100426399Y-67394422D01*
X100326570Y-67608507D01*
X100326567Y-67608513D01*
X100269364Y-67821999D01*
X100269364Y-67822000D01*
X101166314Y-67822000D01*
X101140507Y-67862156D01*
X101100000Y-68000111D01*
X101100000Y-68143889D01*
X101140507Y-68281844D01*
X101166314Y-68322000D01*
X100269364Y-68322000D01*
X100326567Y-68535486D01*
X100326570Y-68535492D01*
X100426399Y-68749578D01*
X100561894Y-68943082D01*
X100683946Y-69065134D01*
X100717431Y-69126457D01*
X100712447Y-69196149D01*
X100670575Y-69252082D01*
X100639598Y-69268997D01*
X100507671Y-69318202D01*
X100507664Y-69318206D01*
X100392455Y-69404452D01*
X100392452Y-69404455D01*
X100306206Y-69519664D01*
X100306202Y-69519671D01*
X100255908Y-69654517D01*
X100253201Y-69679700D01*
X100249501Y-69714123D01*
X100249500Y-69714135D01*
X100249500Y-71509870D01*
X91440500Y-71509870D01*
X91440500Y-58420000D01*
X100244341Y-58420000D01*
X100264936Y-58655403D01*
X100264938Y-58655413D01*
X100326094Y-58883655D01*
X100326096Y-58883659D01*
X100326097Y-58883663D01*
X100346772Y-58928000D01*
X100425965Y-59097830D01*
X100425967Y-59097834D01*
X100527664Y-59243071D01*
X100561501Y-59291396D01*
X100561506Y-59291402D01*
X100683818Y-59413714D01*
X100717303Y-59475037D01*
X100712319Y-59544729D01*
X100670447Y-59600662D01*
X100639471Y-59617577D01*
X100507912Y-59666646D01*
X100507906Y-59666649D01*
X100392812Y-59752809D01*
X100392809Y-59752812D01*
X100306649Y-59867906D01*
X100306645Y-59867913D01*
X100256403Y-60002620D01*
X100256401Y-60002627D01*
X100250000Y-60062155D01*
X100250000Y-60710000D01*
X101166314Y-60710000D01*
X101140507Y-60750156D01*
X101100000Y-60888111D01*
X101100000Y-61031889D01*
X101140507Y-61169844D01*
X101166314Y-61210000D01*
X100250000Y-61210000D01*
X100250000Y-61857844D01*
X100256401Y-61917372D01*
X100256403Y-61917379D01*
X100306645Y-62052086D01*
X100306649Y-62052093D01*
X100392809Y-62167187D01*
X100392812Y-62167190D01*
X100507906Y-62253350D01*
X100507913Y-62253354D01*
X100642620Y-62303596D01*
X100642627Y-62303598D01*
X100702155Y-62309999D01*
X100702172Y-62310000D01*
X101350000Y-62310000D01*
X101350000Y-61395501D01*
X101457685Y-61444680D01*
X101564237Y-61460000D01*
X101635763Y-61460000D01*
X101742315Y-61444680D01*
X101850000Y-61395501D01*
X101850000Y-62310000D01*
X102497828Y-62310000D01*
X102497844Y-62309999D01*
X102557372Y-62303598D01*
X102557379Y-62303596D01*
X102692086Y-62253354D01*
X102692093Y-62253350D01*
X102807187Y-62167190D01*
X102807190Y-62167187D01*
X102893350Y-62052093D01*
X102893354Y-62052086D01*
X102943596Y-61917379D01*
X102943598Y-61917372D01*
X102949999Y-61857844D01*
X102950000Y-61857827D01*
X102950000Y-61210000D01*
X102033686Y-61210000D01*
X102059493Y-61169844D01*
X102100000Y-61031889D01*
X102100000Y-60888111D01*
X102059493Y-60750156D01*
X102033686Y-60710000D01*
X102950000Y-60710000D01*
X102950000Y-60062172D01*
X102949999Y-60062155D01*
X102943598Y-60002627D01*
X102943596Y-60002620D01*
X102893354Y-59867913D01*
X102893350Y-59867906D01*
X102807190Y-59752812D01*
X102807187Y-59752809D01*
X102692093Y-59666649D01*
X102692088Y-59666646D01*
X102560528Y-59617577D01*
X102504595Y-59575705D01*
X102480178Y-59510241D01*
X102495030Y-59441968D01*
X102516175Y-59413720D01*
X102638495Y-59291401D01*
X102774035Y-59097830D01*
X102873903Y-58883663D01*
X102935063Y-58655408D01*
X102955659Y-58420000D01*
X102955658Y-58419994D01*
X102937006Y-58206799D01*
X102935063Y-58184592D01*
X102908142Y-58084125D01*
X102909806Y-58014276D01*
X102940235Y-57964353D01*
X103248587Y-57656002D01*
X103260842Y-57646186D01*
X103260659Y-57645964D01*
X103266668Y-57640991D01*
X103266677Y-57640986D01*
X103313407Y-57591222D01*
X103314646Y-57589943D01*
X103334920Y-57569671D01*
X103339179Y-57564178D01*
X103342952Y-57559761D01*
X103374862Y-57525782D01*
X103384513Y-57508224D01*
X103395196Y-57491961D01*
X103407473Y-57476136D01*
X103425985Y-57433353D01*
X103428538Y-57428141D01*
X103450997Y-57387292D01*
X103455980Y-57367880D01*
X103462281Y-57349480D01*
X103470237Y-57331096D01*
X103477529Y-57285052D01*
X103478706Y-57279371D01*
X103490300Y-57234219D01*
X103490300Y-57214182D01*
X103491827Y-57194782D01*
X103494960Y-57175004D01*
X103490575Y-57128615D01*
X103490300Y-57122777D01*
X103490300Y-54925652D01*
X103509985Y-54858613D01*
X103526619Y-54837971D01*
X104362772Y-54001819D01*
X104424095Y-53968334D01*
X104450453Y-53965500D01*
X126689548Y-53965500D01*
X126756587Y-53985185D01*
X126777229Y-54001819D01*
X128878181Y-56102771D01*
X128911666Y-56164094D01*
X128914500Y-56190452D01*
X128914500Y-58109547D01*
X128894815Y-58176586D01*
X128878181Y-58197228D01*
X126777228Y-60298181D01*
X126715905Y-60331666D01*
X126689547Y-60334500D01*
X125838681Y-60334500D01*
X125771642Y-60314815D01*
X125735213Y-60275548D01*
X125733852Y-60276438D01*
X125600493Y-60072317D01*
X125591114Y-60062129D01*
X125438832Y-59896705D01*
X125250469Y-59750097D01*
X125096272Y-59666649D01*
X125040546Y-59636491D01*
X125040541Y-59636489D01*
X124814786Y-59558988D01*
X124657826Y-59532796D01*
X124579347Y-59519700D01*
X124417332Y-59519700D01*
X124350293Y-59500015D01*
X124304538Y-59447211D01*
X124294594Y-59378053D01*
X124323619Y-59314497D01*
X124326100Y-59311719D01*
X124330097Y-59307376D01*
X124330100Y-59307372D01*
X124460606Y-59107619D01*
X124556454Y-58889104D01*
X124615030Y-58657796D01*
X124615032Y-58657788D01*
X124634734Y-58420006D01*
X124634734Y-58419993D01*
X124615032Y-58182211D01*
X124615030Y-58182203D01*
X124556454Y-57950895D01*
X124460606Y-57732380D01*
X124369941Y-57593609D01*
X123679521Y-58284029D01*
X123656845Y-58206799D01*
X123577869Y-58083910D01*
X123467470Y-57988248D01*
X123334592Y-57927565D01*
X123329600Y-57926847D01*
X124017159Y-57239288D01*
X124017158Y-57239286D01*
X123980197Y-57210518D01*
X123980191Y-57210513D01*
X123770349Y-57096953D01*
X123770339Y-57096948D01*
X123544664Y-57019474D01*
X123309304Y-56980200D01*
X123070696Y-56980200D01*
X122835335Y-57019474D01*
X122609660Y-57096948D01*
X122609650Y-57096953D01*
X122399807Y-57210514D01*
X122399802Y-57210517D01*
X122362840Y-57239286D01*
X122362840Y-57239287D01*
X123050400Y-57926847D01*
X123045408Y-57927565D01*
X122912530Y-57988248D01*
X122802131Y-58083910D01*
X122723155Y-58206799D01*
X122700478Y-58284029D01*
X122010057Y-57593609D01*
X121997634Y-57594897D01*
X121970659Y-57617919D01*
X121901428Y-57627341D01*
X121838093Y-57597839D01*
X121834871Y-57594120D01*
X121829941Y-57593609D01*
X121139521Y-58284029D01*
X121116845Y-58206799D01*
X121037869Y-58083910D01*
X120927470Y-57988248D01*
X120794592Y-57927565D01*
X120789600Y-57926847D01*
X121477159Y-57239288D01*
X121477158Y-57239286D01*
X121440197Y-57210518D01*
X121440191Y-57210513D01*
X121230349Y-57096953D01*
X121230339Y-57096948D01*
X121004664Y-57019474D01*
X120769304Y-56980200D01*
X120530696Y-56980200D01*
X120295335Y-57019474D01*
X120069660Y-57096948D01*
X120069650Y-57096953D01*
X119859807Y-57210514D01*
X119859802Y-57210517D01*
X119822840Y-57239286D01*
X119822840Y-57239287D01*
X120510400Y-57926847D01*
X120505408Y-57927565D01*
X120372530Y-57988248D01*
X120262131Y-58083910D01*
X120183155Y-58206799D01*
X120160478Y-58284029D01*
X119470057Y-57593609D01*
X119457366Y-57594925D01*
X119430955Y-57617464D01*
X119361723Y-57626885D01*
X119298388Y-57597381D01*
X119276488Y-57572105D01*
X119276191Y-57571650D01*
X119250494Y-57532318D01*
X119088832Y-57356705D01*
X118900469Y-57210097D01*
X118782203Y-57146094D01*
X118690546Y-57096491D01*
X118690541Y-57096489D01*
X118464786Y-57018988D01*
X118307826Y-56992796D01*
X118229347Y-56979700D01*
X117990653Y-56979700D01*
X117931793Y-56989522D01*
X117755213Y-57018988D01*
X117529458Y-57096489D01*
X117529453Y-57096491D01*
X117319529Y-57210098D01*
X117164069Y-57331097D01*
X117131168Y-57356705D01*
X117115900Y-57373290D01*
X116969508Y-57532315D01*
X116969506Y-57532317D01*
X116969506Y-57532318D01*
X116945100Y-57569675D01*
X116943808Y-57571652D01*
X116890661Y-57617008D01*
X116821430Y-57626431D01*
X116758094Y-57596928D01*
X116736192Y-57571652D01*
X116736191Y-57571650D01*
X116710494Y-57532318D01*
X116548832Y-57356705D01*
X116360469Y-57210097D01*
X116242203Y-57146094D01*
X116150546Y-57096491D01*
X116150541Y-57096489D01*
X115924786Y-57018988D01*
X115767826Y-56992796D01*
X115689347Y-56979700D01*
X115450653Y-56979700D01*
X115391793Y-56989522D01*
X115215213Y-57018988D01*
X114989458Y-57096489D01*
X114989453Y-57096491D01*
X114779529Y-57210098D01*
X114624069Y-57331097D01*
X114591168Y-57356705D01*
X114575900Y-57373290D01*
X114429508Y-57532315D01*
X114429506Y-57532317D01*
X114429506Y-57532318D01*
X114405100Y-57569675D01*
X114403808Y-57571652D01*
X114350661Y-57617008D01*
X114281430Y-57626431D01*
X114218094Y-57596928D01*
X114196192Y-57571652D01*
X114196191Y-57571650D01*
X114170494Y-57532318D01*
X114008832Y-57356705D01*
X113820469Y-57210097D01*
X113702203Y-57146094D01*
X113610546Y-57096491D01*
X113610541Y-57096489D01*
X113384786Y-57018988D01*
X113227826Y-56992796D01*
X113149347Y-56979700D01*
X112910653Y-56979700D01*
X112851793Y-56989522D01*
X112675213Y-57018988D01*
X112449458Y-57096489D01*
X112449453Y-57096491D01*
X112239529Y-57210098D01*
X112051167Y-57356705D01*
X112051165Y-57356707D01*
X111889508Y-57532315D01*
X111889506Y-57532317D01*
X111889506Y-57532318D01*
X111865100Y-57569675D01*
X111863808Y-57571652D01*
X111810661Y-57617008D01*
X111741430Y-57626431D01*
X111678094Y-57596928D01*
X111656191Y-57571650D01*
X111641131Y-57548599D01*
X111630494Y-57532318D01*
X111468832Y-57356705D01*
X111280469Y-57210097D01*
X111162203Y-57146094D01*
X111070546Y-57096491D01*
X111070541Y-57096489D01*
X110844786Y-57018988D01*
X110687826Y-56992796D01*
X110609347Y-56979700D01*
X110370653Y-56979700D01*
X110311793Y-56989522D01*
X110135213Y-57018988D01*
X109909458Y-57096489D01*
X109909453Y-57096491D01*
X109699529Y-57210098D01*
X109544069Y-57331097D01*
X109511168Y-57356705D01*
X109500872Y-57367889D01*
X109349506Y-57532317D01*
X109218951Y-57732147D01*
X109123070Y-57950732D01*
X109064475Y-58182118D01*
X109064473Y-58182130D01*
X109044764Y-58419994D01*
X109044764Y-58420005D01*
X109064473Y-58657869D01*
X109064475Y-58657881D01*
X109123070Y-58889267D01*
X109214555Y-59097830D01*
X109218953Y-59107856D01*
X109309461Y-59246389D01*
X109349506Y-59307682D01*
X109353219Y-59311715D01*
X109384142Y-59374369D01*
X109376284Y-59443795D01*
X109332138Y-59497952D01*
X109265721Y-59519644D01*
X109261991Y-59519700D01*
X109100653Y-59519700D01*
X109041793Y-59529522D01*
X108865213Y-59558988D01*
X108639458Y-59636489D01*
X108639453Y-59636491D01*
X108429529Y-59750098D01*
X108241169Y-59896704D01*
X108079506Y-60072317D01*
X107948951Y-60272147D01*
X107853070Y-60490732D01*
X107794475Y-60722118D01*
X107794473Y-60722130D01*
X107774764Y-60959994D01*
X107774764Y-60960005D01*
X107794473Y-61197869D01*
X107794475Y-61197881D01*
X107853070Y-61429267D01*
X107937532Y-61621819D01*
X107948953Y-61647856D01*
X108079506Y-61847682D01*
X108241168Y-62023295D01*
X108241171Y-62023297D01*
X108241174Y-62023300D01*
X108381020Y-62132147D01*
X108421833Y-62188857D01*
X108425508Y-62258630D01*
X108390876Y-62319313D01*
X108381020Y-62327853D01*
X108241174Y-62436699D01*
X108241171Y-62436702D01*
X108079506Y-62612317D01*
X107948951Y-62812147D01*
X107853070Y-63030732D01*
X107794475Y-63262118D01*
X107794473Y-63262130D01*
X107774764Y-63499994D01*
X107774764Y-63500005D01*
X107794473Y-63737869D01*
X107794475Y-63737881D01*
X107853070Y-63969267D01*
X107948846Y-64187613D01*
X107948953Y-64187856D01*
X108079506Y-64387682D01*
X108241168Y-64563295D01*
X108381021Y-64672146D01*
X108421834Y-64728857D01*
X108425509Y-64798630D01*
X108390878Y-64859313D01*
X108381021Y-64867854D01*
X108241169Y-64976704D01*
X108079506Y-65152317D01*
X107948951Y-65352147D01*
X107853070Y-65570732D01*
X107794475Y-65802118D01*
X107794473Y-65802130D01*
X107774764Y-66039994D01*
X107774764Y-66040005D01*
X107794473Y-66277869D01*
X107794475Y-66277881D01*
X107853070Y-66509267D01*
X107948951Y-66727852D01*
X107948953Y-66727856D01*
X108079506Y-66927682D01*
X108241168Y-67103295D01*
X108381022Y-67212147D01*
X108381427Y-67212462D01*
X108422240Y-67269173D01*
X108425915Y-67338946D01*
X108393006Y-67396610D01*
X108392840Y-67399287D01*
X109080400Y-68086847D01*
X109075408Y-68087565D01*
X108942530Y-68148248D01*
X108832131Y-68243910D01*
X108753155Y-68366799D01*
X108730478Y-68444030D01*
X108040056Y-67753609D01*
X107949392Y-67892382D01*
X107853545Y-68110895D01*
X107794969Y-68342203D01*
X107794967Y-68342211D01*
X107775265Y-68579993D01*
X107775265Y-68580006D01*
X107794967Y-68817788D01*
X107794969Y-68817796D01*
X107853545Y-69049104D01*
X107949391Y-69267614D01*
X108040057Y-69406389D01*
X108730477Y-68715968D01*
X108753155Y-68793201D01*
X108832131Y-68916090D01*
X108942530Y-69011752D01*
X109075408Y-69072435D01*
X109080399Y-69073152D01*
X108392839Y-69760711D01*
X108393313Y-69768345D01*
X108422242Y-69808543D01*
X108425914Y-69878316D01*
X108391281Y-69938999D01*
X108381428Y-69947536D01*
X108241170Y-70056703D01*
X108079506Y-70232317D01*
X107948951Y-70432147D01*
X107853070Y-70650732D01*
X107794475Y-70882118D01*
X107794473Y-70882130D01*
X107774764Y-71119994D01*
X107774764Y-71120005D01*
X107794473Y-71357869D01*
X107794475Y-71357881D01*
X107853070Y-71589267D01*
X107942758Y-71793733D01*
X107948953Y-71807856D01*
X108079506Y-72007682D01*
X108241168Y-72183295D01*
X108381020Y-72292146D01*
X108421833Y-72348856D01*
X108425508Y-72418629D01*
X108390877Y-72479312D01*
X108381021Y-72487852D01*
X108241170Y-72596703D01*
X108079506Y-72772317D01*
X107948951Y-72972147D01*
X107853070Y-73190732D01*
X107794475Y-73422118D01*
X107794473Y-73422130D01*
X107774764Y-73659994D01*
X107774764Y-73660005D01*
X107794473Y-73897869D01*
X107794475Y-73897881D01*
X107853070Y-74129267D01*
X107948951Y-74347852D01*
X107948953Y-74347856D01*
X108079506Y-74547682D01*
X108241168Y-74723295D01*
X108241171Y-74723297D01*
X108241174Y-74723300D01*
X108381020Y-74832147D01*
X108421833Y-74888857D01*
X108425508Y-74958630D01*
X108390876Y-75019313D01*
X108381020Y-75027853D01*
X108241174Y-75136699D01*
X108241171Y-75136702D01*
X108079506Y-75312317D01*
X107948951Y-75512147D01*
X107853070Y-75730732D01*
X107794475Y-75962118D01*
X107794473Y-75962130D01*
X107774764Y-76199994D01*
X107774764Y-76200005D01*
X107794473Y-76437869D01*
X107794475Y-76437881D01*
X107853070Y-76669267D01*
X107948951Y-76887852D01*
X107948953Y-76887856D01*
X108079506Y-77087682D01*
X108241168Y-77263295D01*
X108241171Y-77263297D01*
X108241174Y-77263300D01*
X108381020Y-77372147D01*
X108421833Y-77428857D01*
X108425508Y-77498630D01*
X108390876Y-77559313D01*
X108381020Y-77567853D01*
X108241174Y-77676699D01*
X108241171Y-77676702D01*
X108241168Y-77676704D01*
X108241168Y-77676705D01*
X108221868Y-77697671D01*
X108079506Y-77852317D01*
X107948951Y-78052147D01*
X107853070Y-78270732D01*
X107794475Y-78502118D01*
X107794473Y-78502130D01*
X107774764Y-78739994D01*
X107774764Y-78740005D01*
X107794473Y-78977869D01*
X107794475Y-78977881D01*
X107853070Y-79209267D01*
X107933546Y-79392732D01*
X107948953Y-79427856D01*
X108079506Y-79627682D01*
X108241168Y-79803295D01*
X108241171Y-79803297D01*
X108241174Y-79803300D01*
X108381020Y-79912147D01*
X108421833Y-79968857D01*
X108425508Y-80038630D01*
X108390876Y-80099313D01*
X108381020Y-80107853D01*
X108241174Y-80216699D01*
X108241171Y-80216702D01*
X108079506Y-80392317D01*
X107948951Y-80592147D01*
X107853070Y-80810732D01*
X107794475Y-81042118D01*
X107794473Y-81042130D01*
X107774764Y-81279994D01*
X107774764Y-81280005D01*
X107794473Y-81517869D01*
X107794475Y-81517881D01*
X107853070Y-81749267D01*
X107933546Y-81932732D01*
X107948953Y-81967856D01*
X108079506Y-82167682D01*
X108241168Y-82343295D01*
X108241171Y-82343297D01*
X108241174Y-82343300D01*
X108381020Y-82452147D01*
X108421833Y-82508857D01*
X108425508Y-82578630D01*
X108390876Y-82639313D01*
X108381020Y-82647853D01*
X108241174Y-82756699D01*
X108241171Y-82756702D01*
X108079506Y-82932317D01*
X107948951Y-83132147D01*
X107853070Y-83350732D01*
X107794475Y-83582118D01*
X107794473Y-83582130D01*
X107774764Y-83819994D01*
X107774764Y-83820005D01*
X107794473Y-84057869D01*
X107794475Y-84057881D01*
X107853070Y-84289267D01*
X107933546Y-84472732D01*
X107948953Y-84507856D01*
X108079506Y-84707682D01*
X108241168Y-84883295D01*
X108241171Y-84883297D01*
X108241174Y-84883300D01*
X108381020Y-84992147D01*
X108421833Y-85048857D01*
X108425508Y-85118630D01*
X108390876Y-85179313D01*
X108381020Y-85187853D01*
X108241174Y-85296699D01*
X108241171Y-85296702D01*
X108079506Y-85472317D01*
X107948951Y-85672147D01*
X107853070Y-85890732D01*
X107794475Y-86122118D01*
X107794473Y-86122130D01*
X107774764Y-86359994D01*
X107774764Y-86360005D01*
X107794473Y-86597869D01*
X107794475Y-86597881D01*
X107853070Y-86829267D01*
X107933546Y-87012732D01*
X107948953Y-87047856D01*
X108079506Y-87247682D01*
X108241168Y-87423295D01*
X108241171Y-87423297D01*
X108241174Y-87423300D01*
X108381020Y-87532147D01*
X108421833Y-87588857D01*
X108425508Y-87658630D01*
X108390876Y-87719313D01*
X108381020Y-87727853D01*
X108241174Y-87836699D01*
X108241171Y-87836702D01*
X108079506Y-88012317D01*
X107948951Y-88212147D01*
X107853070Y-88430732D01*
X107794475Y-88662118D01*
X107794473Y-88662130D01*
X107774764Y-88899994D01*
X107774764Y-88900005D01*
X107794473Y-89137869D01*
X107794475Y-89137881D01*
X107853070Y-89369267D01*
X107933546Y-89552732D01*
X107948953Y-89587856D01*
X108079506Y-89787682D01*
X108241168Y-89963295D01*
X108429531Y-90109903D01*
X108639455Y-90223509D01*
X108865216Y-90301012D01*
X109100653Y-90340300D01*
X109100654Y-90340300D01*
X109339346Y-90340300D01*
X109339347Y-90340300D01*
X109574784Y-90301012D01*
X109800545Y-90223509D01*
X110010469Y-90109903D01*
X110198832Y-89963295D01*
X110360494Y-89787682D01*
X110491047Y-89587856D01*
X110586929Y-89369267D01*
X110645525Y-89137878D01*
X110645532Y-89137796D01*
X110665236Y-88900005D01*
X110665236Y-88899994D01*
X110645526Y-88662130D01*
X110645524Y-88662118D01*
X110586929Y-88430732D01*
X110491048Y-88212147D01*
X110491047Y-88212144D01*
X110360494Y-88012318D01*
X110198832Y-87836705D01*
X110058978Y-87727853D01*
X110018166Y-87671143D01*
X110014491Y-87601370D01*
X110049122Y-87540687D01*
X110058979Y-87532146D01*
X110198832Y-87423295D01*
X110360494Y-87247682D01*
X110491047Y-87047856D01*
X110586929Y-86829267D01*
X110645525Y-86597878D01*
X110645526Y-86597869D01*
X110665236Y-86360005D01*
X110665236Y-86359994D01*
X110645526Y-86122130D01*
X110645524Y-86122118D01*
X110586929Y-85890732D01*
X110491048Y-85672147D01*
X110491047Y-85672144D01*
X110360494Y-85472318D01*
X110198832Y-85296705D01*
X110058978Y-85187853D01*
X110018166Y-85131143D01*
X110014491Y-85061370D01*
X110049122Y-85000687D01*
X110058979Y-84992146D01*
X110198832Y-84883295D01*
X110360494Y-84707682D01*
X110491047Y-84507856D01*
X110586929Y-84289267D01*
X110645525Y-84057878D01*
X110645526Y-84057869D01*
X110665236Y-83820005D01*
X110665236Y-83819994D01*
X110645526Y-83582130D01*
X110645524Y-83582118D01*
X110586929Y-83350732D01*
X110491048Y-83132147D01*
X110491047Y-83132144D01*
X110360494Y-82932318D01*
X110198832Y-82756705D01*
X110058978Y-82647853D01*
X110018166Y-82591143D01*
X110014491Y-82521370D01*
X110049122Y-82460687D01*
X110058979Y-82452146D01*
X110198832Y-82343295D01*
X110360494Y-82167682D01*
X110491047Y-81967856D01*
X110586929Y-81749267D01*
X110645525Y-81517878D01*
X110645526Y-81517869D01*
X110665236Y-81280005D01*
X110665236Y-81279994D01*
X110645526Y-81042130D01*
X110645524Y-81042118D01*
X110586929Y-80810732D01*
X110491048Y-80592147D01*
X110491047Y-80592144D01*
X110360494Y-80392318D01*
X110198832Y-80216705D01*
X110058978Y-80107853D01*
X110018166Y-80051143D01*
X110014491Y-79981370D01*
X110049122Y-79920687D01*
X110058979Y-79912146D01*
X110198832Y-79803295D01*
X110360494Y-79627682D01*
X110491047Y-79427856D01*
X110586929Y-79209267D01*
X110645525Y-78977878D01*
X110645526Y-78977869D01*
X110665236Y-78740005D01*
X110665236Y-78739994D01*
X110645526Y-78502130D01*
X110645524Y-78502118D01*
X110586929Y-78270732D01*
X110491048Y-78052147D01*
X110491047Y-78052144D01*
X110360494Y-77852318D01*
X110198832Y-77676705D01*
X110058978Y-77567853D01*
X110018166Y-77511143D01*
X110014491Y-77441370D01*
X110049122Y-77380687D01*
X110058979Y-77372146D01*
X110198832Y-77263295D01*
X110360494Y-77087682D01*
X110491047Y-76887856D01*
X110586929Y-76669267D01*
X110645525Y-76437878D01*
X110665236Y-76200000D01*
X110645525Y-75962122D01*
X110586929Y-75730733D01*
X110491047Y-75512144D01*
X110360494Y-75312318D01*
X110198832Y-75136705D01*
X110058978Y-75027853D01*
X110018166Y-74971143D01*
X110014491Y-74901370D01*
X110049122Y-74840687D01*
X110058979Y-74832146D01*
X110198832Y-74723295D01*
X110360494Y-74547682D01*
X110491047Y-74347856D01*
X110586929Y-74129267D01*
X110645525Y-73897878D01*
X110665236Y-73660000D01*
X110659146Y-73586510D01*
X110645526Y-73422130D01*
X110645524Y-73422118D01*
X110586929Y-73190732D01*
X110491048Y-72972147D01*
X110491047Y-72972144D01*
X110360494Y-72772318D01*
X110198832Y-72596705D01*
X110058978Y-72487853D01*
X110018166Y-72431143D01*
X110014491Y-72361370D01*
X110049122Y-72300687D01*
X110058979Y-72292146D01*
X110096420Y-72263005D01*
X120093764Y-72263005D01*
X120113473Y-72500869D01*
X120113475Y-72500881D01*
X120172070Y-72732267D01*
X120267951Y-72950852D01*
X120267953Y-72950856D01*
X120398506Y-73150682D01*
X120560168Y-73326295D01*
X120748531Y-73472903D01*
X120958455Y-73586509D01*
X121184216Y-73664012D01*
X121419653Y-73703300D01*
X121419654Y-73703300D01*
X121658346Y-73703300D01*
X121658347Y-73703300D01*
X121893784Y-73664012D01*
X122119545Y-73586509D01*
X122329469Y-73472903D01*
X122517832Y-73326295D01*
X122679494Y-73150682D01*
X122810047Y-72950856D01*
X122905929Y-72732267D01*
X122964525Y-72500878D01*
X122965604Y-72487854D01*
X122984236Y-72263005D01*
X122984236Y-72262994D01*
X122964526Y-72025130D01*
X122964524Y-72025118D01*
X122905929Y-71793732D01*
X122810048Y-71575147D01*
X122810047Y-71575144D01*
X122679494Y-71375318D01*
X122517832Y-71199705D01*
X122377978Y-71090853D01*
X122337166Y-71034143D01*
X122333491Y-70964370D01*
X122368122Y-70903687D01*
X122377979Y-70895146D01*
X122517832Y-70786295D01*
X122679494Y-70610682D01*
X122810047Y-70410856D01*
X122905929Y-70192267D01*
X122964525Y-69960878D01*
X122964526Y-69960869D01*
X122984236Y-69723005D01*
X122984236Y-69722994D01*
X122964526Y-69485130D01*
X122964524Y-69485118D01*
X122905929Y-69253732D01*
X122810048Y-69035147D01*
X122810047Y-69035144D01*
X122679494Y-68835318D01*
X122517832Y-68659705D01*
X122329469Y-68513097D01*
X122233152Y-68460972D01*
X122119546Y-68399491D01*
X122119541Y-68399489D01*
X121893786Y-68321988D01*
X121736826Y-68295795D01*
X121658347Y-68282700D01*
X121419653Y-68282700D01*
X121360793Y-68292521D01*
X121184213Y-68321988D01*
X120958458Y-68399489D01*
X120958453Y-68399491D01*
X120748529Y-68513098D01*
X120560169Y-68659704D01*
X120398506Y-68835317D01*
X120267951Y-69035147D01*
X120172070Y-69253732D01*
X120113475Y-69485118D01*
X120113473Y-69485130D01*
X120093764Y-69722994D01*
X120093764Y-69723005D01*
X120113473Y-69960869D01*
X120113475Y-69960881D01*
X120172070Y-70192267D01*
X120267951Y-70410852D01*
X120267953Y-70410856D01*
X120398506Y-70610682D01*
X120560168Y-70786295D01*
X120560171Y-70786297D01*
X120560174Y-70786300D01*
X120700020Y-70895147D01*
X120740833Y-70951857D01*
X120744508Y-71021630D01*
X120709876Y-71082313D01*
X120700020Y-71090853D01*
X120560174Y-71199699D01*
X120560171Y-71199702D01*
X120398506Y-71375317D01*
X120267951Y-71575147D01*
X120172070Y-71793732D01*
X120113475Y-72025118D01*
X120113473Y-72025130D01*
X120093764Y-72262994D01*
X120093764Y-72263005D01*
X110096420Y-72263005D01*
X110198832Y-72183295D01*
X110360494Y-72007682D01*
X110491047Y-71807856D01*
X110586929Y-71589267D01*
X110645525Y-71357878D01*
X110645526Y-71357869D01*
X110665236Y-71120005D01*
X110665236Y-71119994D01*
X110645526Y-70882130D01*
X110645524Y-70882118D01*
X110586929Y-70650732D01*
X110491048Y-70432147D01*
X110491047Y-70432144D01*
X110360494Y-70232318D01*
X110198832Y-70056705D01*
X110198827Y-70056701D01*
X110198825Y-70056699D01*
X110058571Y-69947535D01*
X110017758Y-69890825D01*
X110014083Y-69821052D01*
X110046992Y-69763387D01*
X110047158Y-69760711D01*
X109359599Y-69073152D01*
X109364592Y-69072435D01*
X109497470Y-69011752D01*
X109607869Y-68916090D01*
X109686845Y-68793201D01*
X109709521Y-68715969D01*
X110399941Y-69406389D01*
X110490604Y-69267621D01*
X110490609Y-69267613D01*
X110586454Y-69049104D01*
X110645030Y-68817796D01*
X110645032Y-68817788D01*
X110664734Y-68580006D01*
X110664734Y-68579993D01*
X110645032Y-68342211D01*
X110645030Y-68342203D01*
X110586454Y-68110895D01*
X110490606Y-67892380D01*
X110399941Y-67753609D01*
X109709521Y-68444029D01*
X109686845Y-68366799D01*
X109607869Y-68243910D01*
X109497470Y-68148248D01*
X109364592Y-68087565D01*
X109359600Y-68086847D01*
X110047159Y-67399288D01*
X110046685Y-67391653D01*
X110017757Y-67351456D01*
X110014085Y-67281683D01*
X110048718Y-67221000D01*
X110058559Y-67212473D01*
X110198832Y-67103295D01*
X110360494Y-66927682D01*
X110491047Y-66727856D01*
X110586929Y-66509267D01*
X110645525Y-66277878D01*
X110659674Y-66107123D01*
X110665236Y-66040005D01*
X110665236Y-66039994D01*
X110645526Y-65802130D01*
X110645524Y-65802118D01*
X110586929Y-65570732D01*
X110491048Y-65352147D01*
X110491047Y-65352144D01*
X110360494Y-65152318D01*
X110198832Y-64976705D01*
X110159697Y-64946245D01*
X110058978Y-64867852D01*
X110018166Y-64811142D01*
X110014491Y-64741369D01*
X110049123Y-64680686D01*
X110058963Y-64672158D01*
X110198832Y-64563295D01*
X110360494Y-64387682D01*
X110491047Y-64187856D01*
X110586929Y-63969267D01*
X110645525Y-63737878D01*
X110645532Y-63737796D01*
X110665236Y-63500005D01*
X110665236Y-63499994D01*
X110645526Y-63262130D01*
X110645524Y-63262118D01*
X110586929Y-63030732D01*
X110491151Y-62812382D01*
X110491047Y-62812144D01*
X110360494Y-62612318D01*
X110198832Y-62436705D01*
X110058976Y-62327851D01*
X110018165Y-62271144D01*
X110014490Y-62201371D01*
X110049121Y-62140687D01*
X110058965Y-62132157D01*
X110198832Y-62023295D01*
X110360494Y-61847682D01*
X110491047Y-61647856D01*
X110586929Y-61429267D01*
X110645525Y-61197878D01*
X110657971Y-61047680D01*
X110665236Y-60960005D01*
X110665236Y-60959994D01*
X110645526Y-60722130D01*
X110645524Y-60722118D01*
X110586929Y-60490732D01*
X110502468Y-60298181D01*
X110491047Y-60272144D01*
X110360494Y-60072318D01*
X110356780Y-60068284D01*
X110325858Y-60005631D01*
X110333716Y-59936205D01*
X110377862Y-59882048D01*
X110444279Y-59860356D01*
X110448009Y-59860300D01*
X110609346Y-59860300D01*
X110609347Y-59860300D01*
X110844784Y-59821012D01*
X111070545Y-59743509D01*
X111280469Y-59629903D01*
X111468832Y-59483295D01*
X111630494Y-59307682D01*
X111656191Y-59268348D01*
X111709336Y-59222992D01*
X111778567Y-59213568D01*
X111841903Y-59243069D01*
X111863803Y-59268341D01*
X111889506Y-59307682D01*
X111895780Y-59314497D01*
X112017950Y-59447211D01*
X112051168Y-59483295D01*
X112239531Y-59629903D01*
X112449455Y-59743509D01*
X112675216Y-59821012D01*
X112910653Y-59860300D01*
X112910654Y-59860300D01*
X113149346Y-59860300D01*
X113149347Y-59860300D01*
X113384784Y-59821012D01*
X113610545Y-59743509D01*
X113820469Y-59629903D01*
X114008832Y-59483295D01*
X114170494Y-59307682D01*
X114196190Y-59268350D01*
X114249337Y-59222993D01*
X114318568Y-59213569D01*
X114381904Y-59243071D01*
X114403809Y-59268350D01*
X114429506Y-59307682D01*
X114591168Y-59483295D01*
X114779531Y-59629903D01*
X114989455Y-59743509D01*
X115215216Y-59821012D01*
X115450653Y-59860300D01*
X115450654Y-59860300D01*
X115689346Y-59860300D01*
X115689347Y-59860300D01*
X115924784Y-59821012D01*
X116150545Y-59743509D01*
X116360469Y-59629903D01*
X116548832Y-59483295D01*
X116710494Y-59307682D01*
X116736190Y-59268350D01*
X116789337Y-59222993D01*
X116858568Y-59213569D01*
X116921904Y-59243071D01*
X116943809Y-59268350D01*
X116969506Y-59307682D01*
X117131168Y-59483295D01*
X117319531Y-59629903D01*
X117529455Y-59743509D01*
X117755216Y-59821012D01*
X117990653Y-59860300D01*
X117990654Y-59860300D01*
X118229346Y-59860300D01*
X118229347Y-59860300D01*
X118464784Y-59821012D01*
X118690545Y-59743509D01*
X118900469Y-59629903D01*
X119088832Y-59483295D01*
X119250494Y-59307682D01*
X119276489Y-59267892D01*
X119329634Y-59222536D01*
X119398865Y-59213112D01*
X119462201Y-59242613D01*
X119465020Y-59245867D01*
X119470057Y-59246389D01*
X120160477Y-58555969D01*
X120183155Y-58633201D01*
X120262131Y-58756090D01*
X120372530Y-58851752D01*
X120505408Y-58912435D01*
X120510399Y-58913152D01*
X119822839Y-59600711D01*
X119822840Y-59600712D01*
X119859802Y-59629481D01*
X119859808Y-59629486D01*
X120069650Y-59743046D01*
X120069660Y-59743051D01*
X120295335Y-59820525D01*
X120530696Y-59859800D01*
X120769304Y-59859800D01*
X121004664Y-59820525D01*
X121230339Y-59743051D01*
X121230344Y-59743049D01*
X121440197Y-59629481D01*
X121440200Y-59629480D01*
X121477158Y-59600712D01*
X121477158Y-59600711D01*
X120789599Y-58913152D01*
X120794592Y-58912435D01*
X120927470Y-58851752D01*
X121037869Y-58756090D01*
X121116845Y-58633201D01*
X121139522Y-58555968D01*
X121829941Y-59246389D01*
X121842361Y-59245101D01*
X121869337Y-59222080D01*
X121938568Y-59212656D01*
X122001904Y-59242158D01*
X122005127Y-59245878D01*
X122010057Y-59246389D01*
X122700477Y-58555969D01*
X122723155Y-58633201D01*
X122802131Y-58756090D01*
X122912530Y-58851752D01*
X123045408Y-58912435D01*
X123050399Y-58913152D01*
X122362839Y-59600711D01*
X122362840Y-59600712D01*
X122399802Y-59629481D01*
X122399808Y-59629486D01*
X122609650Y-59743046D01*
X122609660Y-59743051D01*
X122835335Y-59820525D01*
X123070696Y-59859800D01*
X123232451Y-59859800D01*
X123299490Y-59879485D01*
X123345245Y-59932289D01*
X123355189Y-60001447D01*
X123326164Y-60065003D01*
X123323681Y-60067783D01*
X123319506Y-60072317D01*
X123188951Y-60272147D01*
X123093070Y-60490732D01*
X123034475Y-60722118D01*
X123034473Y-60722130D01*
X123014764Y-60959994D01*
X123014764Y-60960005D01*
X123034473Y-61197869D01*
X123034475Y-61197881D01*
X123093070Y-61429267D01*
X123177532Y-61621819D01*
X123188953Y-61647856D01*
X123319506Y-61847682D01*
X123481168Y-62023295D01*
X123621021Y-62132146D01*
X123621427Y-62132462D01*
X123662240Y-62189173D01*
X123665915Y-62258946D01*
X123633006Y-62316610D01*
X123632840Y-62319287D01*
X124320400Y-63006847D01*
X124315408Y-63007565D01*
X124182530Y-63068248D01*
X124072131Y-63163910D01*
X123993155Y-63286799D01*
X123970478Y-63364030D01*
X123280057Y-62673609D01*
X123189392Y-62812382D01*
X123093545Y-63030895D01*
X123034969Y-63262203D01*
X123034967Y-63262211D01*
X123015265Y-63499993D01*
X123015265Y-63500006D01*
X123034967Y-63737788D01*
X123034969Y-63737796D01*
X123093545Y-63969104D01*
X123189391Y-64187614D01*
X123280057Y-64326389D01*
X123970477Y-63635969D01*
X123993155Y-63713201D01*
X124072131Y-63836090D01*
X124182530Y-63931752D01*
X124315408Y-63992435D01*
X124320399Y-63993152D01*
X123632839Y-64680711D01*
X123633313Y-64688345D01*
X123662242Y-64728543D01*
X123665914Y-64798316D01*
X123631281Y-64858999D01*
X123621428Y-64867536D01*
X123481170Y-64976703D01*
X123319506Y-65152317D01*
X123188951Y-65352147D01*
X123093070Y-65570732D01*
X123034475Y-65802118D01*
X123034473Y-65802130D01*
X123014764Y-66039994D01*
X123014764Y-66040005D01*
X123034473Y-66277869D01*
X123034475Y-66277881D01*
X123093070Y-66509267D01*
X123188951Y-66727852D01*
X123188953Y-66727856D01*
X123319506Y-66927682D01*
X123481168Y-67103295D01*
X123481171Y-67103297D01*
X123481174Y-67103300D01*
X123621020Y-67212147D01*
X123661833Y-67268857D01*
X123665508Y-67338630D01*
X123630876Y-67399313D01*
X123621020Y-67407853D01*
X123481174Y-67516699D01*
X123481171Y-67516702D01*
X123319506Y-67692317D01*
X123188951Y-67892147D01*
X123093070Y-68110732D01*
X123034475Y-68342118D01*
X123034473Y-68342130D01*
X123014764Y-68579994D01*
X123014764Y-68580005D01*
X123034473Y-68817869D01*
X123034475Y-68817881D01*
X123093070Y-69049267D01*
X123182758Y-69253733D01*
X123188953Y-69267856D01*
X123319506Y-69467682D01*
X123481168Y-69643295D01*
X123481171Y-69643297D01*
X123481174Y-69643300D01*
X123621020Y-69752147D01*
X123661833Y-69808857D01*
X123665508Y-69878630D01*
X123630876Y-69939313D01*
X123621020Y-69947853D01*
X123481174Y-70056699D01*
X123481171Y-70056702D01*
X123319506Y-70232317D01*
X123188951Y-70432147D01*
X123093070Y-70650732D01*
X123034475Y-70882118D01*
X123034473Y-70882130D01*
X123014764Y-71119994D01*
X123014764Y-71120005D01*
X123034473Y-71357869D01*
X123034475Y-71357881D01*
X123093070Y-71589267D01*
X123182758Y-71793733D01*
X123188953Y-71807856D01*
X123319506Y-72007682D01*
X123481168Y-72183295D01*
X123481171Y-72183297D01*
X123481174Y-72183300D01*
X123621020Y-72292147D01*
X123661833Y-72348857D01*
X123665508Y-72418630D01*
X123630876Y-72479313D01*
X123621020Y-72487853D01*
X123481174Y-72596699D01*
X123481171Y-72596702D01*
X123319506Y-72772317D01*
X123188951Y-72972147D01*
X123093070Y-73190732D01*
X123034475Y-73422118D01*
X123034473Y-73422130D01*
X123014764Y-73659994D01*
X123014764Y-73660005D01*
X123034473Y-73897869D01*
X123034475Y-73897881D01*
X123093070Y-74129267D01*
X123188951Y-74347852D01*
X123188953Y-74347856D01*
X123319506Y-74547682D01*
X123481168Y-74723295D01*
X123481171Y-74723297D01*
X123481174Y-74723300D01*
X123621020Y-74832147D01*
X123661833Y-74888857D01*
X123665508Y-74958630D01*
X123630876Y-75019313D01*
X123621020Y-75027853D01*
X123481174Y-75136699D01*
X123481171Y-75136702D01*
X123319506Y-75312317D01*
X123188951Y-75512147D01*
X123093070Y-75730732D01*
X123034475Y-75962118D01*
X123034473Y-75962130D01*
X123014764Y-76199994D01*
X123014764Y-76200005D01*
X123034473Y-76437869D01*
X123034475Y-76437881D01*
X123093070Y-76669267D01*
X123188951Y-76887852D01*
X123188953Y-76887856D01*
X123319506Y-77087682D01*
X123481168Y-77263295D01*
X123481171Y-77263297D01*
X123481174Y-77263300D01*
X123621020Y-77372147D01*
X123661833Y-77428857D01*
X123665508Y-77498630D01*
X123630876Y-77559313D01*
X123621020Y-77567853D01*
X123481174Y-77676699D01*
X123481171Y-77676702D01*
X123481168Y-77676704D01*
X123481168Y-77676705D01*
X123461868Y-77697671D01*
X123319506Y-77852317D01*
X123188951Y-78052147D01*
X123093070Y-78270732D01*
X123034475Y-78502118D01*
X123034473Y-78502130D01*
X123014764Y-78739994D01*
X123014764Y-78740005D01*
X123034473Y-78977869D01*
X123034475Y-78977881D01*
X123093070Y-79209267D01*
X123173546Y-79392732D01*
X123188953Y-79427856D01*
X123319506Y-79627682D01*
X123481168Y-79803295D01*
X123481171Y-79803297D01*
X123481174Y-79803300D01*
X123621020Y-79912147D01*
X123661833Y-79968857D01*
X123665508Y-80038630D01*
X123630876Y-80099313D01*
X123621020Y-80107853D01*
X123481174Y-80216699D01*
X123481171Y-80216702D01*
X123319506Y-80392317D01*
X123188951Y-80592147D01*
X123093070Y-80810732D01*
X123034475Y-81042118D01*
X123034473Y-81042130D01*
X123014764Y-81279994D01*
X123014764Y-81280005D01*
X123034473Y-81517869D01*
X123034475Y-81517881D01*
X123093070Y-81749267D01*
X123173546Y-81932732D01*
X123188953Y-81967856D01*
X123319506Y-82167682D01*
X123481168Y-82343295D01*
X123481171Y-82343297D01*
X123481174Y-82343300D01*
X123621020Y-82452147D01*
X123661833Y-82508857D01*
X123665508Y-82578630D01*
X123630876Y-82639313D01*
X123621020Y-82647853D01*
X123481174Y-82756699D01*
X123481171Y-82756702D01*
X123319506Y-82932317D01*
X123188951Y-83132147D01*
X123093070Y-83350732D01*
X123034475Y-83582118D01*
X123034473Y-83582130D01*
X123014764Y-83819994D01*
X123014764Y-83820005D01*
X123034473Y-84057869D01*
X123034475Y-84057881D01*
X123093070Y-84289267D01*
X123173546Y-84472732D01*
X123188953Y-84507856D01*
X123319506Y-84707682D01*
X123481168Y-84883295D01*
X123481171Y-84883297D01*
X123481174Y-84883300D01*
X123621020Y-84992147D01*
X123661833Y-85048857D01*
X123665508Y-85118630D01*
X123630876Y-85179313D01*
X123621020Y-85187853D01*
X123481174Y-85296699D01*
X123481171Y-85296702D01*
X123319506Y-85472317D01*
X123188951Y-85672147D01*
X123093070Y-85890732D01*
X123034475Y-86122118D01*
X123034473Y-86122130D01*
X123014764Y-86359994D01*
X123014764Y-86360005D01*
X123034473Y-86597869D01*
X123034475Y-86597881D01*
X123093070Y-86829267D01*
X123173546Y-87012732D01*
X123188953Y-87047856D01*
X123319506Y-87247682D01*
X123481168Y-87423295D01*
X123621020Y-87532146D01*
X123661833Y-87588856D01*
X123665508Y-87658629D01*
X123630877Y-87719312D01*
X123621021Y-87727852D01*
X123481170Y-87836703D01*
X123319504Y-88012319D01*
X123306507Y-88032213D01*
X123253360Y-88077569D01*
X123184128Y-88086990D01*
X123120793Y-88057487D01*
X123098892Y-88032212D01*
X123085895Y-88012319D01*
X122982455Y-87899953D01*
X122924232Y-87836705D01*
X122735869Y-87690097D01*
X122595930Y-87614365D01*
X122525946Y-87576491D01*
X122525941Y-87576489D01*
X122300186Y-87498988D01*
X122143225Y-87472796D01*
X122064747Y-87459700D01*
X121826053Y-87459700D01*
X121767193Y-87469522D01*
X121590613Y-87498988D01*
X121364858Y-87576489D01*
X121364853Y-87576491D01*
X121154929Y-87690098D01*
X120966569Y-87836704D01*
X120804908Y-88012315D01*
X120779208Y-88051652D01*
X120726061Y-88097008D01*
X120656830Y-88106431D01*
X120593494Y-88076928D01*
X120571592Y-88051652D01*
X120545894Y-88012318D01*
X120384232Y-87836705D01*
X120195869Y-87690097D01*
X120055930Y-87614365D01*
X119985946Y-87576491D01*
X119985941Y-87576489D01*
X119760186Y-87498988D01*
X119603225Y-87472796D01*
X119524747Y-87459700D01*
X119286053Y-87459700D01*
X119227193Y-87469522D01*
X119050613Y-87498988D01*
X118824858Y-87576489D01*
X118824853Y-87576491D01*
X118614929Y-87690098D01*
X118426567Y-87836705D01*
X118426565Y-87836707D01*
X118264908Y-88012315D01*
X118238908Y-88052110D01*
X118185760Y-88097465D01*
X118116529Y-88106886D01*
X118053194Y-88077383D01*
X118050376Y-88074131D01*
X118045341Y-88073609D01*
X117354921Y-88764029D01*
X117332245Y-88686799D01*
X117253269Y-88563910D01*
X117142870Y-88468248D01*
X117009992Y-88407565D01*
X117005000Y-88406847D01*
X117692559Y-87719288D01*
X117692558Y-87719286D01*
X117655597Y-87690518D01*
X117655591Y-87690513D01*
X117445749Y-87576953D01*
X117445739Y-87576948D01*
X117220064Y-87499474D01*
X116984704Y-87460200D01*
X116746096Y-87460200D01*
X116510735Y-87499474D01*
X116285060Y-87576948D01*
X116285050Y-87576953D01*
X116075207Y-87690514D01*
X116075202Y-87690517D01*
X116038240Y-87719286D01*
X116038240Y-87719287D01*
X116725800Y-88406847D01*
X116720808Y-88407565D01*
X116587930Y-88468248D01*
X116477531Y-88563910D01*
X116398555Y-88686799D01*
X116375877Y-88764030D01*
X115685457Y-88073609D01*
X115594792Y-88212382D01*
X115498945Y-88430895D01*
X115440369Y-88662203D01*
X115440367Y-88662211D01*
X115420665Y-88899993D01*
X115420665Y-88900006D01*
X115440367Y-89137788D01*
X115440369Y-89137796D01*
X115498945Y-89369104D01*
X115594791Y-89587614D01*
X115685457Y-89726389D01*
X116375877Y-89035968D01*
X116398555Y-89113201D01*
X116477531Y-89236090D01*
X116587930Y-89331752D01*
X116720808Y-89392435D01*
X116725799Y-89393152D01*
X116038239Y-90080711D01*
X116038240Y-90080712D01*
X116075202Y-90109481D01*
X116075208Y-90109486D01*
X116285050Y-90223046D01*
X116285060Y-90223051D01*
X116510735Y-90300525D01*
X116746096Y-90339800D01*
X116984704Y-90339800D01*
X117220064Y-90300525D01*
X117445739Y-90223051D01*
X117445744Y-90223049D01*
X117655597Y-90109481D01*
X117655600Y-90109480D01*
X117692558Y-90080712D01*
X117692558Y-90080711D01*
X117004999Y-89393152D01*
X117009992Y-89392435D01*
X117142870Y-89331752D01*
X117253269Y-89236090D01*
X117332245Y-89113201D01*
X117354922Y-89035968D01*
X118045341Y-89726389D01*
X118058030Y-89725073D01*
X118084439Y-89702536D01*
X118153670Y-89693112D01*
X118217006Y-89722614D01*
X118238909Y-89747892D01*
X118264902Y-89787678D01*
X118264906Y-89787682D01*
X118426568Y-89963295D01*
X118614931Y-90109903D01*
X118824855Y-90223509D01*
X119050616Y-90301012D01*
X119286053Y-90340300D01*
X119286054Y-90340300D01*
X119524746Y-90340300D01*
X119524747Y-90340300D01*
X119760184Y-90301012D01*
X119985945Y-90223509D01*
X120195869Y-90109903D01*
X120384232Y-89963295D01*
X120545894Y-89787682D01*
X120571590Y-89748350D01*
X120624737Y-89702993D01*
X120693968Y-89693569D01*
X120757304Y-89723071D01*
X120779209Y-89748350D01*
X120804906Y-89787682D01*
X120966568Y-89963295D01*
X121154931Y-90109903D01*
X121364855Y-90223509D01*
X121590616Y-90301012D01*
X121826053Y-90340300D01*
X121826054Y-90340300D01*
X122064746Y-90340300D01*
X122064747Y-90340300D01*
X122300184Y-90301012D01*
X122525945Y-90223509D01*
X122735869Y-90109903D01*
X122924232Y-89963295D01*
X123085894Y-89787682D01*
X123098889Y-89767790D01*
X123152035Y-89722432D01*
X123221266Y-89713007D01*
X123284603Y-89742507D01*
X123306508Y-89767787D01*
X123319504Y-89787679D01*
X123319508Y-89787684D01*
X123422944Y-89900047D01*
X123481168Y-89963295D01*
X123669531Y-90109903D01*
X123879455Y-90223509D01*
X124105216Y-90301012D01*
X124340653Y-90340300D01*
X124340654Y-90340300D01*
X124579346Y-90340300D01*
X124579347Y-90340300D01*
X124814784Y-90301012D01*
X125040545Y-90223509D01*
X125250469Y-90109903D01*
X125438832Y-89963295D01*
X125600494Y-89787682D01*
X125731047Y-89587856D01*
X125826929Y-89369267D01*
X125885525Y-89137878D01*
X125885532Y-89137796D01*
X125905236Y-88900005D01*
X125905236Y-88899994D01*
X125885526Y-88662130D01*
X125885524Y-88662118D01*
X125826929Y-88430732D01*
X125731048Y-88212147D01*
X125731047Y-88212144D01*
X125600494Y-88012318D01*
X125438832Y-87836705D01*
X125298978Y-87727853D01*
X125258166Y-87671143D01*
X125254491Y-87601370D01*
X125289122Y-87540687D01*
X125298979Y-87532146D01*
X125438832Y-87423295D01*
X125600494Y-87247682D01*
X125731047Y-87047856D01*
X125826929Y-86829267D01*
X125885525Y-86597878D01*
X125885526Y-86597869D01*
X125905236Y-86360005D01*
X125905236Y-86359994D01*
X125885526Y-86122130D01*
X125885524Y-86122118D01*
X125826929Y-85890732D01*
X125731048Y-85672147D01*
X125731047Y-85672144D01*
X125600494Y-85472318D01*
X125438832Y-85296705D01*
X125298978Y-85187853D01*
X125258166Y-85131143D01*
X125254491Y-85061370D01*
X125289122Y-85000687D01*
X125298979Y-84992146D01*
X125438832Y-84883295D01*
X125600494Y-84707682D01*
X125731047Y-84507856D01*
X125826929Y-84289267D01*
X125885525Y-84057878D01*
X125885526Y-84057869D01*
X125905236Y-83820005D01*
X125905236Y-83819994D01*
X125885526Y-83582130D01*
X125885524Y-83582118D01*
X125826929Y-83350732D01*
X125731048Y-83132147D01*
X125731047Y-83132144D01*
X125600494Y-82932318D01*
X125438832Y-82756705D01*
X125298978Y-82647853D01*
X125258166Y-82591143D01*
X125254491Y-82521370D01*
X125289122Y-82460687D01*
X125298979Y-82452146D01*
X125438832Y-82343295D01*
X125600494Y-82167682D01*
X125731047Y-81967856D01*
X125826929Y-81749267D01*
X125885525Y-81517878D01*
X125885526Y-81517869D01*
X125905236Y-81280005D01*
X125905236Y-81279994D01*
X125885526Y-81042130D01*
X125885524Y-81042118D01*
X125826929Y-80810732D01*
X125731048Y-80592147D01*
X125731047Y-80592144D01*
X125600494Y-80392318D01*
X125438832Y-80216705D01*
X125298978Y-80107853D01*
X125258166Y-80051143D01*
X125254491Y-79981370D01*
X125289122Y-79920687D01*
X125298979Y-79912146D01*
X125438832Y-79803295D01*
X125600494Y-79627682D01*
X125731047Y-79427856D01*
X125826929Y-79209267D01*
X125885525Y-78977878D01*
X125885526Y-78977869D01*
X125905236Y-78740005D01*
X125905236Y-78739994D01*
X125885526Y-78502130D01*
X125885524Y-78502118D01*
X125826929Y-78270732D01*
X125731048Y-78052147D01*
X125731047Y-78052144D01*
X125600494Y-77852318D01*
X125438832Y-77676705D01*
X125298978Y-77567853D01*
X125258166Y-77511143D01*
X125254491Y-77441370D01*
X125289122Y-77380687D01*
X125298979Y-77372146D01*
X125438832Y-77263295D01*
X125600494Y-77087682D01*
X125731047Y-76887856D01*
X125826929Y-76669267D01*
X125885525Y-76437878D01*
X125905236Y-76200000D01*
X125885525Y-75962122D01*
X125826929Y-75730733D01*
X125731047Y-75512144D01*
X125600494Y-75312318D01*
X125438832Y-75136705D01*
X125298978Y-75027853D01*
X125258166Y-74971143D01*
X125254491Y-74901370D01*
X125289122Y-74840687D01*
X125298979Y-74832146D01*
X125438832Y-74723295D01*
X125600494Y-74547682D01*
X125731047Y-74347856D01*
X125826929Y-74129267D01*
X125885525Y-73897878D01*
X125905236Y-73660000D01*
X125899146Y-73586510D01*
X125885526Y-73422130D01*
X125885524Y-73422118D01*
X125826929Y-73190732D01*
X125731048Y-72972147D01*
X125731047Y-72972144D01*
X125600494Y-72772318D01*
X125438832Y-72596705D01*
X125399697Y-72566245D01*
X125298978Y-72487852D01*
X125258166Y-72431142D01*
X125254491Y-72361369D01*
X125289123Y-72300686D01*
X125298963Y-72292158D01*
X125438832Y-72183295D01*
X125600494Y-72007682D01*
X125731047Y-71807856D01*
X125826929Y-71589267D01*
X125885525Y-71357878D01*
X125885526Y-71357869D01*
X125905236Y-71120005D01*
X125905236Y-71119994D01*
X125885526Y-70882130D01*
X125885524Y-70882118D01*
X125826929Y-70650732D01*
X125731048Y-70432147D01*
X125731047Y-70432144D01*
X125600494Y-70232318D01*
X125438832Y-70056705D01*
X125399697Y-70026245D01*
X125298978Y-69947852D01*
X125258166Y-69891142D01*
X125254491Y-69821369D01*
X125289123Y-69760686D01*
X125298963Y-69752158D01*
X125438832Y-69643295D01*
X125600494Y-69467682D01*
X125731047Y-69267856D01*
X125826929Y-69049267D01*
X125885525Y-68817878D01*
X125885532Y-68817796D01*
X125905236Y-68580005D01*
X125905236Y-68579994D01*
X125885526Y-68342130D01*
X125885524Y-68342118D01*
X125826929Y-68110732D01*
X125731151Y-67892382D01*
X125731047Y-67892144D01*
X125600494Y-67692318D01*
X125438832Y-67516705D01*
X125392059Y-67480300D01*
X125298978Y-67407852D01*
X125258166Y-67351142D01*
X125254491Y-67281369D01*
X125289123Y-67220686D01*
X125298963Y-67212158D01*
X125438832Y-67103295D01*
X125600494Y-66927682D01*
X125731047Y-66727856D01*
X125826929Y-66509267D01*
X125885525Y-66277878D01*
X125899674Y-66107123D01*
X125905236Y-66040005D01*
X125905236Y-66039994D01*
X125885526Y-65802130D01*
X125885524Y-65802118D01*
X125826929Y-65570732D01*
X125731048Y-65352147D01*
X125731047Y-65352144D01*
X125600494Y-65152318D01*
X125438832Y-64976705D01*
X125438827Y-64976701D01*
X125438825Y-64976699D01*
X125298571Y-64867535D01*
X125257758Y-64810825D01*
X125254083Y-64741052D01*
X125286992Y-64683387D01*
X125287158Y-64680711D01*
X124599599Y-63993152D01*
X124604592Y-63992435D01*
X124737470Y-63931752D01*
X124847869Y-63836090D01*
X124926845Y-63713201D01*
X124949521Y-63635969D01*
X125639941Y-64326389D01*
X125730604Y-64187621D01*
X125730609Y-64187613D01*
X125826454Y-63969104D01*
X125885030Y-63737796D01*
X125885032Y-63737788D01*
X125904734Y-63500006D01*
X125904734Y-63499993D01*
X125885032Y-63262211D01*
X125885030Y-63262203D01*
X125826454Y-63030895D01*
X125730606Y-62812380D01*
X125639941Y-62673609D01*
X124949521Y-63364029D01*
X124926845Y-63286799D01*
X124847869Y-63163910D01*
X124737470Y-63068248D01*
X124604592Y-63007565D01*
X124599600Y-63006847D01*
X125287159Y-62319288D01*
X125286685Y-62311653D01*
X125257757Y-62271456D01*
X125254085Y-62201683D01*
X125288718Y-62141000D01*
X125298559Y-62132473D01*
X125438832Y-62023295D01*
X125600494Y-61847682D01*
X125731047Y-61647856D01*
X125731049Y-61647852D01*
X125733852Y-61643562D01*
X125735451Y-61644606D01*
X125778865Y-61600881D01*
X125838681Y-61585500D01*
X126689548Y-61585500D01*
X126756587Y-61605185D01*
X126777229Y-61621818D01*
X131418182Y-66262772D01*
X131451666Y-66324093D01*
X131454500Y-66350451D01*
X131454499Y-77315500D01*
X131434814Y-77382539D01*
X131382010Y-77428294D01*
X131330500Y-77439500D01*
X131232130Y-77439500D01*
X131232123Y-77439501D01*
X131172516Y-77445908D01*
X131037671Y-77496202D01*
X131037664Y-77496206D01*
X130922455Y-77582452D01*
X130922452Y-77582455D01*
X130836206Y-77697664D01*
X130836202Y-77697671D01*
X130785908Y-77832517D01*
X130779501Y-77892116D01*
X130779501Y-77892123D01*
X130779500Y-77892135D01*
X130779500Y-79587870D01*
X130779501Y-79587876D01*
X130785908Y-79647483D01*
X130836202Y-79782328D01*
X130836206Y-79782335D01*
X130922452Y-79897544D01*
X130922455Y-79897547D01*
X131037664Y-79983793D01*
X131037671Y-79983797D01*
X131082618Y-80000561D01*
X131172517Y-80034091D01*
X131207596Y-80037862D01*
X131272144Y-80064599D01*
X131311993Y-80121991D01*
X131314488Y-80191816D01*
X131278836Y-80251905D01*
X131265464Y-80262725D01*
X131240858Y-80279954D01*
X131079954Y-80440858D01*
X130949432Y-80627265D01*
X130949431Y-80627267D01*
X130853261Y-80833502D01*
X130853258Y-80833511D01*
X130794366Y-81053302D01*
X130794364Y-81053313D01*
X130774532Y-81279998D01*
X130774532Y-81280001D01*
X130794364Y-81506686D01*
X130794366Y-81506697D01*
X130853258Y-81726488D01*
X130853261Y-81726497D01*
X130949431Y-81932732D01*
X130949432Y-81932734D01*
X131079954Y-82119141D01*
X131240858Y-82280045D01*
X131240861Y-82280047D01*
X131427266Y-82410568D01*
X131484681Y-82437341D01*
X131485275Y-82437618D01*
X131537714Y-82483791D01*
X131556866Y-82550984D01*
X131536650Y-82617865D01*
X131485275Y-82662382D01*
X131427267Y-82689431D01*
X131427265Y-82689432D01*
X131240858Y-82819954D01*
X131079954Y-82980858D01*
X130949432Y-83167265D01*
X130949431Y-83167267D01*
X130853261Y-83373502D01*
X130853258Y-83373511D01*
X130794366Y-83593302D01*
X130794364Y-83593313D01*
X130774532Y-83819998D01*
X130774532Y-83820001D01*
X130794364Y-84046686D01*
X130794366Y-84046697D01*
X130853258Y-84266488D01*
X130853261Y-84266497D01*
X130949431Y-84472732D01*
X130949432Y-84472734D01*
X131079954Y-84659141D01*
X131240858Y-84820045D01*
X131240861Y-84820047D01*
X131427266Y-84950568D01*
X131485865Y-84977893D01*
X131538305Y-85024065D01*
X131557457Y-85091258D01*
X131537242Y-85158139D01*
X131485867Y-85202657D01*
X131427515Y-85229867D01*
X131241179Y-85360342D01*
X131080342Y-85521179D01*
X130949865Y-85707517D01*
X130853734Y-85913673D01*
X130853730Y-85913682D01*
X130801127Y-86109999D01*
X130801128Y-86110000D01*
X131764314Y-86110000D01*
X131752359Y-86121955D01*
X131694835Y-86234852D01*
X131675014Y-86360000D01*
X131694835Y-86485148D01*
X131752359Y-86598045D01*
X131764314Y-86610000D01*
X130801128Y-86610000D01*
X130853730Y-86806317D01*
X130853734Y-86806326D01*
X130949865Y-87012482D01*
X131080342Y-87198820D01*
X131241179Y-87359657D01*
X131427518Y-87490134D01*
X131427520Y-87490135D01*
X131485865Y-87517342D01*
X131538305Y-87563514D01*
X131557457Y-87630707D01*
X131537242Y-87697589D01*
X131485867Y-87742105D01*
X131427270Y-87769430D01*
X131427264Y-87769433D01*
X131240858Y-87899954D01*
X131079954Y-88060858D01*
X130949432Y-88247265D01*
X130949431Y-88247267D01*
X130853261Y-88453502D01*
X130853258Y-88453511D01*
X130794366Y-88673302D01*
X130794364Y-88673313D01*
X130774532Y-88899998D01*
X130774532Y-88900001D01*
X130794364Y-89126686D01*
X130794366Y-89126697D01*
X130853258Y-89346488D01*
X130853261Y-89346497D01*
X130949431Y-89552732D01*
X130949432Y-89552734D01*
X131079954Y-89739141D01*
X131240858Y-89900045D01*
X131240861Y-89900047D01*
X131427266Y-90030568D01*
X131633504Y-90126739D01*
X131853308Y-90185635D01*
X132015230Y-90199801D01*
X132079998Y-90205468D01*
X132080000Y-90205468D01*
X132080002Y-90205468D01*
X132136673Y-90200509D01*
X132306692Y-90185635D01*
X132526496Y-90126739D01*
X132732734Y-90030568D01*
X132919139Y-89900047D01*
X133080047Y-89739139D01*
X133210568Y-89552734D01*
X133306739Y-89346496D01*
X133365635Y-89126692D01*
X133382634Y-88932384D01*
X133385468Y-88900001D01*
X138394532Y-88900001D01*
X138414364Y-89126686D01*
X138414366Y-89126697D01*
X138473258Y-89346488D01*
X138473261Y-89346497D01*
X138569431Y-89552732D01*
X138569432Y-89552734D01*
X138699954Y-89739141D01*
X138860858Y-89900045D01*
X138860861Y-89900047D01*
X139047266Y-90030568D01*
X139253504Y-90126739D01*
X139473308Y-90185635D01*
X139635230Y-90199801D01*
X139699998Y-90205468D01*
X139700000Y-90205468D01*
X139700002Y-90205468D01*
X139756673Y-90200509D01*
X139926692Y-90185635D01*
X140146496Y-90126739D01*
X140352734Y-90030568D01*
X140539139Y-89900047D01*
X140700047Y-89739139D01*
X140830568Y-89552734D01*
X140926739Y-89346496D01*
X140985635Y-89126692D01*
X141002634Y-88932384D01*
X141005468Y-88900001D01*
X141005468Y-88899998D01*
X140985635Y-88673313D01*
X140985635Y-88673308D01*
X140926739Y-88453504D01*
X140830568Y-88247266D01*
X140700047Y-88060861D01*
X140700045Y-88060858D01*
X140539141Y-87899954D01*
X140352734Y-87769432D01*
X140352728Y-87769429D01*
X140294725Y-87742382D01*
X140242285Y-87696210D01*
X140223133Y-87629017D01*
X140243348Y-87562135D01*
X140294725Y-87517618D01*
X140352734Y-87490568D01*
X140539139Y-87360047D01*
X140700047Y-87199139D01*
X140830568Y-87012734D01*
X140926739Y-86806496D01*
X140985635Y-86586692D01*
X141005468Y-86360000D01*
X141005467Y-86359994D01*
X140985635Y-86133313D01*
X140985635Y-86133308D01*
X140926739Y-85913504D01*
X140830568Y-85707266D01*
X140700047Y-85520861D01*
X140700045Y-85520858D01*
X140539141Y-85359954D01*
X140352734Y-85229432D01*
X140352728Y-85229429D01*
X140294725Y-85202382D01*
X140242285Y-85156210D01*
X140223133Y-85089017D01*
X140243348Y-85022135D01*
X140294725Y-84977618D01*
X140352734Y-84950568D01*
X140539139Y-84820047D01*
X140700047Y-84659139D01*
X140830568Y-84472734D01*
X140926739Y-84266496D01*
X140985635Y-84046692D01*
X141005468Y-83820000D01*
X141005467Y-83819994D01*
X140985635Y-83593313D01*
X140985635Y-83593308D01*
X140926739Y-83373504D01*
X140830568Y-83167266D01*
X140700047Y-82980861D01*
X140700045Y-82980858D01*
X140539141Y-82819954D01*
X140352734Y-82689432D01*
X140352732Y-82689431D01*
X140294725Y-82662382D01*
X140294132Y-82662105D01*
X140241694Y-82615934D01*
X140222542Y-82548740D01*
X140242758Y-82481859D01*
X140294134Y-82437341D01*
X140352484Y-82410132D01*
X140538820Y-82279657D01*
X140699657Y-82118820D01*
X140830134Y-81932482D01*
X140926265Y-81726326D01*
X140926269Y-81726317D01*
X140978872Y-81530000D01*
X140015686Y-81530000D01*
X140027641Y-81518045D01*
X140085165Y-81405148D01*
X140104986Y-81280000D01*
X140085165Y-81154852D01*
X140027641Y-81041955D01*
X140015686Y-81030000D01*
X140978872Y-81030000D01*
X140978872Y-81029999D01*
X140926269Y-80833682D01*
X140926265Y-80833673D01*
X140830134Y-80627517D01*
X140699657Y-80441179D01*
X140538820Y-80280342D01*
X140352482Y-80149865D01*
X140294133Y-80122657D01*
X140241694Y-80076484D01*
X140222542Y-80009291D01*
X140242758Y-79942410D01*
X140294129Y-79897895D01*
X140352734Y-79870568D01*
X140539139Y-79740047D01*
X140700047Y-79579139D01*
X140830568Y-79392734D01*
X140926739Y-79186496D01*
X140985635Y-78966692D01*
X141005468Y-78740000D01*
X141005467Y-78739994D01*
X140985635Y-78513313D01*
X140985635Y-78513308D01*
X140926739Y-78293504D01*
X140830568Y-78087266D01*
X140700047Y-77900861D01*
X140700045Y-77900858D01*
X140539141Y-77739954D01*
X140352734Y-77609432D01*
X140352732Y-77609431D01*
X140146497Y-77513261D01*
X140146488Y-77513258D01*
X139926697Y-77454366D01*
X139926693Y-77454365D01*
X139926692Y-77454365D01*
X139926691Y-77454364D01*
X139926686Y-77454364D01*
X139700002Y-77434532D01*
X139699998Y-77434532D01*
X139473313Y-77454364D01*
X139473302Y-77454366D01*
X139253511Y-77513258D01*
X139253502Y-77513261D01*
X139047267Y-77609431D01*
X139047265Y-77609432D01*
X138860858Y-77739954D01*
X138699954Y-77900858D01*
X138569432Y-78087265D01*
X138569431Y-78087267D01*
X138473261Y-78293502D01*
X138473258Y-78293511D01*
X138414366Y-78513302D01*
X138414364Y-78513313D01*
X138394532Y-78739998D01*
X138394532Y-78740001D01*
X138414364Y-78966686D01*
X138414366Y-78966697D01*
X138473258Y-79186488D01*
X138473261Y-79186497D01*
X138569431Y-79392732D01*
X138569432Y-79392734D01*
X138699954Y-79579141D01*
X138860858Y-79740045D01*
X138860861Y-79740047D01*
X139047266Y-79870568D01*
X139105865Y-79897893D01*
X139158305Y-79944065D01*
X139177457Y-80011258D01*
X139157242Y-80078139D01*
X139105867Y-80122657D01*
X139047515Y-80149867D01*
X138861179Y-80280342D01*
X138700342Y-80441179D01*
X138569865Y-80627517D01*
X138473734Y-80833673D01*
X138473730Y-80833682D01*
X138421127Y-81029999D01*
X138421128Y-81030000D01*
X139384314Y-81030000D01*
X139372359Y-81041955D01*
X139314835Y-81154852D01*
X139295014Y-81280000D01*
X139314835Y-81405148D01*
X139372359Y-81518045D01*
X139384314Y-81530000D01*
X138421128Y-81530000D01*
X138473730Y-81726317D01*
X138473734Y-81726326D01*
X138569865Y-81932482D01*
X138700342Y-82118820D01*
X138861179Y-82279657D01*
X139047518Y-82410134D01*
X139047520Y-82410135D01*
X139105865Y-82437342D01*
X139158305Y-82483514D01*
X139177457Y-82550707D01*
X139157242Y-82617589D01*
X139105867Y-82662105D01*
X139047268Y-82689431D01*
X139047264Y-82689433D01*
X138860858Y-82819954D01*
X138699954Y-82980858D01*
X138569432Y-83167265D01*
X138569431Y-83167267D01*
X138473261Y-83373502D01*
X138473258Y-83373511D01*
X138414366Y-83593302D01*
X138414364Y-83593313D01*
X138394532Y-83819998D01*
X138394532Y-83820001D01*
X138414364Y-84046686D01*
X138414366Y-84046697D01*
X138473258Y-84266488D01*
X138473261Y-84266497D01*
X138569431Y-84472732D01*
X138569432Y-84472734D01*
X138699954Y-84659141D01*
X138860858Y-84820045D01*
X138860861Y-84820047D01*
X139047266Y-84950568D01*
X139105275Y-84977618D01*
X139157714Y-85023791D01*
X139176866Y-85090984D01*
X139156650Y-85157865D01*
X139105275Y-85202382D01*
X139047267Y-85229431D01*
X139047265Y-85229432D01*
X138860858Y-85359954D01*
X138699954Y-85520858D01*
X138569432Y-85707265D01*
X138569431Y-85707267D01*
X138473261Y-85913502D01*
X138473258Y-85913511D01*
X138414366Y-86133302D01*
X138414364Y-86133313D01*
X138394532Y-86359998D01*
X138394532Y-86360001D01*
X138414364Y-86586686D01*
X138414366Y-86586697D01*
X138473258Y-86806488D01*
X138473261Y-86806497D01*
X138569431Y-87012732D01*
X138569432Y-87012734D01*
X138699954Y-87199141D01*
X138860858Y-87360045D01*
X139046648Y-87490135D01*
X139047266Y-87490568D01*
X139105278Y-87517619D01*
X139157713Y-87563788D01*
X139176866Y-87630982D01*
X139156651Y-87697863D01*
X139105277Y-87742380D01*
X139047268Y-87769430D01*
X139047265Y-87769432D01*
X138860858Y-87899954D01*
X138699954Y-88060858D01*
X138569432Y-88247265D01*
X138569431Y-88247267D01*
X138473261Y-88453502D01*
X138473258Y-88453511D01*
X138414366Y-88673302D01*
X138414364Y-88673313D01*
X138394532Y-88899998D01*
X138394532Y-88900001D01*
X133385468Y-88900001D01*
X133385468Y-88899998D01*
X133365635Y-88673313D01*
X133365635Y-88673308D01*
X133306739Y-88453504D01*
X133210568Y-88247266D01*
X133080047Y-88060861D01*
X133080045Y-88060858D01*
X132919141Y-87899954D01*
X132732734Y-87769432D01*
X132732732Y-87769431D01*
X132674721Y-87742380D01*
X132674132Y-87742105D01*
X132621694Y-87695934D01*
X132602542Y-87628740D01*
X132622758Y-87561859D01*
X132674134Y-87517341D01*
X132732484Y-87490132D01*
X132918820Y-87359657D01*
X133079657Y-87198820D01*
X133210134Y-87012482D01*
X133306265Y-86806326D01*
X133306269Y-86806317D01*
X133358872Y-86610000D01*
X132395686Y-86610000D01*
X132407641Y-86598045D01*
X132465165Y-86485148D01*
X132484986Y-86360000D01*
X132465165Y-86234852D01*
X132407641Y-86121955D01*
X132395686Y-86110000D01*
X133358872Y-86110000D01*
X133358872Y-86109999D01*
X133306269Y-85913682D01*
X133306265Y-85913673D01*
X133210134Y-85707517D01*
X133079657Y-85521179D01*
X132918820Y-85360342D01*
X132732482Y-85229865D01*
X132674133Y-85202657D01*
X132621694Y-85156484D01*
X132602542Y-85089291D01*
X132622758Y-85022410D01*
X132674129Y-84977895D01*
X132732734Y-84950568D01*
X132919139Y-84820047D01*
X133080047Y-84659139D01*
X133210568Y-84472734D01*
X133306739Y-84266496D01*
X133365635Y-84046692D01*
X133385468Y-83820000D01*
X133385467Y-83819994D01*
X133365635Y-83593313D01*
X133365635Y-83593308D01*
X133306739Y-83373504D01*
X133210568Y-83167266D01*
X133080047Y-82980861D01*
X133080045Y-82980858D01*
X132919141Y-82819954D01*
X132732734Y-82689432D01*
X132732728Y-82689429D01*
X132674725Y-82662382D01*
X132622285Y-82616210D01*
X132603133Y-82549017D01*
X132623348Y-82482135D01*
X132674725Y-82437618D01*
X132675319Y-82437341D01*
X132732734Y-82410568D01*
X132919139Y-82280047D01*
X133080047Y-82119139D01*
X133210568Y-81932734D01*
X133306739Y-81726496D01*
X133365635Y-81506692D01*
X133385468Y-81280000D01*
X133385467Y-81279994D01*
X133365635Y-81053313D01*
X133365635Y-81053308D01*
X133306739Y-80833504D01*
X133210568Y-80627266D01*
X133080047Y-80440861D01*
X133080045Y-80440858D01*
X132919143Y-80279956D01*
X132894536Y-80262726D01*
X132850912Y-80208149D01*
X132843719Y-80138650D01*
X132875241Y-80076296D01*
X132935471Y-80040882D01*
X132952404Y-80037861D01*
X132987483Y-80034091D01*
X133122331Y-79983796D01*
X133237546Y-79897546D01*
X133323796Y-79782331D01*
X133374091Y-79647483D01*
X133380500Y-79587873D01*
X133380499Y-77892128D01*
X133374091Y-77832517D01*
X133339567Y-77739954D01*
X133323797Y-77697671D01*
X133323793Y-77697664D01*
X133237547Y-77582455D01*
X133237544Y-77582452D01*
X133122335Y-77496206D01*
X133122328Y-77496202D01*
X132987482Y-77445908D01*
X132987483Y-77445908D01*
X132927883Y-77439501D01*
X132927881Y-77439500D01*
X132927873Y-77439500D01*
X132927865Y-77439500D01*
X132829500Y-77439500D01*
X132762461Y-77419815D01*
X132716706Y-77367011D01*
X132705500Y-77315500D01*
X132705500Y-66122742D01*
X132707224Y-66107123D01*
X132706939Y-66107097D01*
X132707671Y-66099339D01*
X132707673Y-66099333D01*
X132705808Y-66040000D01*
X132705530Y-66031152D01*
X132705499Y-66029201D01*
X132705500Y-66000650D01*
X132704631Y-65993770D01*
X132704172Y-65987943D01*
X132702709Y-65941372D01*
X132697122Y-65922144D01*
X132693174Y-65903084D01*
X132690663Y-65883204D01*
X132673512Y-65839887D01*
X132671619Y-65834358D01*
X132658618Y-65789609D01*
X132658616Y-65789606D01*
X132648423Y-65772371D01*
X132639861Y-65754894D01*
X132632487Y-65736270D01*
X132632486Y-65736268D01*
X132605079Y-65698545D01*
X132601888Y-65693686D01*
X132578172Y-65653583D01*
X132578165Y-65653574D01*
X132564006Y-65639415D01*
X132551368Y-65624619D01*
X132539594Y-65608413D01*
X132503688Y-65578709D01*
X132499376Y-65574786D01*
X127972271Y-61047680D01*
X127938786Y-60986357D01*
X127943770Y-60916665D01*
X127972271Y-60872318D01*
X128908384Y-59936205D01*
X129923788Y-58920801D01*
X129936042Y-58910986D01*
X129935859Y-58910764D01*
X129941868Y-58905791D01*
X129941877Y-58905786D01*
X129988607Y-58856022D01*
X129989846Y-58854743D01*
X130010120Y-58834471D01*
X130014379Y-58828978D01*
X130018152Y-58824561D01*
X130050062Y-58790582D01*
X130059713Y-58773024D01*
X130070396Y-58756761D01*
X130082673Y-58740936D01*
X130101185Y-58698153D01*
X130103738Y-58692941D01*
X130126197Y-58652092D01*
X130131180Y-58632680D01*
X130137481Y-58614280D01*
X130145437Y-58595896D01*
X130152729Y-58549852D01*
X130153906Y-58544171D01*
X130165500Y-58499019D01*
X130165500Y-58478982D01*
X130167027Y-58459583D01*
X130170160Y-58439804D01*
X130168288Y-58420000D01*
X135804341Y-58420000D01*
X135824936Y-58655403D01*
X135824938Y-58655413D01*
X135886094Y-58883655D01*
X135886096Y-58883659D01*
X135886097Y-58883663D01*
X135906772Y-58928000D01*
X135985965Y-59097830D01*
X135985967Y-59097834D01*
X136087664Y-59243071D01*
X136121501Y-59291396D01*
X136121506Y-59291402D01*
X136243430Y-59413326D01*
X136276915Y-59474649D01*
X136271931Y-59544341D01*
X136230059Y-59600274D01*
X136199083Y-59617189D01*
X136067669Y-59666203D01*
X136067664Y-59666206D01*
X135952455Y-59752452D01*
X135952452Y-59752455D01*
X135866206Y-59867664D01*
X135866202Y-59867671D01*
X135815908Y-60002517D01*
X135809501Y-60062116D01*
X135809501Y-60062123D01*
X135809500Y-60062135D01*
X135809500Y-61857870D01*
X135809501Y-61857876D01*
X135815908Y-61917483D01*
X135866202Y-62052328D01*
X135866206Y-62052335D01*
X135952452Y-62167544D01*
X135952455Y-62167547D01*
X136067664Y-62253793D01*
X136067671Y-62253797D01*
X136202517Y-62304091D01*
X136202516Y-62304091D01*
X136209444Y-62304835D01*
X136262127Y-62310500D01*
X138057872Y-62310499D01*
X138117483Y-62304091D01*
X138252331Y-62253796D01*
X138367546Y-62167546D01*
X138453796Y-62052331D01*
X138504091Y-61917483D01*
X138510500Y-61857873D01*
X138510499Y-60062128D01*
X138504091Y-60002517D01*
X138479358Y-59936205D01*
X138453797Y-59867671D01*
X138453793Y-59867664D01*
X138367547Y-59752455D01*
X138367544Y-59752452D01*
X138252335Y-59666206D01*
X138252328Y-59666202D01*
X138120917Y-59617189D01*
X138064983Y-59575318D01*
X138040566Y-59509853D01*
X138055418Y-59441580D01*
X138076563Y-59413332D01*
X138198495Y-59291401D01*
X138334035Y-59097830D01*
X138433903Y-58883663D01*
X138495063Y-58655408D01*
X138515659Y-58420000D01*
X138515658Y-58419994D01*
X138497006Y-58206799D01*
X138495063Y-58184592D01*
X138433903Y-57956337D01*
X138334035Y-57742171D01*
X138327180Y-57732380D01*
X138198494Y-57548597D01*
X138031402Y-57381506D01*
X138031395Y-57381501D01*
X137837834Y-57245967D01*
X137837830Y-57245965D01*
X137812641Y-57234219D01*
X137623663Y-57146097D01*
X137623659Y-57146096D01*
X137623655Y-57146094D01*
X137395413Y-57084938D01*
X137395403Y-57084936D01*
X137160001Y-57064341D01*
X137159999Y-57064341D01*
X136924596Y-57084936D01*
X136924586Y-57084938D01*
X136696344Y-57146094D01*
X136696335Y-57146098D01*
X136482171Y-57245964D01*
X136482169Y-57245965D01*
X136288597Y-57381505D01*
X136121505Y-57548597D01*
X135985965Y-57742169D01*
X135985964Y-57742171D01*
X135886098Y-57956335D01*
X135886094Y-57956344D01*
X135824938Y-58184586D01*
X135824936Y-58184596D01*
X135804341Y-58419999D01*
X135804341Y-58420000D01*
X130168288Y-58420000D01*
X130165773Y-58393406D01*
X130165499Y-58387585D01*
X130165499Y-55962744D01*
X130167224Y-55947129D01*
X130166937Y-55947102D01*
X130167670Y-55939339D01*
X130167672Y-55939332D01*
X130166336Y-55896830D01*
X130165530Y-55871169D01*
X130165499Y-55869219D01*
X130165500Y-55840650D01*
X130164629Y-55833758D01*
X130164172Y-55827946D01*
X130162709Y-55781374D01*
X130162709Y-55781372D01*
X130157120Y-55762137D01*
X130153174Y-55743084D01*
X130150664Y-55723208D01*
X130133501Y-55679859D01*
X130131614Y-55674346D01*
X130118617Y-55629610D01*
X130118616Y-55629608D01*
X130108421Y-55612369D01*
X130099860Y-55594893D01*
X130092486Y-55576269D01*
X130092486Y-55576267D01*
X130082474Y-55562488D01*
X130065083Y-55538550D01*
X130061900Y-55533705D01*
X130038170Y-55493579D01*
X130038165Y-55493573D01*
X130024005Y-55479413D01*
X130011370Y-55464620D01*
X129999593Y-55448412D01*
X129963693Y-55418713D01*
X129959381Y-55414790D01*
X127500802Y-52956211D01*
X127490980Y-52943950D01*
X127490759Y-52944134D01*
X127485786Y-52938122D01*
X127436066Y-52891432D01*
X127434666Y-52890075D01*
X127414476Y-52869884D01*
X127408986Y-52865625D01*
X127404561Y-52861847D01*
X127370582Y-52829938D01*
X127370580Y-52829936D01*
X127370577Y-52829935D01*
X127353029Y-52820288D01*
X127336763Y-52809604D01*
X127320933Y-52797325D01*
X127278168Y-52778818D01*
X127272922Y-52776248D01*
X127232093Y-52753803D01*
X127232092Y-52753802D01*
X127212693Y-52748822D01*
X127194281Y-52742518D01*
X127175898Y-52734562D01*
X127175892Y-52734560D01*
X127129874Y-52727272D01*
X127124152Y-52726087D01*
X127079021Y-52714500D01*
X127079019Y-52714500D01*
X127058984Y-52714500D01*
X127039586Y-52712973D01*
X127028877Y-52711277D01*
X127019805Y-52709840D01*
X127019804Y-52709840D01*
X126973416Y-52714225D01*
X126967578Y-52714500D01*
X119802975Y-52714500D01*
X119735936Y-52694815D01*
X119690181Y-52642011D01*
X119680237Y-52572853D01*
X119709262Y-52509297D01*
X119730091Y-52490181D01*
X119731871Y-52488888D01*
X119858533Y-52348216D01*
X119953179Y-52184284D01*
X120011674Y-52004256D01*
X120031460Y-51816000D01*
X120011674Y-51627744D01*
X119953179Y-51447716D01*
X119858533Y-51283784D01*
X119731871Y-51143112D01*
X119731870Y-51143111D01*
X119578734Y-51031851D01*
X119578729Y-51031848D01*
X119405807Y-50954857D01*
X119405802Y-50954855D01*
X119260000Y-50923865D01*
X119220646Y-50915500D01*
X119031354Y-50915500D01*
X118998897Y-50922398D01*
X118846197Y-50954855D01*
X118846192Y-50954857D01*
X118673270Y-51031848D01*
X118673265Y-51031851D01*
X118520130Y-51143110D01*
X118520126Y-51143114D01*
X118514400Y-51149474D01*
X118454913Y-51186121D01*
X118422252Y-51190500D01*
X117035748Y-51190500D01*
X116968709Y-51170815D01*
X116943600Y-51149474D01*
X116937873Y-51143114D01*
X116937869Y-51143110D01*
X116784734Y-51031851D01*
X116784729Y-51031848D01*
X116611807Y-50954857D01*
X116611802Y-50954855D01*
X116466001Y-50923865D01*
X116426646Y-50915500D01*
X116237354Y-50915500D01*
X116204897Y-50922398D01*
X116052197Y-50954855D01*
X116052192Y-50954857D01*
X115879270Y-51031848D01*
X115879265Y-51031851D01*
X115726129Y-51143111D01*
X115599466Y-51283785D01*
X115504821Y-51447715D01*
X115504818Y-51447722D01*
X115446327Y-51627740D01*
X115446326Y-51627744D01*
X115426540Y-51816000D01*
X115446326Y-52004256D01*
X115446327Y-52004259D01*
X115504818Y-52184277D01*
X115504821Y-52184284D01*
X115599467Y-52348216D01*
X115701185Y-52461185D01*
X115726128Y-52488887D01*
X115727909Y-52490181D01*
X115728690Y-52491194D01*
X115730958Y-52493236D01*
X115730584Y-52493650D01*
X115770576Y-52545510D01*
X115776556Y-52615124D01*
X115743950Y-52676919D01*
X115683112Y-52711277D01*
X115655025Y-52714500D01*
X104222738Y-52714500D01*
X104207121Y-52712776D01*
X104207094Y-52713062D01*
X104199332Y-52712327D01*
X104131172Y-52714469D01*
X104129225Y-52714500D01*
X104100650Y-52714500D01*
X104099929Y-52714590D01*
X104093757Y-52715369D01*
X104087945Y-52715826D01*
X104041373Y-52717290D01*
X104041372Y-52717290D01*
X104022129Y-52722881D01*
X104003079Y-52726825D01*
X103983211Y-52729334D01*
X103983209Y-52729335D01*
X103939884Y-52746488D01*
X103934357Y-52748380D01*
X103889610Y-52761381D01*
X103889609Y-52761382D01*
X103872367Y-52771579D01*
X103854899Y-52780137D01*
X103836269Y-52787513D01*
X103836267Y-52787514D01*
X103798576Y-52814898D01*
X103793694Y-52818105D01*
X103753579Y-52841830D01*
X103739408Y-52856000D01*
X103724623Y-52868628D01*
X103708412Y-52880407D01*
X103678709Y-52916310D01*
X103674777Y-52920631D01*
X102481008Y-54114399D01*
X102468751Y-54124220D01*
X102468934Y-54124441D01*
X102462922Y-54129414D01*
X102416232Y-54179132D01*
X102414879Y-54180529D01*
X102394689Y-54200719D01*
X102394677Y-54200732D01*
X102390421Y-54206217D01*
X102386637Y-54210647D01*
X102354737Y-54244618D01*
X102354736Y-54244620D01*
X102345084Y-54262176D01*
X102334410Y-54278426D01*
X102322129Y-54294261D01*
X102322124Y-54294268D01*
X102303615Y-54337038D01*
X102301045Y-54342284D01*
X102278603Y-54383106D01*
X102273622Y-54402507D01*
X102267321Y-54420910D01*
X102259362Y-54439302D01*
X102259361Y-54439305D01*
X102252071Y-54485327D01*
X102250887Y-54491046D01*
X102239301Y-54536172D01*
X102239300Y-54536182D01*
X102239300Y-54556216D01*
X102237773Y-54575615D01*
X102234640Y-54595394D01*
X102234640Y-54595395D01*
X102239025Y-54641783D01*
X102239300Y-54647621D01*
X102239300Y-56844746D01*
X102219615Y-56911785D01*
X102202985Y-56932422D01*
X102116420Y-57018988D01*
X102055646Y-57079762D01*
X101994323Y-57113246D01*
X101935873Y-57111855D01*
X101835408Y-57084937D01*
X101600001Y-57064341D01*
X101599999Y-57064341D01*
X101364596Y-57084936D01*
X101364586Y-57084938D01*
X101136344Y-57146094D01*
X101136335Y-57146098D01*
X100922171Y-57245964D01*
X100922169Y-57245965D01*
X100728597Y-57381505D01*
X100561505Y-57548597D01*
X100425965Y-57742169D01*
X100425964Y-57742171D01*
X100326098Y-57956335D01*
X100326094Y-57956344D01*
X100264938Y-58184586D01*
X100264936Y-58184596D01*
X100244341Y-58419999D01*
X100244341Y-58420000D01*
X91440500Y-58420000D01*
X91440500Y-47125870D01*
X111171500Y-47125870D01*
X111171501Y-47125876D01*
X111177908Y-47185483D01*
X111228202Y-47320328D01*
X111228206Y-47320335D01*
X111314452Y-47435544D01*
X111314455Y-47435547D01*
X111429664Y-47521793D01*
X111429671Y-47521797D01*
X111564517Y-47572091D01*
X111564516Y-47572091D01*
X111571444Y-47572835D01*
X111624127Y-47578500D01*
X113419872Y-47578499D01*
X113479483Y-47572091D01*
X113614331Y-47521796D01*
X113729546Y-47435546D01*
X113815796Y-47320331D01*
X113864810Y-47188916D01*
X113906681Y-47132984D01*
X113972145Y-47108566D01*
X114040418Y-47123417D01*
X114068672Y-47144569D01*
X114190599Y-47266495D01*
X114287384Y-47334264D01*
X114384165Y-47402032D01*
X114384167Y-47402033D01*
X114384170Y-47402035D01*
X114598337Y-47501903D01*
X114826592Y-47563063D01*
X115003034Y-47578500D01*
X115061999Y-47583659D01*
X115062000Y-47583659D01*
X115062001Y-47583659D01*
X115120966Y-47578500D01*
X115297408Y-47563063D01*
X115525663Y-47501903D01*
X115739830Y-47402035D01*
X115933401Y-47266495D01*
X116100495Y-47099401D01*
X116230424Y-46913842D01*
X116285002Y-46870217D01*
X116354500Y-46863023D01*
X116416855Y-46894546D01*
X116433575Y-46913842D01*
X116563281Y-47099082D01*
X116563505Y-47099401D01*
X116730599Y-47266495D01*
X116827384Y-47334264D01*
X116924165Y-47402032D01*
X116924167Y-47402033D01*
X116924170Y-47402035D01*
X117138337Y-47501903D01*
X117366592Y-47563063D01*
X117543034Y-47578500D01*
X117601999Y-47583659D01*
X117602000Y-47583659D01*
X117602001Y-47583659D01*
X117660966Y-47578500D01*
X117837408Y-47563063D01*
X118065663Y-47501903D01*
X118279830Y-47402035D01*
X118473401Y-47266495D01*
X118640495Y-47099401D01*
X118770424Y-46913842D01*
X118825002Y-46870217D01*
X118894500Y-46863023D01*
X118956855Y-46894546D01*
X118973575Y-46913842D01*
X119103281Y-47099082D01*
X119103505Y-47099401D01*
X119270599Y-47266495D01*
X119367384Y-47334264D01*
X119464165Y-47402032D01*
X119464167Y-47402033D01*
X119464170Y-47402035D01*
X119678337Y-47501903D01*
X119906592Y-47563063D01*
X120083034Y-47578500D01*
X120141999Y-47583659D01*
X120142000Y-47583659D01*
X120142001Y-47583659D01*
X120200966Y-47578500D01*
X120377408Y-47563063D01*
X120605663Y-47501903D01*
X120819830Y-47402035D01*
X121013401Y-47266495D01*
X121180495Y-47099401D01*
X121310730Y-46913405D01*
X121365307Y-46869781D01*
X121434805Y-46862587D01*
X121497160Y-46894110D01*
X121513879Y-46913405D01*
X121643890Y-47099078D01*
X121810917Y-47266105D01*
X122004421Y-47401600D01*
X122218507Y-47501429D01*
X122218516Y-47501433D01*
X122432000Y-47558634D01*
X122432000Y-46663501D01*
X122539685Y-46712680D01*
X122646237Y-46728000D01*
X122717763Y-46728000D01*
X122824315Y-46712680D01*
X122931999Y-46663501D01*
X122931999Y-47558633D01*
X123145483Y-47501433D01*
X123145492Y-47501429D01*
X123359578Y-47401600D01*
X123553082Y-47266105D01*
X123720105Y-47099082D01*
X123855600Y-46905578D01*
X123955429Y-46691492D01*
X123955432Y-46691486D01*
X124012636Y-46478000D01*
X123115686Y-46478000D01*
X123141493Y-46437844D01*
X123182000Y-46299889D01*
X123182000Y-46156111D01*
X123141493Y-46018156D01*
X123115686Y-45978000D01*
X124012636Y-45978000D01*
X124012635Y-45977999D01*
X123955432Y-45764513D01*
X123955429Y-45764507D01*
X123855600Y-45550422D01*
X123855599Y-45550420D01*
X123720113Y-45356926D01*
X123720108Y-45356920D01*
X123553082Y-45189894D01*
X123359578Y-45054399D01*
X123145492Y-44954570D01*
X123145486Y-44954567D01*
X122931999Y-44897364D01*
X122931999Y-45792498D01*
X122824315Y-45743320D01*
X122717763Y-45728000D01*
X122646237Y-45728000D01*
X122539685Y-45743320D01*
X122432000Y-45792498D01*
X122432000Y-44897364D01*
X122431999Y-44897364D01*
X122218513Y-44954567D01*
X122218507Y-44954570D01*
X122004422Y-45054399D01*
X122004420Y-45054400D01*
X121810926Y-45189886D01*
X121810920Y-45189891D01*
X121643891Y-45356920D01*
X121643890Y-45356922D01*
X121513880Y-45542595D01*
X121459303Y-45586219D01*
X121389804Y-45593412D01*
X121327450Y-45561890D01*
X121310730Y-45542594D01*
X121180494Y-45356597D01*
X121013402Y-45189506D01*
X121013395Y-45189501D01*
X120819834Y-45053967D01*
X120819830Y-45053965D01*
X120819830Y-45053964D01*
X120605663Y-44954097D01*
X120605659Y-44954096D01*
X120605655Y-44954094D01*
X120377413Y-44892938D01*
X120377403Y-44892936D01*
X120142001Y-44872341D01*
X120141999Y-44872341D01*
X119906596Y-44892936D01*
X119906586Y-44892938D01*
X119678344Y-44954094D01*
X119678335Y-44954098D01*
X119464171Y-45053964D01*
X119464169Y-45053965D01*
X119270597Y-45189505D01*
X119103505Y-45356597D01*
X118973575Y-45542158D01*
X118918998Y-45585783D01*
X118849500Y-45592977D01*
X118787145Y-45561454D01*
X118770425Y-45542158D01*
X118640494Y-45356597D01*
X118473402Y-45189506D01*
X118473395Y-45189501D01*
X118279834Y-45053967D01*
X118279830Y-45053965D01*
X118279829Y-45053964D01*
X118065663Y-44954097D01*
X118065659Y-44954096D01*
X118065655Y-44954094D01*
X117837413Y-44892938D01*
X117837403Y-44892936D01*
X117602001Y-44872341D01*
X117601999Y-44872341D01*
X117366596Y-44892936D01*
X117366586Y-44892938D01*
X117138344Y-44954094D01*
X117138335Y-44954098D01*
X116924171Y-45053964D01*
X116924169Y-45053965D01*
X116730597Y-45189505D01*
X116563505Y-45356597D01*
X116433575Y-45542158D01*
X116378998Y-45585783D01*
X116309500Y-45592977D01*
X116247145Y-45561454D01*
X116230425Y-45542158D01*
X116100494Y-45356597D01*
X115933402Y-45189506D01*
X115933395Y-45189501D01*
X115739834Y-45053967D01*
X115739830Y-45053965D01*
X115739830Y-45053964D01*
X115525663Y-44954097D01*
X115525659Y-44954096D01*
X115525655Y-44954094D01*
X115297413Y-44892938D01*
X115297403Y-44892936D01*
X115062001Y-44872341D01*
X115061999Y-44872341D01*
X114826596Y-44892936D01*
X114826586Y-44892938D01*
X114598344Y-44954094D01*
X114598335Y-44954098D01*
X114384171Y-45053964D01*
X114384169Y-45053965D01*
X114190600Y-45189503D01*
X114068673Y-45311430D01*
X114007350Y-45344914D01*
X113937658Y-45339930D01*
X113881725Y-45298058D01*
X113864810Y-45267081D01*
X113815797Y-45135671D01*
X113815793Y-45135664D01*
X113729547Y-45020455D01*
X113729544Y-45020452D01*
X113614335Y-44934206D01*
X113614328Y-44934202D01*
X113479482Y-44883908D01*
X113479483Y-44883908D01*
X113419883Y-44877501D01*
X113419881Y-44877500D01*
X113419873Y-44877500D01*
X113419864Y-44877500D01*
X111624129Y-44877500D01*
X111624123Y-44877501D01*
X111564516Y-44883908D01*
X111429671Y-44934202D01*
X111429664Y-44934206D01*
X111314455Y-45020452D01*
X111314452Y-45020455D01*
X111228206Y-45135664D01*
X111228202Y-45135671D01*
X111177908Y-45270517D01*
X111171501Y-45330116D01*
X111171500Y-45330135D01*
X111171500Y-47125870D01*
X91440500Y-47125870D01*
X91440500Y-40764500D01*
X91460185Y-40697461D01*
X91512989Y-40651706D01*
X91564500Y-40640500D01*
X152275500Y-40640500D01*
X152342539Y-40660185D01*
G37*
%TD.AperFunction*%
%TD*%
M02*
