M48
; DRILL file {KiCad 7.0.5-7.0.5~ubuntu22.04.1} date jeu. 08 juin 2023 15:32:48
; FORMAT={-:-/ absolute / inch / decimal}
; #@! TF.CreationDate,2023-06-08T15:32:48+02:00
; #@! TF.GenerationSoftware,Kicad,Pcbnew,7.0.5-7.0.5~ubuntu22.04.1
; #@! TF.FileFunction,Plated,1,2,PTH
FMAT,2
INCH
; #@! TA.AperFunction,Plated,PTH,ViaDrill
T1C0.0157
; #@! TA.AperFunction,Plated,PTH,ComponentDrill
T2C0.0315
; #@! TA.AperFunction,Plated,PTH,ComponentDrill
T3C0.0394
; #@! TA.AperFunction,Plated,PTH,ComponentDrill
T4C0.0400
%
G90
G05
T1
X4.58Y-2.04
X4.69Y-2.04
T2
X5.2Y-3.1
X5.2Y-3.2
X5.2Y-3.3
X5.2Y-3.4
X5.2Y-3.5
X5.5Y-3.1
X5.5Y-3.2
X5.5Y-3.3
X5.5Y-3.4
X5.5Y-3.5
T3
X4.0Y-2.3
X4.0Y-2.4
X4.0Y-2.68
X4.0Y-2.78
X4.43Y-1.82
X4.53Y-1.82
X4.63Y-1.82
X4.73Y-1.82
X4.83Y-1.82
X5.4Y-2.3
X5.4Y-2.4
T4
X4.3Y-2.4
X4.3Y-2.5
X4.3Y-2.6
X4.3Y-2.7
X4.3Y-2.8
X4.3Y-2.9
X4.3Y-3.0
X4.3Y-3.1
X4.3Y-3.2
X4.3Y-3.3
X4.3Y-3.4
X4.3Y-3.5
X4.35Y-2.3
X4.45Y-2.3
X4.55Y-2.3
X4.601Y-3.5
X4.65Y-2.3
X4.701Y-3.5
X4.75Y-2.3
X4.785Y-2.745
X4.785Y-2.845
X4.801Y-3.5
X4.85Y-2.3
X4.9Y-2.4
X4.9Y-2.5
X4.9Y-2.6
X4.9Y-2.7
X4.9Y-2.8
X4.9Y-2.9
X4.9Y-3.0
X4.9Y-3.1
X4.9Y-3.2
X4.9Y-3.3
X4.9Y-3.4
X4.9Y-3.5
T0
M30
