M48
; DRILL file {KiCad 8.0.1-8.0.1-1~ubuntu22.04.1} date 2024-03-21T15:33:13+0100
; FORMAT={-:-/ absolute / inch / decimal}
; #@! TF.CreationDate,2024-03-21T15:33:13+01:00
; #@! TF.GenerationSoftware,Kicad,Pcbnew,8.0.1-8.0.1-1~ubuntu22.04.1
; #@! TF.FileFunction,Plated,1,2,PTH
FMAT,2
INCH
; #@! TA.AperFunction,Plated,PTH,ViaDrill
T1C0.0157
; #@! TA.AperFunction,Plated,PTH,ComponentDrill
T2C0.0315
; #@! TA.AperFunction,Plated,PTH,ComponentDrill
T3C0.0394
; #@! TA.AperFunction,Plated,PTH,ComponentDrill
T4C0.0400
%
G90
G05
T1
X5.3Y-3.63
T2
X5.2Y-3.1
X5.2Y-3.2
X5.2Y-3.3
X5.2Y-3.4
X5.2Y-3.5
X5.5Y-3.1
X5.5Y-3.2
X5.5Y-3.3
X5.5Y-3.4
X5.5Y-3.5
T3
X4.0Y-2.3102
X4.0Y-2.4102
X4.357Y-1.8278
X4.457Y-1.8278
X4.557Y-1.8278
X4.657Y-1.8278
X4.757Y-1.8278
X5.2Y-2.3102
X5.2Y-2.4102
X5.2Y-2.75
X5.2Y-2.85
T4
X4.3063Y-2.3937
X4.3063Y-2.4937
X4.3063Y-2.5937
X4.3063Y-2.6937
X4.3063Y-2.7937
X4.3063Y-2.8937
X4.3063Y-2.9937
X4.3063Y-3.0937
X4.3063Y-3.1937
X4.3063Y-3.2937
X4.3063Y-3.3937
X4.3063Y-3.4937
X4.3563Y-2.2937
X4.4563Y-2.2937
X4.5563Y-2.2937
X4.6063Y-3.4937
X4.6563Y-2.2937
X4.7063Y-3.4937
X4.7563Y-2.2937
X4.8063Y-2.7437
X4.8063Y-2.8437
X4.8063Y-3.4937
X4.8563Y-2.2937
X4.9063Y-2.3937
X4.9063Y-2.4937
X4.9063Y-2.5937
X4.9063Y-2.6937
X4.9063Y-2.7937
X4.9063Y-2.8937
X4.9063Y-2.9937
X4.9063Y-3.0937
X4.9063Y-3.1937
X4.9063Y-3.2937
X4.9063Y-3.3937
X4.9063Y-3.4937
M30
