%TF.GenerationSoftware,KiCad,Pcbnew,8.0.1-8.0.1-1~ubuntu22.04.1*%
%TF.CreationDate,2024-03-21T15:32:47+01:00*%
%TF.ProjectId,AirGo,41697247-6f2e-46b6-9963-61645f706362,rev?*%
%TF.SameCoordinates,Original*%
%TF.FileFunction,Soldermask,Bot*%
%TF.FilePolarity,Negative*%
%FSLAX46Y46*%
G04 Gerber Fmt 4.6, Leading zero omitted, Abs format (unit mm)*
G04 Created by KiCad (PCBNEW 8.0.1-8.0.1-1~ubuntu22.04.1) date 2024-03-21 15:32:47*
%MOMM*%
%LPD*%
G01*
G04 APERTURE LIST*
%ADD10R,1.700000X1.700000*%
%ADD11O,1.700000X1.700000*%
%ADD12C,1.700000*%
%ADD13C,1.727200*%
%ADD14R,1.727200X1.727200*%
%ADD15R,2.400000X1.600000*%
%ADD16O,2.400000X1.600000*%
G04 APERTURE END LIST*
D10*
%TO.C,J1*%
X132080000Y-61219000D03*
D11*
X132080000Y-58679000D03*
%TD*%
D10*
%TO.C,J2*%
X110666895Y-46427371D03*
D11*
X113206895Y-46427371D03*
X115746895Y-46427371D03*
X118286895Y-46427371D03*
X120826895Y-46427371D03*
%TD*%
D12*
%TO.C,J4*%
X132080000Y-72390000D03*
D11*
X132080000Y-69850000D03*
%TD*%
D13*
%TO.C,A1*%
X124620000Y-78580000D03*
X124620000Y-76040000D03*
X124620000Y-73500000D03*
X124620000Y-70960000D03*
X122080000Y-72230000D03*
X122080000Y-69690000D03*
X119540000Y-88740000D03*
X122080000Y-88740000D03*
X109380000Y-63340000D03*
X109380000Y-60800000D03*
X109380000Y-70960000D03*
X109380000Y-73500000D03*
X109380000Y-76040000D03*
X109380000Y-78580000D03*
X109380000Y-81120000D03*
X109380000Y-83660000D03*
X109380000Y-86200000D03*
X109380000Y-88740000D03*
X124620000Y-88740000D03*
X124620000Y-86200000D03*
X124620000Y-83660000D03*
X124620000Y-81120000D03*
X110650000Y-58260000D03*
D14*
X109380000Y-68420000D03*
X124620000Y-63340000D03*
X117000000Y-88740000D03*
X120810000Y-58260000D03*
X123350000Y-58260000D03*
D13*
X124620000Y-60800000D03*
X109380000Y-65880000D03*
X124620000Y-65880000D03*
X115730000Y-58260000D03*
X113190000Y-58260000D03*
X124620000Y-68420000D03*
X118270000Y-58260000D03*
%TD*%
D15*
%TO.C,U2*%
X132080000Y-78740000D03*
D16*
X132080000Y-81280000D03*
X132080000Y-83820000D03*
X132080000Y-86360000D03*
X132080000Y-88900000D03*
X139700000Y-88900000D03*
X139700000Y-86360000D03*
X139700000Y-83820000D03*
X139700000Y-81280000D03*
D15*
X139700000Y-78740000D03*
%TD*%
D12*
%TO.C,J3*%
X101600000Y-61219000D03*
D11*
X101600000Y-58679000D03*
%TD*%
M02*
