%TF.GenerationSoftware,KiCad,Pcbnew,7.0.5-7.0.5~ubuntu22.04.1*%
%TF.CreationDate,2023-06-08T15:32:45+02:00*%
%TF.ProjectId,AirGo,41697247-6f2e-46b6-9963-61645f706362,rev?*%
%TF.SameCoordinates,Original*%
%TF.FileFunction,Soldermask,Bot*%
%TF.FilePolarity,Negative*%
%FSLAX46Y46*%
G04 Gerber Fmt 4.6, Leading zero omitted, Abs format (unit mm)*
G04 Created by KiCad (PCBNEW 7.0.5-7.0.5~ubuntu22.04.1) date 2023-06-08 15:32:45*
%MOMM*%
%LPD*%
G01*
G04 APERTURE LIST*
%ADD10C,1.879600*%
%ADD11R,1.700000X1.700000*%
%ADD12O,1.700000X1.700000*%
%ADD13R,1.600000X1.600000*%
%ADD14O,1.600000X1.600000*%
G04 APERTURE END LIST*
D10*
%TO.C,U3*%
X110490000Y-58420000D03*
X113030000Y-58420000D03*
X118110000Y-58420000D03*
X115570000Y-58420000D03*
X120650000Y-58420000D03*
X123190000Y-58420000D03*
X121539000Y-72263000D03*
X121539000Y-69723000D03*
X124460000Y-60960000D03*
X124460000Y-63500000D03*
X124460000Y-66040000D03*
X124460000Y-68580000D03*
X124460000Y-71120000D03*
X124460000Y-73660000D03*
X124460000Y-76200000D03*
X124460000Y-78740000D03*
X124460000Y-81280000D03*
X119405400Y-88900000D03*
X124460000Y-83820000D03*
X121945400Y-88900000D03*
X124460000Y-86360000D03*
X124460000Y-88900000D03*
X109220000Y-88900000D03*
X109220000Y-86360000D03*
X109220000Y-83820000D03*
X109220000Y-81280000D03*
X109220000Y-78740000D03*
X109220000Y-76200000D03*
X109220000Y-73660000D03*
X109220000Y-71120000D03*
X109220000Y-68580000D03*
X116865400Y-88900000D03*
X109220000Y-66040000D03*
X109220000Y-63500000D03*
X109220000Y-60960000D03*
%TD*%
D11*
%TO.C,J4*%
X101600000Y-70612000D03*
D12*
X101600000Y-68072000D03*
%TD*%
D11*
%TO.C,J3*%
X137160000Y-60960000D03*
D12*
X137160000Y-58420000D03*
%TD*%
D13*
%TO.C,U2*%
X132080000Y-78740000D03*
D14*
X132080000Y-81280000D03*
X132080000Y-83820000D03*
X132080000Y-86360000D03*
X132080000Y-88900000D03*
X139700000Y-88900000D03*
X139700000Y-86360000D03*
X139700000Y-83820000D03*
X139700000Y-81280000D03*
X139700000Y-78740000D03*
%TD*%
D11*
%TO.C,J1*%
X101600000Y-60960000D03*
D12*
X101600000Y-58420000D03*
%TD*%
D11*
%TO.C,J2*%
X112522000Y-46228000D03*
D12*
X115062000Y-46228000D03*
X117602000Y-46228000D03*
X120142000Y-46228000D03*
X122682000Y-46228000D03*
%TD*%
M02*
